<svg viewBox="0 0 1438 400" xmlns="http://www.w3.org/2000/svg"><g><g><g><g><g><line x1="46" y1="378" x2="41" y2="378" style="visibility: inherit;" fill="rgb(0, 0, 0)" stroke="rgb(204, 204, 204)" stroke-width="1px"></line><line x1="46" y1="346.50000000000006" x2="41" y2="346.50000000000006" style="visibility: inherit;" fill="rgb(0, 0, 0)" stroke="rgb(204, 204, 204)" stroke-width="1px"></line><line x1="46" y1="315" x2="41" y2="315" style="visibility: inherit;" fill="rgb(0, 0, 0)" stroke="rgb(204, 204, 204)" stroke-width="1px"></line><line x1="46" y1="283.5" x2="41" y2="283.5" style="visibility: inherit;" fill="rgb(0, 0, 0)" stroke="rgb(204, 204, 204)" stroke-width="1px"></line><line x1="46" y1="252" x2="41" y2="252" style="visibility: inherit;" fill="rgb(0, 0, 0)" stroke="rgb(204, 204, 204)" stroke-width="1px"></line><line x1="46" y1="220.49999999999997" x2="41" y2="220.49999999999997" style="visibility: inherit;" fill="rgb(0, 0, 0)" stroke="rgb(204, 204, 204)" stroke-width="1px"></line><line x1="46" y1="189" x2="41" y2="189" style="visibility: inherit;" fill="rgb(0, 0, 0)" stroke="rgb(204, 204, 204)" stroke-width="1px"></line><line x1="46" y1="157.49999999999994" x2="41" y2="157.49999999999994" style="visibility: inherit;" fill="rgb(0, 0, 0)" stroke="rgb(204, 204, 204)" stroke-width="1px"></line><line x1="46" y1="126" x2="41" y2="126" style="visibility: inherit;" fill="rgb(0, 0, 0)" stroke="rgb(204, 204, 204)" stroke-width="1px"></line><line x1="46" y1="94.49999999999994" x2="41" y2="94.49999999999994" style="visibility: inherit;" fill="rgb(0, 0, 0)" stroke="rgb(204, 204, 204)" stroke-width="1px"></line><line x1="46" y1="62.99999999999994" x2="41" y2="62.99999999999994" style="visibility: inherit;" fill="rgb(0, 0, 0)" stroke="rgb(204, 204, 204)" stroke-width="1px"></line><line x1="46" y1="31.499999999999886" x2="41" y2="31.499999999999886" style="visibility: inherit;" fill="rgb(0, 0, 0)" stroke="rgb(204, 204, 204)" stroke-width="1px"></line><line x1="46" y1="0" x2="41" y2="0" style="visibility: inherit;" fill="rgb(0, 0, 0)" stroke="rgb(204, 204, 204)" stroke-width="1px"></line></g><g transform="translate(36, 0)"><text x="0" y="378" dx="0em" dy="0.3em" style="text-anchor: end; visibility: hidden; font-family: &quot;Helvetica Neue&quot;, sans-serif; font-size: 12px; font-weight: 200;" fill="rgb(50, 49, 63)" stroke="none" stroke-width="1px">2.2</text><text x="0" y="346.50000000000006" dx="0em" dy="0.3em" style="text-anchor: end; visibility: inherit; font-family: &quot;Helvetica Neue&quot;, sans-serif; font-size: 12px; font-weight: 200;" fill="rgb(50, 49, 63)" stroke="none" stroke-width="1px">2.4</text><text x="0" y="315" dx="0em" dy="0.3em" style="text-anchor: end; visibility: inherit; font-family: &quot;Helvetica Neue&quot;, sans-serif; font-size: 12px; font-weight: 200;" fill="rgb(50, 49, 63)" stroke="none" stroke-width="1px">2.6</text><text x="0" y="283.5" dx="0em" dy="0.3em" style="text-anchor: end; visibility: inherit; font-family: &quot;Helvetica Neue&quot;, sans-serif; font-size: 12px; font-weight: 200;" fill="rgb(50, 49, 63)" stroke="none" stroke-width="1px">2.8</text><text x="0" y="252" dx="0em" dy="0.3em" style="text-anchor: end; visibility: inherit; font-family: &quot;Helvetica Neue&quot;, sans-serif; font-size: 12px; font-weight: 200;" fill="rgb(50, 49, 63)" stroke="none" stroke-width="1px">3</text><text x="0" y="220.49999999999997" dx="0em" dy="0.3em" style="text-anchor: end; visibility: inherit; font-family: &quot;Helvetica Neue&quot;, sans-serif; font-size: 12px; font-weight: 200;" fill="rgb(50, 49, 63)" stroke="none" stroke-width="1px">3.2</text><text x="0" y="189" dx="0em" dy="0.3em" style="text-anchor: end; visibility: inherit; font-family: &quot;Helvetica Neue&quot;, sans-serif; font-size: 12px; font-weight: 200;" fill="rgb(50, 49, 63)" stroke="none" stroke-width="1px">3.4</text><text x="0" y="157.49999999999994" dx="0em" dy="0.3em" style="text-anchor: end; visibility: inherit; font-family: &quot;Helvetica Neue&quot;, sans-serif; font-size: 12px; font-weight: 200;" fill="rgb(50, 49, 63)" stroke="none" stroke-width="1px">3.6</text><text x="0" y="126" dx="0em" dy="0.3em" style="text-anchor: end; visibility: inherit; font-family: &quot;Helvetica Neue&quot;, sans-serif; font-size: 12px; font-weight: 200;" fill="rgb(50, 49, 63)" stroke="none" stroke-width="1px">3.8</text><text x="0" y="94.49999999999994" dx="0em" dy="0.3em" style="text-anchor: end; visibility: inherit; font-family: &quot;Helvetica Neue&quot;, sans-serif; font-size: 12px; font-weight: 200;" fill="rgb(50, 49, 63)" stroke="none" stroke-width="1px">4</text><text x="0" y="62.99999999999994" dx="0em" dy="0.3em" style="text-anchor: end; visibility: inherit; font-family: &quot;Helvetica Neue&quot;, sans-serif; font-size: 12px; font-weight: 200;" fill="rgb(50, 49, 63)" stroke="none" stroke-width="1px">4.2</text><text x="0" y="31.499999999999886" dx="0em" dy="0.3em" style="text-anchor: end; visibility: inherit; font-family: &quot;Helvetica Neue&quot;, sans-serif; font-size: 12px; font-weight: 200;" fill="rgb(50, 49, 63)" stroke="none" stroke-width="1px">4.4</text><text x="0" y="0" dx="0em" dy="0.3em" style="text-anchor: end; visibility: hidden; font-family: &quot;Helvetica Neue&quot;, sans-serif; font-size: 12px; font-weight: 200;" fill="rgb(50, 49, 63)" stroke="none" stroke-width="1px">4.6</text></g><line x1="46" y1="0" x2="46" y2="378" fill="rgb(0, 0, 0)" stroke="rgb(204, 204, 204)" stroke-width="1px"></line></g></g><g transform="translate(46, 0)" clip-path="url(#clip_0)"><clipPath id="clip_0"><rect width="1392" height="378"></rect></clipPath><g><g><g><line x1="0" y1="0" x2="0" y2="378" fill="rgb(0, 0, 0)" stroke="rgb(60, 60, 60)" stroke-width="1px" opacity="0.25"></line><line x1="198.85714285714283" y1="0" x2="198.85714285714283" y2="378" fill="rgb(0, 0, 0)" stroke="rgb(60, 60, 60)" stroke-width="1px" opacity="0.25"></line><line x1="397.71428571428567" y1="0" x2="397.71428571428567" y2="378" fill="rgb(0, 0, 0)" stroke="rgb(60, 60, 60)" stroke-width="1px" opacity="0.25"></line><line x1="596.5714285714286" y1="0" x2="596.5714285714286" y2="378" fill="rgb(0, 0, 0)" stroke="rgb(60, 60, 60)" stroke-width="1px" opacity="0.25"></line><line x1="795.4285714285713" y1="0" x2="795.4285714285713" y2="378" fill="rgb(0, 0, 0)" stroke="rgb(60, 60, 60)" stroke-width="1px" opacity="0.25"></line><line x1="994.2857142857143" y1="0" x2="994.2857142857143" y2="378" fill="rgb(0, 0, 0)" stroke="rgb(60, 60, 60)" stroke-width="1px" opacity="0.25"></line><line x1="1193.142857142857" y1="0" x2="1193.142857142857" y2="378" fill="rgb(0, 0, 0)" stroke="rgb(60, 60, 60)" stroke-width="1px" opacity="0.25"></line><line x1="1392" y1="0" x2="1392" y2="378" fill="rgb(0, 0, 0)" stroke="rgb(60, 60, 60)" stroke-width="1px" opacity="0.25"></line></g><g><line x1="0" y1="378" x2="1392" y2="378" fill="rgb(0, 0, 0)" stroke="rgb(60, 60, 60)" stroke-width="1px" opacity="0.25"></line><line x1="0" y1="346.50000000000006" x2="1392" y2="346.50000000000006" fill="rgb(0, 0, 0)" stroke="rgb(60, 60, 60)" stroke-width="1px" opacity="0.25"></line><line x1="0" y1="315" x2="1392" y2="315" fill="rgb(0, 0, 0)" stroke="rgb(60, 60, 60)" stroke-width="1px" opacity="0.25"></line><line x1="0" y1="283.5" x2="1392" y2="283.5" fill="rgb(0, 0, 0)" stroke="rgb(60, 60, 60)" stroke-width="1px" opacity="0.25"></line><line x1="0" y1="252" x2="1392" y2="252" fill="rgb(0, 0, 0)" stroke="rgb(60, 60, 60)" stroke-width="1px" opacity="0.25"></line><line x1="0" y1="220.49999999999997" x2="1392" y2="220.49999999999997" fill="rgb(0, 0, 0)" stroke="rgb(60, 60, 60)" stroke-width="1px" opacity="0.25"></line><line x1="0" y1="189" x2="1392" y2="189" fill="rgb(0, 0, 0)" stroke="rgb(60, 60, 60)" stroke-width="1px" opacity="0.25"></line><line x1="0" y1="157.49999999999994" x2="1392" y2="157.49999999999994" fill="rgb(0, 0, 0)" stroke="rgb(60, 60, 60)" stroke-width="1px" opacity="0.25"></line><line x1="0" y1="126" x2="1392" y2="126" fill="rgb(0, 0, 0)" stroke="rgb(60, 60, 60)" stroke-width="1px" opacity="0.25"></line><line x1="0" y1="94.49999999999994" x2="1392" y2="94.49999999999994" fill="rgb(0, 0, 0)" stroke="rgb(60, 60, 60)" stroke-width="1px" opacity="0.25"></line><line x1="0" y1="62.99999999999994" x2="1392" y2="62.99999999999994" fill="rgb(0, 0, 0)" stroke="rgb(60, 60, 60)" stroke-width="1px" opacity="0.25"></line><line x1="0" y1="31.499999999999886" x2="1392" y2="31.499999999999886" fill="rgb(0, 0, 0)" stroke="rgb(60, 60, 60)" stroke-width="1px" opacity="0.25"></line><line x1="0" y1="0" x2="1392" y2="0" fill="rgb(0, 0, 0)" stroke="rgb(60, 60, 60)" stroke-width="1px" opacity="0.25"></line></g></g></g><g><g><line x1="0" y1="724.5000000000001" x2="1392" y2="724.5000000000001" fill="rgb(0, 0, 0)" stroke="rgb(153, 153, 153)" stroke-width="1.5px"></line></g></g><g><g><line x1="198.85714285714283" y1="0" x2="198.85714285714283" y2="378" fill="rgb(0, 0, 0)" stroke="rgb(153, 153, 153)" stroke-width="1.5px"></line></g></g><g><g><g><g><g><path stroke="rgb(255, 112, 67)" stroke-width="2px" d="M230.27657142857143,-18.567491054534912L231.46971428571428,6.734398126602116L232.66285714285715,-45.23570823669439L235.04914285714284,-9.869344711303711L236.2422857142857,51.785521030426025L237.43542857142856,76.55981969833368L238.62857142857143,76.21367526054377L239.8217142857143,23.038109064102116L241.01485714285715,50.50728750228876L242.20799999999997,51.52724575996393L243.40114285714284,26.663876295089665L244.59428571428572,-31.403899669647274L245.78742857142856,80.388512134552L246.98057142857144,141.78352546691892L248.1737142857143,108.5526831150055L249.36685714285713,86.67258453369135L250.56,101.61620092391968L251.75314285714285,105.61432313919062L252.94628571428572,82.16279339790344L254.1394285714286,6.082889556884709L255.33257142857144,76.8244035243988L256.5257142857143,137.79978525638577L257.71885714285713,92.16853809356684L258.912,83.38259768486023L260.1051428571429,75.20798635482782L261.2982857142857,60.48509430885309L262.49142857142857,135.28766584396362L263.6845714285714,90.96976232528687L264.87771428571426,153.45517945289612L266.07085714285716,95.19957375526423L267.264,133.24373137950894L268.45714285714286,104.54412174224848L269.65028571428576,46.09700632095337L270.84342857142855,140.13241124153137L272.03657142857145,95.97684037685394L273.2297142857143,82.38667201995844L274.42285714285714,118.42594814300537L275.616,81.6445906162262L276.80914285714283,158.47528767585754L278.0022857142857,157.94728410243988L279.1954285714286,67.65063714981079L280.3885714285714,186.71771478652954L281.58171428571427,150.5292488336563L282.7748571428572,207.56501269340515L283.96799999999996,164.67933905124664L285.16114285714286,208.16526424884796L286.3542857142857,134.3452126979828L287.54742857142855,219.34195947647095L288.74057142857146,77.24610042572016L289.9337142857143,92.130386352539L291.12685714285715,131.31271255016327L292.32,139.9028624296188L293.51314285714284,184.74523973464966L294.70628571428574,170.9664155244827L295.8994285714286,156.92379605770108L297.09257142857143,180.74396324157715L298.2857142857143,198.62650287151337L299.4788571428571,188.90329134464264L300.67199999999997,190.2613205909729L301.86514285714287,217.94498991966248L303.0582857142857,117.147864818573L304.25142857142856,211.58074629306793L305.4445714285714,156.2030435800552L306.63771428571425,210.26008021831512L307.83085714285716,183.10373854637143L309.024,160.85635435581207L310.21714285714285,171.91577804088593L311.41028571428575,93.7091023921966L312.60342857142854,154.80115485191345L313.79657142857144,199.67931818962097L314.9897142857143,127.16885519027707L316.18285714285713,175.03779959678647L317.37600000000003,100.5087114572525L318.5691428571429,198.7265009880066L319.7622857142857,156.1070258617401L320.95542857142857,189.95482993125916L322.1485714285714,192.42324006557465L323.3417142857143,182.5060029029846L324.53485714285716,181.50463235378263L325.728,181.2626917362213L326.92114285714285,110.05040180683136L328.1142857142857,166.63589251041412L329.30742857142855,224.98481225967407L330.50057142857145,219.52010107040405L331.6937142857143,256.1966164112091L332.88685714285714,229.0038878917694L334.08,189.36366569995877L335.27314285714283,237.61202466487885L336.46628571428573,112.04277884960175L337.6594285714286,113.31323933601374L338.8525714285714,199.40774989128113L340.04571428571427,292.36664485931396L341.2388571428571,188.85744166374207L342.432,159.3427140712738L343.62514285714286,267.57815194129944L344.8182857142857,250.96911442279816L346.0114285714286,188.65218830108643L347.2045714285714,94.2529149055481L348.3977142857143,204.79146373271942L349.5908571428572,242.09954810142517L350.784,208.2334942817688L351.97714285714284,183.49599552154538L353.17028571428574,170.843811750412L354.3634285714285,163.36456847190857L355.55657142857143,189.86699831485745L356.7497142857143,180.43431830406186L357.9428571428571,242.85623681545258L359.136,272.6708085536957L360.3291428571428,69.13352322578424L361.5222857142857,242.20585477352142L362.71542857142856,118.51783525943756L363.90857142857146,223.6064304113388L365.1017142857143,87.32724738121033L366.2948571428571,215.38994979858398L367.488,168.71670198440552L368.68114285714285,191.4167625904083L369.87428571428575,248.54032051563263L371.0674285714286,263.8004161119461L372.2605714285714,195.48210096359253L373.4537142857143,126.67892825603482L374.64685714285713,118.1050379276275L375.84000000000003,214.38707721233368L377.0331428571429,238.27183198928833L378.2262857142858,242.73776364326477L379.41942857142857,222.29654145240784L380.6125714285714,201.92035746574402L381.8057142857143,186.05358910560608L382.9988571428571,246.13548409938812L384.192,207.04819929599762L385.38514285714285,259.0473325252533L386.5782857142857,196.21498239040372L387.7714285714286,261.7442775964737L388.9645714285714,254.8197741508484L390.1577142857143,205.35010886192322L391.35085714285714,190.61474990844727L392.544,231.27932381629944L393.7371428571429,231.4877314567566L394.9302857142857,167.52348375320435L396.1234285714286,165.66283535957334L397.3165714285714,227.15491783618927L398.5097142857143,195.59223783016202L399.70285714285717,188.5380710363388L400.89599999999996,196.14472460746765L402.08914285714286,236.48320627212524L403.2822857142857,264.13747322559357L404.4754285714286,219.56685197353363L405.6685714285714,173.20869398117065L406.86171428571424,225.02976071834564L408.05485714285714,235.33151936531067L409.248,189.49475598335266L410.4411428571429,124.92473673820496L411.6342857142857,227.2014809846878L412.8274285714286,150.9018666744232L414.02057142857143,187.07628858089447L415.2137142857143,77.02424955368042L416.4068571428572,222.87734162807465L417.59999999999997,254.01025128364563L418.79314285714287,209.760089635849L419.9862857142857,208.13338351249695L421.17942857142856,313.29745602607727L422.37257142857146,212.28989553451538L423.56571428571425,280.2327389717102L424.75885714285715,147.94146430492398L425.952,239.4663645029068L427.1451428571429,155.49058985710144L428.33828571428575,246.5998764038086L429.53142857142853,196.0813761949539L430.72457142857144,247.99677085876465L431.9177142857143,267.70323407649994L433.1108571428572,189.11057245731354L434.304,280.417489528656L435.4971428571428,225.3708357810974L436.6902857142857,159.21323847770688L437.88342857142857,228.40134572982788L439.07657142857147,258.0179489850998L440.26971428571426,278.2341284751892L441.4628571428571,250.78289937973022L442.656,194.44652152061462L443.84914285714285,243.2226963043213L445.04228571428575,257.4045170545578L446.23542857142854,229.39963710308075L447.42857142857144,203.36986076831818L448.6217142857143,238.56701982021332L449.81485714285714,220.93231630325317L451.00800000000004,187.60429215431213L452.2011428571428,208.97388589382172L453.39428571428573,145.64796638488767L454.5874285714286,231.26253855228424L455.7805714285714,246.61662411689758L456.9737142857143,178.60971879959106L458.1668571428571,212.72871565818787L459.36,293.6913664340973L460.55314285714286,171.27016496658325L461.74628571428576,228.36049032211304L462.93942857142855,234.43469059467316L464.1325714285714,215.12829494476318L465.3257142857143,267.05570590496063L466.51885714285714,240.58556985855103L467.71200000000005,282.02346754074097L468.90514285714283,171.66895580291748L470.0982857142857,252.25827527046204L471.2914285714286,185.76459717750546L472.4845714285714,228.45812273025513L473.67771428571433,282.27611017227173L474.8708571428571,245.59869360923767L476.064,197.5419945716858L477.25714285714287,231.757422208786L478.4502857142857,259.6830321550369L479.6434285714286,277.81269443035126L480.8365714285714,271.39426481723785L482.0297142857143,238.1598175764084L483.22285714285715,200.74448776245117L484.41599999999994,204.126624584198L485.60914285714284,191.22405123710632L486.8022857142857,196.26759123802182L487.9954285714286,253.42986416816711L489.18857142857144,230.22887420654297L490.38171428571434,216.26616311073303L491.5748571428571,321.37770187854767L492.768,260.7684792280197L493.9611428571429,257.4094362258911L495.1542857142857,203.3915652036667L496.3474285714286,273.37425005435944L497.5405714285714,221.62088763713837L498.73371428571426,235.22487473487854L499.92685714285716,164.57543563842773L501.12,186.09823715686798L502.3131428571429,263.0455673933029L503.5062857142857,172.1752924919128L504.69942857142854,217.89906513690948L505.89257142857144,207.58266162872314L507.0857142857143,227.72460293769836L508.2788571428572,221.4437599182129L509.472,207.69110870361328L510.6651428571429,221.63996350765228L511.8582857142857,289.087322473526L513.0514285714286,163.10452830791473L514.2445714285715,234.91966080665588L515.4377142857143,213.89193069934845L516.6308571428572,253.28799676895142L517.824,257.11781573295593L519.0171428571429,225.84029746055603L520.2102857142858,254.66258597373962L521.4034285714285,224.87463784217834L522.5965714285715,266.77065682411194L523.7897142857142,265.7580209970474L524.9828571428571,162.96908211708066L526.176,222.7502317428589L527.3691428571428,234.95702397823334L528.5622857142857,221.74912405014038L529.7554285714285,217.49937307834625L530.9485714285714,254.0450234413147L532.1417142857143,243.4451104402542L533.3348571428571,265.64987432956696L534.528,257.7911789417267L535.7211428571428,167.61195373535153L536.9142857142857,263.9465643167496L538.1074285714286,302.30847787857056L539.3005714285715,275.8245230913162L540.4937142857143,252.65612733364105L541.6868571428571,231.93334829807281L542.88,225.6810064315796L544.0731428571429,290.11422765254974L545.2662857142858,206.90914821624756L546.4594285714286,279.374324798584L547.6525714285714,174.7487701177597L548.8457142857143,234.16958105564117L550.0388571428571,158.2554270029068L551.232,280.4440004825592L552.4251428571429,237.659601688385L553.6182857142857,132.5743861198425L554.8114285714286,252.48166573047638L556.0045714285714,308.67110681533813L557.1977142857143,265.6338400840759L558.3908571428572,203.20136976242063L559.5840000000001,209.2288942337036L560.7771428571428,268.3203835487366L561.9702857142856,257.9814119338989L563.1634285714285,139.54301190376282L564.3565714285714,250.94478142261505L565.5497142857143,195.6509299278259L566.7428571428571,266.63453471660614L567.9359999999999,251.23159539699554L569.1291428571428,206.89506661891937L570.3222857142857,248.97959125041962L571.5154285714286,247.01338720321655L572.7085714285714,266.4765204191208L573.9017142857143,238.16721510887146L575.0948571428571,281.15979623794556L576.288,297.6302332878113L577.4811428571429,304.8756844997406L578.6742857142857,276.0150189399719L579.8674285714286,274.0609438419342L581.0605714285714,329.5111949443817L582.2537142857143,262.46450436115265L583.4468571428572,287.247740149498L584.64,267.99492967128754L585.8331428571429,289.9403293132782L587.0262857142857,214.02842831611633L588.2194285714286,239.10933029651642L589.4125714285715,131.51593816280365L590.6057142857143,237.16640782356262L591.7988571428572,238.71557128429413L592.992,303.08811020851135L594.1851428571429,215.68581354618073L595.3782857142858,230.0951178073883L596.5714285714286,307.7992869615555L597.7645714285715,202.1677429676056L598.9577142857142,311.69076454639435L600.1508571428571,284.36048698425293L601.3439999999999,255.5155552625656L602.5371428571428,267.46640038490295L603.7302857142857,314.99013912677765L604.9234285714285,222.84110498428345L606.1165714285714,265.3359485864639L607.3097142857142,274.2606772184372L608.5028571428571,282.6927752494812L609.696,289.4058669805527L610.8891428571428,255.81896674633026L612.0822857142857,321.2801070213318L613.2754285714285,285.4281349182129L614.4685714285714,240.0532854795456L615.6617142857143,275.34413409233093L616.8548571428571,249.7087551355362L618.048,184.09628462791443L619.2411428571428,252.298792719841L620.4342857142857,337.9859883785248L621.6274285714286,270.1799429655075L622.8205714285715,287.3840124607086L624.0137142857143,261.443194270134L625.2068571428571,340.67392122745514L626.4,212.48703789710999L627.5931428571429,274.7516555786133L628.7862857142858,329.11890041828156L629.9794285714286,305.4705287218094L631.1725714285714,273.83304727077484L632.3657142857143,315.1689941883087L633.5588571428572,195.14710915088654L634.7520000000001,258.0163342952728L635.9451428571429,317.42580485343933L637.1382857142858,295.18638145923615L638.3314285714285,228.54054701328278L639.5245714285714,233.10504984855652L640.7177142857144,153.0905224084854L641.9108571428571,278.60295367240906L643.104,285.56151580810547L644.2971428571428,237.46846747398376L645.4902857142857,284.9480838775635L646.6834285714286,193.05646133422852L647.8765714285714,298.03105187416077L649.0697142857143,263.8693971633911L650.2628571428571,297.13422310352325L651.456,281.3256962299347L652.6491428571428,260.6778312921524L653.8422857142857,232.53607821464539L655.0354285714286,340.5991197824478L656.2285714285714,288.1313134431839L657.4217142857143,214.42725670337677L658.6148571428571,258.55425131320953L659.808,206.77118611335754L661.0011428571429,279.67916321754456L662.1942857142857,253.0161280632019L663.3874285714286,252.27693808078766L664.5805714285714,256.7684794664383L665.7737142857143,296.9461680650711L666.9668571428572,232.39349734783173L668.16,230.85342121124268L669.3531428571429,264.77512550354004L670.5462857142857,262.24404287338257L671.7394285714286,263.7513370513916L672.9325714285715,274.6872181892395L674.1257142857143,308.5353226661682L675.3188571428572,303.0011798143387L676.512,238.52387380599976L677.7051428571428,250.85420858860016L678.8982857142857,267.9685689210892L680.0914285714285,318.6560482978821L681.2845714285714,276.8819947242737L682.4777142857142,233.0108721256256L683.6708571428571,264.62841403484344L684.864,213.7741334438324L686.0571428571429,295.1047832965851L687.2502857142857,214.75210976600647L688.4434285714285,273.0122215747833L689.6365714285714,235.8010561466217L690.8297142857143,308.45717918872833L692.0228571428572,288.9026470184326L693.216,267.78363060951233L694.4091428571428,303.56106412410736L695.6022857142857,275.0219095945358L696.7954285714286,244.4456924200058L697.9885714285715,176.85135912895203L699.1817142857144,234.68661975860596L700.3748571428571,269.73455142974854L701.568,251.14440214633942L702.7611428571429,191.03430640697476L703.9542857142857,262.1345068216324L705.1474285714286,298.4643895626068L706.3405714285715,256.5978480577469L707.5337142857144,258.4511740207672L708.726857142857,265.90570878982544L709.92,210.4615033864975L711.1131428571429,283.8652653694153L712.3062857142857,223.4645254611969L713.4994285714286,251.37027096748352L714.6925714285715,203.85355424880981L715.8857142857142,316.8582601547241L717.0788571428571,295.9778798818588L718.272,241.3593442440033L719.465142857143,282.57843267917633L720.6582857142856,263.61626636981964L721.8514285714285,296.0499025583267L723.0445714285714,256.177502989769L724.2377142857142,259.7411985397339L725.4308571428571,224.1270364522934L726.624,281.0225476026535L727.8171428571429,231.2031329870224L729.0102857142857,314.7710294723511L730.2034285714286,293.1271262168884L731.3965714285715,281.22566056251526L732.5897142857142,186.4090461730957L733.7828571428571,276.11235094070435L734.976,265.65212738513947L736.1691428571428,263.6897910833359L737.3622857142857,309.9362350702286L738.5554285714286,196.8628485202789L739.7485714285715,256.5209813117981L740.9417142857143,209.98532009124756L742.1348571428572,286.43750381469727L743.3280000000001,282.72784781455994L744.5211428571428,232.78342616558075L745.7142857142857,243.49178624153137L746.9074285714286,242.41294813156128L748.1005714285715,286.03653502464294L749.2937142857143,295.39629113674164L750.4868571428572,283.7436754703522L751.6800000000001,315.4323763847351L752.8731428571429,312.5533844232559L754.0662857142858,267.4745864868164L755.2594285714287,281.54300343990326L756.4525714285716,297.36497354507446L757.6457142857142,260.6264991760254L758.8388571428571,261.3444353342056L760.032,265.58310878276825L761.2251428571428,272.5918389558792L762.4182857142857,203.56212151050568L763.6114285714286,309.1154844760895L764.8045714285713,92.05070328712458L765.9977142857142,250.98447275161743L767.1908571428571,325.2045167684555L768.384,283.8834775686264L769.5771428571428,320.5620206594467L770.7702857142857,238.32282614707947L771.9634285714286,284.42285907268524L773.1565714285714,286.6320176124573L774.3497142857143,289.69301891326904L775.5428571428572,240.22027444839478L776.7360000000001,247.95430076122284L777.9291428571428,209.98028826713562L779.1222857142857,274.02632188796997L780.3154285714286,199.84540593624115L781.5085714285714,232.7800841331482L782.7017142857143,288.706405878067L783.8948571428572,240.7445229291916L785.088,345.7118285894394L786.2811428571429,252.44272541999817L787.4742857142858,260.86092960834503L788.6674285714287,257.70263385772705L789.8605714285713,259.65884935855865L791.0537142857142,259.23489940166473L792.2468571428572,320.84320199489594L793.4399999999999,313.42636835575104L794.6331428571428,364.81094312667847L795.8262857142857,306.6863526105881L797.0194285714286,312.47080993652344L798.2125714285714,300.71857166290283L799.4057142857143,251.04162526130676L800.5988571428572,299.8132939338684L801.7919999999999,259.82587587833405L802.9851428571428,265.2526230812073L804.1782857142857,319.4649703502655L805.3714285714286,268.49935126304626L806.5645714285714,314.0100224018097L807.7577142857143,160.93457293510434L808.9508571428572,305.3595657348633L810.1439999999999,209.5917488336563L811.3371428571428,299.0822900533676L812.5302857142857,256.24625873565674L813.7234285714285,269.6268929243088L814.9165714285714,299.04181015491486L816.1097142857143,297.712131857872L817.3028571428572,293.54968678951263L818.496,285.25431168079376L819.6891428571429,287.86154758930206L820.8822857142858,312.10145902633667L822.0754285714285,240.09417843818665L823.2685714285714,278.25557005405426L824.4617142857143,267.62952160835266L825.6548571428572,283.9285011291504L826.848,252.12279152870178L828.0411428571429,242.7917994260788L829.2342857142858,280.5893601179123L830.4274285714285,267.9562146663666L831.6205714285715,241.58104491233826L832.8137142857144,196.96648907661435L834.006857142857,228.45511865615845L835.1999999999999,247.61093509197235L836.3931428571428,199.46907055377957L837.5862857142857,304.07412242889404L838.7794285714285,292.17682492733L839.9725714285714,311.90649461746216L841.1657142857143,266.8682141304016L842.3588571428571,311.7099530696869L843.552,245.66399466991425L844.7451428571429,172.77952444553375L845.9382857142858,327.9818959236145L847.1314285714285,306.598633646965L848.3245714285714,280.8536059856415L849.5177142857143,257.40876030921936L850.7108571428571,248.11565709114075L851.904,288.4045715332031L853.0971428571429,296.04565930366516L854.2902857142858,367.781672000885L855.4834285714286,289.34248101711273L856.6765714285715,287.52603006362915L857.8697142857144,253.5871649980545L859.0628571428571,305.7564790248871L860.256,283.4866018295288L861.4491428571429,231.07478392124176L862.6422857142857,308.1497873067856L863.8354285714286,269.5930595397949L865.0285714285715,160.33510994911194L866.2217142857144,268.93989872932434L867.414857142857,231.56268310546875L868.608,253.48480117321014L869.8011428571428,287.53800880908966L870.9942857142856,290.1541818380356L872.1874285714285,253.19366884231567L873.3805714285714,216.18850779533386L874.5737142857143,249.00189650058746L875.7668571428571,263.3924252986908L876.96,277.0279927253723L878.1531428571429,281.2024540901184L879.3462857142856,293.32133960723877L880.5394285714285,326.76348102092743L881.7325714285714,257.9994739294052L882.9257142857142,296.4612354040146L884.1188571428571,282.47775864601135L885.312,226.72882747650146L886.5051428571429,219.42299437522888L887.6982857142857,267.7985758781433L888.8914285714286,283.6345524787903L890.0845714285715,227.08529841899872L891.2777142857142,278.6951787471771L892.4708571428571,310.6382871866226L893.664,277.33925235271454L894.8571428571429,312.00686824321747L896.0502857142857,264.9841339588165L897.2434285714286,244.30175971984863L898.4365714285715,224.8214281797409L899.6297142857143,246.25928950309753L900.8228571428572,317.7283526659012L902.0160000000001,263.34049236774445L903.209142857143,280.11978578567505L904.4022857142857,297.49403607845306L905.5954285714286,266.84271705150604L906.7885714285715,233.15198850631714L907.9817142857142,258.1943256855011L909.1748571428571,225.34575176239014L910.368,280.8104224205017L911.5611428571428,294.9829305410385L912.7542857142857,212.50318479537964L913.9474285714286,249.95268595218658L915.1405714285715,289.46358275413513L916.3337142857142,364.34681367874146L917.5268571428571,196.68534529209137L918.72,252.0928634405136L919.9131428571428,109.20697045326233L921.1062857142857,297.22520899772644L922.2994285714286,203.52716159820554L923.4925714285715,302.9127849340439L924.6857142857142,265.49069595336914L925.8788571428571,219.47102200984955L927.072,237.38870930671692L928.2651428571428,171.7631335258484L929.4582857142857,336.01062190532684L930.6514285714286,295.7025189399719L931.8445714285715,290.455753326416L933.0377142857143,334.6430171728134L934.2308571428572,261.6453684568405L935.4240000000001,252.37862598896027L936.6171428571428,242.7157588005066L937.8102857142857,214.9697173833847L939.0034285714286,245.7963992357254L940.1965714285714,212.9555608034134L941.3897142857143,276.80531573295593L942.5828571428572,298.4710736274719L943.7760000000001,312.8190196752548L944.9691428571429,223.85730814933777L946.1622857142858,307.924369096756L947.3554285714287,251.33587431907654L948.5485714285713,203.65941596031186L949.7417142857142,309.11000204086304L950.9348571428571,345.7601190805435L952.128,313.5631663799286L953.3211428571428,329.48077869415283L954.5142857142857,301.91941273212433L955.7074285714286,267.4481130838394L956.9005714285714,285.09025168418884L958.0937142857143,233.54368221759796L959.2868571428572,296.68072056770325L960.4799999999999,283.75017178058624L961.6731428571428,263.95261001586914L962.8662857142857,227.19956588745117L964.0594285714286,250.84895145893097L965.2525714285714,287.4113495349884L966.4457142857143,218.5806519985199L967.6388571428572,275.6570084095001L968.8319999999999,236.7459876537323L970.0251428571428,281.9472016096115L971.2182857142857,246.8062938451767L972.4114285714286,190.81797552108765L973.6045714285714,262.060418844223L974.7977142857143,268.15091621875763L975.9908571428572,258.4519250392914L977.184,290.04265558719635L978.3771428571429,253.41848623752594L979.5702857142858,156.81448531150818L980.7634285714287,295.75122249126434L981.9565714285714,280.06451082229614L983.1497142857143,282.12365341186523L984.3428571428572,280.31951916217804L985.536,343.43094778060913L986.7291428571428,309.74434983730316L987.9222857142857,219.20009207725525L989.1154285714285,264.1372103691101L990.3085714285714,324.9326856136322L991.5017142857143,326.7820311784744L992.6948571428572,338.9522112607956L993.8879999999999,295.470379114151L995.0811428571428,276.81076061725616L996.2742857142857,333.00643515586853L997.4674285714285,312.08234560489655L998.6605714285714,281.9059706926346L999.8537142857143,278.24306559562683L1001.0468571428572,295.0605483055115L1002.24,279.9804342985153L1003.4331428571429,269.92515993118286L1004.6262857142858,219.96023547649384L1005.8194285714285,330.205361366272L1007.0125714285714,283.23347103595734L1008.2057142857143,344.9348999261856L1009.3988571428571,257.6851351261139L1010.592,258.83363020420074L1011.7851428571429,202.9204512834549L1012.9782857142858,246.24118995666504L1014.1714285714286,204.270895242691L1015.3645714285715,271.59219574928284L1016.5577142857144,324.818643450737L1017.7508571428571,295.4609913825989L1018.944,245.32588613033295L1020.1371428571429,326.7796654701233L1021.3302857142858,360.0245518684387L1022.5234285714286,218.44749641418457L1023.7165714285715,229.78141736984253L1024.9097142857142,265.0410611629486L1026.1028571428571,289.06595599651337L1027.296,311.8094630241394L1028.489142857143,272.58278918266296L1029.6822857142859,321.85767781734467L1030.8754285714285,213.14669501781464L1032.0685714285714,327.01939058303833L1033.2617142857143,291.98163521289825L1034.454857142857,305.01432251930237L1035.648,249.0228123664856L1036.8411428571428,279.89357900619507L1038.0342857142857,340.47899436950684L1039.2274285714286,271.6750330924988L1040.4205714285715,343.95335626602173L1041.6137142857144,278.6092622280121L1042.806857142857,250.83663475513458L1044,240.38279485702515L1045.193142857143,347.8232045173645L1046.3862857142856,279.44011402130127L1047.5794285714285,317.2104502916336L1048.7725714285714,268.17367208004L1049.9657142857143,282.80475211143494L1051.1588571428572,260.17018032073975L1052.352,237.2706491947174L1053.545142857143,263.7495346069336L1054.7382857142857,300.5783940553665L1055.9314285714286,277.7037967443466L1057.1245714285715,293.8179130554199L1058.3177142857141,292.8344167470932L1059.510857142857,292.25158882141113L1060.704,352.17565727233887L1061.8971428571429,297.7761186361313L1063.0902857142858,231.280863404274L1064.2834285714287,250.75368475914001L1065.4765714285716,225.42855155467987L1066.6697142857142,287.2805596590042L1067.8628571428571,211.08879160881042L1069.056,269.20549643039703L1070.249142857143,274.4070131778717L1071.4422857142856,224.40093290805817L1072.6354285714285,274.068829536438L1073.8285714285714,252.97827672958374L1075.0217142857143,222.152308344841L1076.2148571428572,294.0435565710068L1077.4080000000001,251.5668125152588L1078.601142857143,200.71039152145383L1079.7942857142857,272.4804629087448L1080.9874285714286,260.03541004657745L1082.1805714285715,364.963587641716L1083.3737142857142,213.74950003623962L1084.566857142857,242.77043294906616L1085.76,279.8716117143631L1086.953142857143,238.24396920204163L1088.1462857142858,295.8761919736862L1089.3394285714287,219.2232985496521L1090.5325714285716,199.33816802501676L1091.7257142857143,285.32374334335327L1092.9188571428572,288.7792546749115L1094.112,299.5970381498337L1095.3051428571428,310.43280851840973L1096.4982857142857,172.4880541563034L1097.6914285714286,319.6354515552521L1098.8845714285715,325.5204702615738L1100.0777142857141,339.00072705745697L1101.270857142857,221.9030077457428L1102.464,244.67174899578094L1103.6571428571428,300.3723521232605L1104.8502857142857,313.36715054512024L1106.0434285714286,296.60727095603943L1107.2365714285713,173.79216027259827L1108.4297142857142,321.90048587322235L1109.6228571428571,185.3053869009018L1110.816,287.0732785463333L1112.0091428571427,356.26393926143646L1113.2022857142856,332.0075429677963L1114.3954285714285,250.66547763347626L1115.5885714285714,296.466717839241L1116.7817142857143,290.68135929107666L1117.9748571428572,183.4654290676117L1119.1680000000001,320.2171529531479L1120.3611428571428,297.4743218421936L1121.5542857142857,267.5443185567856L1122.7474285714286,304.80704140663147L1123.9405714285713,330.4224432706833L1125.1337142857142,329.10117638111115L1126.326857142857,286.34629261493683L1127.52,261.86470341682434L1128.7131428571429,258.1420923471451L1129.9062857142858,269.14992105960846L1131.0994285714287,305.06678116321564L1132.2925714285714,305.3742105960846L1133.4857142857143,265.5174322128296L1134.6788571428572,290.0348825454712L1135.8719999999998,295.73008131980896L1137.0651428571427,219.81453788280487L1138.2582857142856,327.13178050518036L1139.4514285714286,228.67088627815247L1140.6445714285715,277.0019699335098L1141.8377142857144,296.97767329216003L1143.0308571428573,271.2233330011368L1144.224,253.9906121492386L1145.4171428571428,268.6002881526947L1146.6102857142857,382.71928024292L1147.8034285714286,309.69609689712524L1148.9965714285713,293.28938376903534L1150.1897142857142,328.07179284095764L1151.3828571428571,238.56754553318024L1152.576,331.84412133693695L1153.769142857143,304.712938785553L1154.9622857142858,284.1914702653885L1156.1554285714285,282.2892905473709L1157.3485714285714,296.7949504852295L1158.5417142857143,289.39080905914307L1159.7348571428572,324.59296238422394L1160.9279999999999,257.53737223148346L1162.1211428571428,319.35239267349243L1163.3142857142857,396.72243368625647L1164.5074285714286,258.8598783016205L1165.7005714285715,307.3467231988907L1166.8937142857144,266.5207554101944L1168.0868571428573,361.5431864261627L1169.28,222.62105655670166L1170.4731428571429,248.8999457359314L1171.6662857142858,266.5283031463623L1172.8594285714285,275.9623349905014L1174.0525714285714,264.90644109249115L1175.2457142857143,312.5767410993576L1176.4388571428572,260.82600724697113L1177.632,276.807305932045L1178.825142857143,185.53632509708405L1180.0182857142859,349.00459420681L1181.2114285714285,331.4413125514984L1182.4045714285714,289.2518330812454L1183.5977142857143,286.24697041511536L1184.790857142857,269.25772976875305L1185.984,292.27768671512604L1187.1771428571428,226.84853982925415L1188.3702857142857,233.28728449344635L1189.5634285714286,325.961580991745L1190.7565714285715,307.1447367668152L1191.9497142857144,292.31005561351776L1193.142857142857,317.2107882499695L1194.336,189.27467000484464L1195.529142857143,240.54156017303467L1196.7222857142858,341.97832775115967L1197.9154285714285,229.3967832326889L1199.1085714285714,275.74945878982544L1200.3017142857143,244.89773046970367L1201.494857142857,315.50105702877045L1202.6879999999999,270.33037197589874L1203.8811428571428,303.24897837638855L1205.0742857142857,209.33396172523499L1206.2674285714286,300.36333990097046L1207.4605714285715,279.02803015708923L1208.6537142857144,265.50489020347595L1209.846857142857,252.53363621234894L1211.04,306.5718973875046L1212.2331428571429,304.92224764823914L1213.4262857142855,242.45921087265015L1214.6194285714284,254.7580028772354L1215.8125714285713,301.7690212726593L1217.0057142857142,193.64439618587494L1218.1988571428572,308.03465616703033L1219.392,325.51104497909546L1220.585142857143,283.9706332683563L1221.7782857142856,242.8833110332489L1222.9714285714285,282.9523272514343L1224.1645714285714,260.6507946252823L1225.3577142857143,210.65706861019135L1226.550857142857,370.58841598033905L1227.744,269.47995615005493L1228.9371428571428,242.93201458454132L1230.1302857142857,245.0277693271637L1231.3234285714286,203.06442153453827L1232.5165714285715,271.47740256786346L1233.7097142857142,262.50077855587006L1234.902857142857,323.3787531852722L1236.096,281.6635043621063L1237.289142857143,304.98912584781647L1238.4822857142856,281.81306970119476L1239.6754285714285,277.8253490924835L1240.8685714285714,303.0393691062927L1242.0617142857143,287.08758544921875L1243.2548571428572,287.8408570289612L1244.448,287.1783460378647L1245.641142857143,235.3426719903946L1246.8342857142857,236.28486227989197L1248.0274285714286,277.0983256101608L1249.2205714285715,267.4709815979004L1250.4137142857141,284.9451924562454L1251.606857142857,249.43974030017853L1252.8,299.2060203552246L1253.9931428571429,278.0096490383148L1255.1862857142858,345.7784814834595L1256.3794285714287,201.67875480651853L1257.5725714285716,295.97851824760437L1258.7657142857142,274.2116732597351L1259.9588571428571,229.97683238983154L1261.152,284.3967236280441L1262.3451428571427,330.3425348997116L1263.5382857142856,244.25301861763L1264.7314285714285,269.14687943458557L1265.9245714285714,280.8970524072647L1267.1177142857143,227.75648367404938L1268.3108571428572,317.82185447216034L1269.5040000000001,257.7743936777115L1270.6971428571428,263.8843048810959L1271.8902857142857,326.7382092475891L1273.0834285714286,273.51401460170746L1274.2765714285715,258.3600754737854L1275.4697142857142,178.5833580493927L1276.662857142857,347.0607705116272L1277.856,284.7533823251724L1279.049142857143,177.12548089027402L1280.2422857142858,317.95455944538116L1281.4354285714287,280.0308276414871L1282.6285714285714,266.783273935318L1283.8217142857143,298.2372815608978L1285.0148571428572,277.17624378204346L1286.208,328.7686253786087L1287.4011428571428,323.84562385082245L1288.5942857142857,168.47600054740903L1289.7874285714286,313.6992509365082L1290.9805714285715,264.0513314008713L1292.1737142857144,326.45860505104065L1293.3668571428573,219.02998638153076L1294.5600000000002,342.10427355766296L1295.7531428571428,326.6682518720627L1296.9462857142858,267.2638131380081L1298.1394285714287,181.47158753871918L1299.3325714285713,343.741606593132L1300.5257142857142,232.5343133211136L1301.7188571428571,226.6308195590973L1302.912,269.53564417362213" style="fill: none;" fill="none"></path></g></g></g></g></g><g><g opacity="0.52022"><span fill="rgb(0, 0, 0)" stroke="none" stroke-width="1px">Alt + Scroll to Zoom</span></g></g></g><g transform="translate(46, 378)" clip-path="url(#clip_1)"><clipPath id="clip_1"><rect width="1392" height="22"></rect></clipPath><g><g><line x1="0" y1="0" x2="0" y2="5" style="visibility: inherit;" fill="rgb(0, 0, 0)" stroke="rgb(204, 204, 204)" stroke-width="1px"></line><line x1="198.85714285714283" y1="0" x2="198.85714285714283" y2="5" style="visibility: inherit;" fill="rgb(0, 0, 0)" stroke="rgb(204, 204, 204)" stroke-width="1px"></line><line x1="397.71428571428567" y1="0" x2="397.71428571428567" y2="5" style="visibility: inherit;" fill="rgb(0, 0, 0)" stroke="rgb(204, 204, 204)" stroke-width="1px"></line><line x1="596.5714285714286" y1="0" x2="596.5714285714286" y2="5" style="visibility: inherit;" fill="rgb(0, 0, 0)" stroke="rgb(204, 204, 204)" stroke-width="1px"></line><line x1="795.4285714285713" y1="0" x2="795.4285714285713" y2="5" style="visibility: inherit;" fill="rgb(0, 0, 0)" stroke="rgb(204, 204, 204)" stroke-width="1px"></line><line x1="994.2857142857143" y1="0" x2="994.2857142857143" y2="5" style="visibility: inherit;" fill="rgb(0, 0, 0)" stroke="rgb(204, 204, 204)" stroke-width="1px"></line><line x1="1193.142857142857" y1="0" x2="1193.142857142857" y2="5" style="visibility: inherit;" fill="rgb(0, 0, 0)" stroke="rgb(204, 204, 204)" stroke-width="1px"></line><line x1="1392" y1="0" x2="1392" y2="5" style="visibility: inherit;" fill="rgb(0, 0, 0)" stroke="rgb(204, 204, 204)" stroke-width="1px"></line></g><g transform="translate(0, 8)"><text x="0" y="0" dx="0em" dy="0.95em" style="text-anchor: middle; visibility: hidden; font-family: &quot;Helvetica Neue&quot;, sans-serif; font-size: 12px; font-weight: 200;" fill="rgb(50, 49, 63)" stroke="none" stroke-width="1px">-500k</text><text x="198.85714285714283" y="0" dx="0em" dy="0.95em" style="text-anchor: middle; visibility: inherit; font-family: &quot;Helvetica Neue&quot;, sans-serif; font-size: 12px; font-weight: 200;" fill="rgb(50, 49, 63)" stroke="none" stroke-width="1px">0</text><text x="397.71428571428567" y="0" dx="0em" dy="0.95em" style="text-anchor: middle; visibility: inherit; font-family: &quot;Helvetica Neue&quot;, sans-serif; font-size: 12px; font-weight: 200;" fill="rgb(50, 49, 63)" stroke="none" stroke-width="1px">500k</text><text x="596.5714285714286" y="0" dx="0em" dy="0.95em" style="text-anchor: middle; visibility: inherit; font-family: &quot;Helvetica Neue&quot;, sans-serif; font-size: 12px; font-weight: 200;" fill="rgb(50, 49, 63)" stroke="none" stroke-width="1px">1M</text><text x="795.4285714285713" y="0" dx="0em" dy="0.95em" style="text-anchor: middle; visibility: inherit; font-family: &quot;Helvetica Neue&quot;, sans-serif; font-size: 12px; font-weight: 200;" fill="rgb(50, 49, 63)" stroke="none" stroke-width="1px">1.5M</text><text x="994.2857142857143" y="0" dx="0em" dy="0.95em" style="text-anchor: middle; visibility: inherit; font-family: &quot;Helvetica Neue&quot;, sans-serif; font-size: 12px; font-weight: 200;" fill="rgb(50, 49, 63)" stroke="none" stroke-width="1px">2M</text><text x="1193.142857142857" y="0" dx="0em" dy="0.95em" style="text-anchor: middle; visibility: inherit; font-family: &quot;Helvetica Neue&quot;, sans-serif; font-size: 12px; font-weight: 200;" fill="rgb(50, 49, 63)" stroke="none" stroke-width="1px">2.5M</text><text x="1392" y="0" dx="0em" dy="0.95em" style="text-anchor: middle; visibility: hidden; font-family: &quot;Helvetica Neue&quot;, sans-serif; font-size: 12px; font-weight: 200;" fill="rgb(50, 49, 63)" stroke="none" stroke-width="1px">3M</text></g><line x1="0" y1="0" x2="1392" y2="0" fill="rgb(0, 0, 0)" stroke="rgb(204, 204, 204)" stroke-width="1px"></line></g></g></g></g></svg>