<svg viewBox="0 0 1438 400" xmlns="http://www.w3.org/2000/svg"><g><g><g><g><g><line x1="46" y1="378" x2="41" y2="378" style="visibility: inherit;" fill="rgb(0, 0, 0)" stroke="rgb(204, 204, 204)" stroke-width="1px"></line><line x1="46" y1="346.5" x2="41" y2="346.5" style="visibility: inherit;" fill="rgb(0, 0, 0)" stroke="rgb(204, 204, 204)" stroke-width="1px"></line><line x1="46" y1="314.99999999999994" x2="41" y2="314.99999999999994" style="visibility: inherit;" fill="rgb(0, 0, 0)" stroke="rgb(204, 204, 204)" stroke-width="1px"></line><line x1="46" y1="283.49999999999994" x2="41" y2="283.49999999999994" style="visibility: inherit;" fill="rgb(0, 0, 0)" stroke="rgb(204, 204, 204)" stroke-width="1px"></line><line x1="46" y1="251.9999999999999" x2="41" y2="251.9999999999999" style="visibility: inherit;" fill="rgb(0, 0, 0)" stroke="rgb(204, 204, 204)" stroke-width="1px"></line><line x1="46" y1="220.5" x2="41" y2="220.5" style="visibility: inherit;" fill="rgb(0, 0, 0)" stroke="rgb(204, 204, 204)" stroke-width="1px"></line><line x1="46" y1="189" x2="41" y2="189" style="visibility: inherit;" fill="rgb(0, 0, 0)" stroke="rgb(204, 204, 204)" stroke-width="1px"></line><line x1="46" y1="157.5" x2="41" y2="157.5" style="visibility: inherit;" fill="rgb(0, 0, 0)" stroke="rgb(204, 204, 204)" stroke-width="1px"></line><line x1="46" y1="125.99999999999997" x2="41" y2="125.99999999999997" style="visibility: inherit;" fill="rgb(0, 0, 0)" stroke="rgb(204, 204, 204)" stroke-width="1px"></line><line x1="46" y1="94.49999999999994" x2="41" y2="94.49999999999994" style="visibility: inherit;" fill="rgb(0, 0, 0)" stroke="rgb(204, 204, 204)" stroke-width="1px"></line><line x1="46" y1="63" x2="41" y2="63" style="visibility: inherit;" fill="rgb(0, 0, 0)" stroke="rgb(204, 204, 204)" stroke-width="1px"></line><line x1="46" y1="31.5" x2="41" y2="31.5" style="visibility: inherit;" fill="rgb(0, 0, 0)" stroke="rgb(204, 204, 204)" stroke-width="1px"></line><line x1="46" y1="0" x2="41" y2="0" style="visibility: inherit;" fill="rgb(0, 0, 0)" stroke="rgb(204, 204, 204)" stroke-width="1px"></line></g><g transform="translate(36, 0)"><text x="0" y="378" dx="0em" dy="0.3em" style="text-anchor: end; visibility: hidden; font-family: &quot;Helvetica Neue&quot;, sans-serif; font-size: 12px; font-weight: 200;" fill="rgb(50, 49, 63)" stroke="none" stroke-width="1px">2.8</text><text x="0" y="346.5" dx="0em" dy="0.3em" style="text-anchor: end; visibility: inherit; font-family: &quot;Helvetica Neue&quot;, sans-serif; font-size: 12px; font-weight: 200;" fill="rgb(50, 49, 63)" stroke="none" stroke-width="1px">2.9</text><text x="0" y="314.99999999999994" dx="0em" dy="0.3em" style="text-anchor: end; visibility: inherit; font-family: &quot;Helvetica Neue&quot;, sans-serif; font-size: 12px; font-weight: 200;" fill="rgb(50, 49, 63)" stroke="none" stroke-width="1px">3</text><text x="0" y="283.49999999999994" dx="0em" dy="0.3em" style="text-anchor: end; visibility: inherit; font-family: &quot;Helvetica Neue&quot;, sans-serif; font-size: 12px; font-weight: 200;" fill="rgb(50, 49, 63)" stroke="none" stroke-width="1px">3.1</text><text x="0" y="251.9999999999999" dx="0em" dy="0.3em" style="text-anchor: end; visibility: inherit; font-family: &quot;Helvetica Neue&quot;, sans-serif; font-size: 12px; font-weight: 200;" fill="rgb(50, 49, 63)" stroke="none" stroke-width="1px">3.2</text><text x="0" y="220.5" dx="0em" dy="0.3em" style="text-anchor: end; visibility: inherit; font-family: &quot;Helvetica Neue&quot;, sans-serif; font-size: 12px; font-weight: 200;" fill="rgb(50, 49, 63)" stroke="none" stroke-width="1px">3.3</text><text x="0" y="189" dx="0em" dy="0.3em" style="text-anchor: end; visibility: inherit; font-family: &quot;Helvetica Neue&quot;, sans-serif; font-size: 12px; font-weight: 200;" fill="rgb(50, 49, 63)" stroke="none" stroke-width="1px">3.4</text><text x="0" y="157.5" dx="0em" dy="0.3em" style="text-anchor: end; visibility: inherit; font-family: &quot;Helvetica Neue&quot;, sans-serif; font-size: 12px; font-weight: 200;" fill="rgb(50, 49, 63)" stroke="none" stroke-width="1px">3.5</text><text x="0" y="125.99999999999997" dx="0em" dy="0.3em" style="text-anchor: end; visibility: inherit; font-family: &quot;Helvetica Neue&quot;, sans-serif; font-size: 12px; font-weight: 200;" fill="rgb(50, 49, 63)" stroke="none" stroke-width="1px">3.6</text><text x="0" y="94.49999999999994" dx="0em" dy="0.3em" style="text-anchor: end; visibility: inherit; font-family: &quot;Helvetica Neue&quot;, sans-serif; font-size: 12px; font-weight: 200;" fill="rgb(50, 49, 63)" stroke="none" stroke-width="1px">3.7</text><text x="0" y="63" dx="0em" dy="0.3em" style="text-anchor: end; visibility: inherit; font-family: &quot;Helvetica Neue&quot;, sans-serif; font-size: 12px; font-weight: 200;" fill="rgb(50, 49, 63)" stroke="none" stroke-width="1px">3.8</text><text x="0" y="31.5" dx="0em" dy="0.3em" style="text-anchor: end; visibility: inherit; font-family: &quot;Helvetica Neue&quot;, sans-serif; font-size: 12px; font-weight: 200;" fill="rgb(50, 49, 63)" stroke="none" stroke-width="1px">3.9</text><text x="0" y="0" dx="0em" dy="0.3em" style="text-anchor: end; visibility: hidden; font-family: &quot;Helvetica Neue&quot;, sans-serif; font-size: 12px; font-weight: 200;" fill="rgb(50, 49, 63)" stroke="none" stroke-width="1px">4</text></g><line x1="46" y1="0" x2="46" y2="378" fill="rgb(0, 0, 0)" stroke="rgb(204, 204, 204)" stroke-width="1px"></line></g></g><g transform="translate(46, 0)" clip-path="url(#clip_0)"><clipPath id="clip_0"><rect width="1392" height="378"></rect></clipPath><g><g><g><line x1="0" y1="0" x2="0" y2="378" fill="rgb(0, 0, 0)" stroke="rgb(60, 60, 60)" stroke-width="1px" opacity="0.25"></line><line x1="154.66666666666666" y1="0" x2="154.66666666666666" y2="378" fill="rgb(0, 0, 0)" stroke="rgb(60, 60, 60)" stroke-width="1px" opacity="0.25"></line><line x1="309.3333333333333" y1="0" x2="309.3333333333333" y2="378" fill="rgb(0, 0, 0)" stroke="rgb(60, 60, 60)" stroke-width="1px" opacity="0.25"></line><line x1="464" y1="0" x2="464" y2="378" fill="rgb(0, 0, 0)" stroke="rgb(60, 60, 60)" stroke-width="1px" opacity="0.25"></line><line x1="618.6666666666666" y1="0" x2="618.6666666666666" y2="378" fill="rgb(0, 0, 0)" stroke="rgb(60, 60, 60)" stroke-width="1px" opacity="0.25"></line><line x1="773.3333333333334" y1="0" x2="773.3333333333334" y2="378" fill="rgb(0, 0, 0)" stroke="rgb(60, 60, 60)" stroke-width="1px" opacity="0.25"></line><line x1="928" y1="0" x2="928" y2="378" fill="rgb(0, 0, 0)" stroke="rgb(60, 60, 60)" stroke-width="1px" opacity="0.25"></line><line x1="1082.6666666666667" y1="0" x2="1082.6666666666667" y2="378" fill="rgb(0, 0, 0)" stroke="rgb(60, 60, 60)" stroke-width="1px" opacity="0.25"></line><line x1="1237.3333333333333" y1="0" x2="1237.3333333333333" y2="378" fill="rgb(0, 0, 0)" stroke="rgb(60, 60, 60)" stroke-width="1px" opacity="0.25"></line><line x1="1392" y1="0" x2="1392" y2="378" fill="rgb(0, 0, 0)" stroke="rgb(60, 60, 60)" stroke-width="1px" opacity="0.25"></line></g><g><line x1="0" y1="378" x2="1392" y2="378" fill="rgb(0, 0, 0)" stroke="rgb(60, 60, 60)" stroke-width="1px" opacity="0.25"></line><line x1="0" y1="346.5" x2="1392" y2="346.5" fill="rgb(0, 0, 0)" stroke="rgb(60, 60, 60)" stroke-width="1px" opacity="0.25"></line><line x1="0" y1="314.99999999999994" x2="1392" y2="314.99999999999994" fill="rgb(0, 0, 0)" stroke="rgb(60, 60, 60)" stroke-width="1px" opacity="0.25"></line><line x1="0" y1="283.49999999999994" x2="1392" y2="283.49999999999994" fill="rgb(0, 0, 0)" stroke="rgb(60, 60, 60)" stroke-width="1px" opacity="0.25"></line><line x1="0" y1="251.9999999999999" x2="1392" y2="251.9999999999999" fill="rgb(0, 0, 0)" stroke="rgb(60, 60, 60)" stroke-width="1px" opacity="0.25"></line><line x1="0" y1="220.5" x2="1392" y2="220.5" fill="rgb(0, 0, 0)" stroke="rgb(60, 60, 60)" stroke-width="1px" opacity="0.25"></line><line x1="0" y1="189" x2="1392" y2="189" fill="rgb(0, 0, 0)" stroke="rgb(60, 60, 60)" stroke-width="1px" opacity="0.25"></line><line x1="0" y1="157.5" x2="1392" y2="157.5" fill="rgb(0, 0, 0)" stroke="rgb(60, 60, 60)" stroke-width="1px" opacity="0.25"></line><line x1="0" y1="125.99999999999997" x2="1392" y2="125.99999999999997" fill="rgb(0, 0, 0)" stroke="rgb(60, 60, 60)" stroke-width="1px" opacity="0.25"></line><line x1="0" y1="94.49999999999994" x2="1392" y2="94.49999999999994" fill="rgb(0, 0, 0)" stroke="rgb(60, 60, 60)" stroke-width="1px" opacity="0.25"></line><line x1="0" y1="63" x2="1392" y2="63" fill="rgb(0, 0, 0)" stroke="rgb(60, 60, 60)" stroke-width="1px" opacity="0.25"></line><line x1="0" y1="31.5" x2="1392" y2="31.5" fill="rgb(0, 0, 0)" stroke="rgb(60, 60, 60)" stroke-width="1px" opacity="0.25"></line><line x1="0" y1="0" x2="1392" y2="0" fill="rgb(0, 0, 0)" stroke="rgb(60, 60, 60)" stroke-width="1px" opacity="0.25"></line></g></g></g><g><g><line x1="0" y1="1260" x2="1392" y2="1260" fill="rgb(0, 0, 0)" stroke="rgb(153, 153, 153)" stroke-width="1.5px"></line></g></g><g><g><line x1="154.66666666666666" y1="0" x2="154.66666666666666" y2="378" fill="rgb(0, 0, 0)" stroke="rgb(153, 153, 153)" stroke-width="1.5px"></line></g></g><g><g><g><g><g><path stroke="rgb(0, 119, 187)" stroke-width="2px" d="M928,228.6472141742706Z" style="fill: none;" fill="none"></path></g><g><path stroke="rgb(255, 112, 67)" stroke-width="2px" d="M183.27999999999997,-117.74843931198114L185.6,5.287020206451416L187.92000000000002,-55.8020281791687L192.56,-13.884830474853516L194.88000000000002,41.49204611778259L197.2,54.76637363433838L199.52,-51.87269926071167L201.83999999999997,69.50285911560059L204.16,-69.8122787475586L206.48000000000002,43.47541093826294L208.79999999999998,77.43797063827515L211.12,53.1554388999939L213.44,80.16086339950562L215.76,72.16424345970154L218.08,135.30139446258545L220.39999999999998,14.168189764022827L222.72,157.67633914947507L225.04,122.58529901504517L227.35999999999999,82.77838826179504L229.68,239.4580507278442L232,115.1712441444397L234.32,112.77391791343689L236.64000000000001,145.90487480163574L238.95999999999998,131.5916633605957L241.28,155.34119725227353L243.6,135.51746249198914L245.92,128.8023805618286L248.24,199.87727165222165L250.56,158.5988903045654L252.88,208.66824388504025L255.2,155.7330787181854L257.52,143.14766049385068L259.84000000000003,137.79860615730286L262.15999999999997,120.65593242645264L264.48,112.28973627090454L266.8,172.8403043746948L269.12,209.34408545494077L271.44,134.4415533542633L273.76,171.94786906242368L276.08,181.64749860763547L278.40000000000003,175.18941521644592L280.71999999999997,153.8825690746307L283.04,174.41015839576718L285.35999999999996,104.34891700744629L287.68,186.4310359954834L290,182.53715515136716L292.32,138.4075319766998L294.64,190.88510155677793L296.96000000000004,135.0161576271057L299.28,266.1243903636932L301.6,125.32373785972595L303.91999999999996,157.46905803680417L306.24,167.47104763984677L308.56,126.20385646820066L310.88,131.41832828521726L313.2,257.9281497001648L315.52,205.61640501022336L317.84,151.85572028160092L320.16,142.09540843963623L322.48,37.28656768798828L324.8,159.28194165229797L327.12,108.92547369003296L329.44,282.50981211662287L331.76,167.90378451347348L334.08,158.24861526489255L336.4,148.77361536025998L338.72,189.94460105895993L341.04,242.67406225204465L343.36,182.22277879714966L345.68,220.3093314170837L348,113.35926175117493L350.32,167.756735086441L352.64000000000004,261.4186584949493L354.96,261.1612844467163L357.28,162.9457104206085L359.6,219.94366049766538L361.92,257.81970262527466L364.24,161.47499084472653L366.55999999999995,131.9236135482788L368.88,235.96130847930905L371.2,223.64325284957883L373.52,129.09032106399536L375.84000000000003,215.9036314487457L378.16,280.36174893379206L380.47999999999996,203.7987148761749L382.8,259.41231250762934L385.12,236.06517434120175L387.44,225.74880838394162L389.76000000000005,174.48480963706967L392.08000000000004,213.35790395736691L394.4,191.38948559761045L396.71999999999997,221.5159177780151L399.04,240.99591135978696L401.36,202.57635712623593L403.67999999999995,168.16303610801697L406,169.1869747638702L408.32,299.953418970108L410.64,272.3590457439422L412.96000000000004,160.7653534412384L415.28000000000003,193.6358571052551L417.59999999999997,208.95242929458615L419.92,232.97270536422727L422.24,225.1083397865295L424.56,255.55665850639338L426.88,269.29894566535944L429.20000000000005,200.36558389663693L431.52,176.50219559669492L433.84,176.08237624168393L436.16,224.95783567428586L438.48,251.14367365837094L440.79999999999995,212.9295229911804L443.12,168.5392963886261L445.44,234.87991690635678L447.76,193.54678630828855L450.08,258.9339888095855L452.40000000000003,206.39821529388425L454.71999999999997,234.93729472160337L457.03999999999996,278.13370227813715L459.36,277.82923936843866L461.68,227.32857584953305L464,249.57562208175656L466.32000000000005,264.51878786087036L468.64,193.53296756744382L470.96,202.73407101631162L473.28000000000003,276.86162710189814L475.6,273.22557091712946L477.91999999999996,275.5279684066772L480.23999999999995,268.699107170105L482.56,211.01765513420102L484.88,210.45424103736875L487.2,224.62550997734067L489.52000000000004,264.31293368339533L491.84,220.26044011116025L494.15999999999997,200.31804442405698L496.48,142.02331066131592L498.8,289.90456581115717L501.12,147.82462835311887L503.44000000000005,249.29173707962033L505.76,258.9993274211883L508.08,259.59420919418335L510.4,252.8309869766235L512.72,315.2723944187164L515.04,255.05032181739804L517.36,251.2138187885284L519.6800000000001,248.1697905063629L522,173.47521543502805L524.3199999999999,248.18060517311093L526.64,151.17176771163938L528.96,304.4620835781097L531.28,191.34389877319333L533.6,301.7467010021209L535.92,155.17439603805542L538.24,142.94428467750546L540.56,203.99525642395017L542.88,183.37912201881406L545.2,198.03194403648374L547.52,222.8271961212158L549.84,228.57353925704953L552.16,272.97991275787354L554.48,294.36531543731684L556.8000000000001,249.36375975608823L559.12,193.38111162185666L561.4399999999999,216.89925670623776L563.76,209.77832436561582L566.08,200.98472356796262L568.4,215.47127008438108L570.7199999999999,260.0159060955047L573.04,288.04729700088495L575.36,281.15730285644526L577.68,283.4011960029602L580,220.63084244728086L582.32,302.9819762706756L584.64,284.53928947448725L586.96,227.64663219451901L589.28,210.95239162445066L591.6,283.7104654312133L593.9200000000001,267.42748260498047L596.24,223.05610656738278L598.56,215.50874590873715L600.88,268.4541249275207L603.2,253.54467988014216L605.52,244.80259895324704L607.8399999999999,297.576595544815L610.1600000000001,171.44911766052246L612.48,257.0966219902038L614.8,264.09649014472956L617.12,273.5730671882629L619.44,213.6247408390045L621.76,227.72443771362302L624.0799999999999,280.69445013999933L626.4,260.34237384796137L628.72,253.25050592422483L631.04,233.98244976997373L633.36,286.9579446315765L635.68,211.07037663459775L638,273.4065663814544L640.32,201.1044359207153L642.64,297.0200908184051L644.96,205.43202996253964L647.2800000000001,198.51537466049191L649.6,232.2506761550903L651.92,251.02523803710935L654.24,235.94801545143125L656.5600000000001,293.27889204025263L658.88,215.13271093368527L661.1999999999999,298.1110203266143L663.52,201.72027111053464L665.84,207.09966659545896L668.16,242.17155575752255L670.48,279.0176510810852L672.8,157.2251272201538L675.12,252.88558602333066L677.44,285.5817031860351L679.76,293.1196761131286L682.08,245.99716901779172L684.4,292.2158253192901L686.72,225.67738652229306L689.04,236.53380990028379L691.36,271.30784511566156L693.6800000000001,263.5800147056579L696,114.03390169143677L698.32,268.2305467128753L700.64,231.69747591018674L702.96,238.74540925025937L705.2800000000001,216.60320520400998L707.5999999999999,211.67682409286496L709.92,203.4986078739166L712.24,271.156815290451L714.56,289.7632992267608L716.88,309.0229439735412L719.2,330.45475959777826L721.52,236.72952532768247L723.84,229.49293613433835L726.16,218.96711111068723L728.48,260.00524163246155L730.8000000000001,309.76337313652033L733.1199999999999,257.7910888195038L735.4399999999999,238.0259335041046L737.76,242.02923774719235L740.0799999999999,250.88682532310483L742.4,241.7483568191528L744.72,237.1451389789581L747.04,263.3994698524475L749.36,272.6224279403686L751.6800000000001,301.1031532287597L754,258.2052755355835L756.32,267.6416730880737L758.6400000000001,232.6824367046356L760.9599999999999,267.7893984317779L763.28,278.967182636261L765.6,254.19723987579343L767.92,323.91166090965265L770.24,213.95346164703366L772.5600000000001,282.5789058208465L774.88,231.10710024833676L777.2,223.28802108764646L779.5200000000001,234.15330648422238L781.8399999999999,281.8630349636078L784.1600000000001,362.0421481132507L786.4799999999999,256.2502992153168L788.8,284.3560409545898L791.12,178.98408651351926L793.4399999999999,196.94154024124143L795.76,280.90728878974915L798.08,321.90321207046503L800.4,265.50908088684076L802.72,277.3317646980285L805.0400000000001,267.57190346717834L807.3599999999999,321.57043576240534L809.68,249.9055445194244L812,295.0259864330291L814.3199999999999,265.43105006217957L816.64,222.59633302688596L818.96,254.750440120697L821.28,256.6216027736664L823.6,259.67246532440186L825.9200000000001,230.07948160171506L828.24,262.05544710159296L830.5600000000001,278.5011005401611L832.8800000000001,335.33863306045527L835.1999999999999,281.42293810844416L837.52,272.88753747940063L839.84,205.6497502326965L842.16,273.93580913543695L844.48,273.17112207412714L846.8,258.5683178901672L849.12,295.9143662452697L851.44,280.1385462284088L853.76,327.3884260654449L856.08,324.04076099395746L858.4000000000001,296.92230820655817L860.7199999999999,265.7049465179443L863.04,300.1516127586364L865.36,269.221966266632L867.68,281.9351327419281L870,263.684856891632L872.32,227.9378020763397L874.64,218.90740513801572L876.96,257.3893690109253L879.2800000000001,275.0127696990966L881.5999999999999,232.6727485656738L883.92,316.61814451217646L886.24,274.756371974945L888.56,321.3479089736938L890.88,353.09699177742L893.2,238.85235428810117L895.52,228.52359652519223L897.84,274.739624261856L900.16,306.8488955497741L902.48,277.6833915710449L904.8000000000001,271.19984865188593L907.1199999999999,322.64138817787165L909.4399999999999,292.5120270252227L911.76,302.69403576850885L914.0799999999999,306.94637775421137L916.4,264.7071433067322L918.72,267.1533608436584L921.04,284.42964076995844L923.36,223.1551659107208L925.6800000000001,225.44494628906247L928,306.9731140136718L928.7733333333334,230.1760625839233L931.0933333333332,236.86651110649106L933.4133333333334,252.18060493469235L935.7333333333335,331.1462223529815L938.0533333333333,280.613340139389L940.3733333333333,227.2907996177673L942.6933333333333,293.60205531120295L945.0133333333333,264.0162062644958L947.3333333333334,276.9900512695312L949.6533333333333,231.84632778167722L951.9733333333334,289.11652207374567L954.2933333333334,276.0344552993774L956.6133333333332,217.12846755981442L958.9333333333333,307.1391642093658L961.2533333333333,203.92789006233212L963.5733333333333,306.28856062889093L965.8933333333333,273.955260515213L968.2133333333334,321.5102791786193L970.5333333333333,315.7684421539306L972.8533333333334,276.9640660285949L975.1733333333334,246.7829596996307L977.4933333333333,245.37404894828794L979.8133333333334,308.11406135559076L982.1333333333334,252.98764944076535L984.4533333333333,242.8228390216827L986.7733333333333,220.1899194717407L989.0933333333334,249.5660090446472L991.4133333333333,202.7782309055328L993.7333333333333,266.3423359394073L996.0533333333333,200.40200829505918L998.3733333333333,197.22805380821225L1000.6933333333334,306.36283636093134L1003.0133333333332,313.3126866817474L1005.3333333333334,363.16597223281855L1007.6533333333334,191.75770998001096L1009.9733333333332,276.23234868049616L1012.2933333333333,283.9860892295837L1014.6133333333333,298.40556979179377L1016.9333333333333,253.41242551803583L1006.1066666666666,258.97612094879145L1008.4266666666666,267.0402574539184L1010.7466666666667,307.89611577987665L1013.0666666666666,287.66810774803156L1015.3866666666667,291.05399966239924L1017.7066666666667,293.98530006408686L1020.0266666666666,291.92833542823786L1022.3466666666667,272.4231827259064L1024.6666666666667,231.44611001014707L1026.9866666666667,277.05080866813654L1029.3066666666666,290.6458961963653L1031.6266666666668,334.5282089710235L1033.9466666666667,300.65209150314325L1036.2666666666667,268.3681333065033L1038.5866666666666,235.15501499176023L1040.9066666666668,217.74250030517575L1043.2266666666667,237.29609370231626L1045.5466666666666,236.30565047264096L1047.8666666666666,275.03274679183954L1050.1866666666667,276.1171424388885L1052.5066666666667,346.57980322837824L1054.8266666666666,158.02315950393677L1057.1466666666668,273.2275986671447L1059.4666666666667,258.0741477012634L1061.7866666666666,248.1671619415283L1064.1066666666668,241.91282987594602L1066.4266666666665,246.45206093788144L1068.7466666666667,177.4806976318359L1071.0666666666668,278.60436558723444L1073.3866666666665,279.31558012962336L1075.7066666666667,194.18229818344113L1078.0266666666666,264.3374168872833L1080.3466666666666,238.7000477313995L1082.6666666666667,256.33674144744873L1084.9866666666667,283.121291399002L1087.3066666666666,294.9198675155639L1089.6266666666668,131.57183647155762L1091.9466666666667,236.52532339096066L1094.2666666666667,234.13933753967282L1096.5866666666666,361.2131738662719L1098.9066666666665,289.96810197830195L1101.2266666666667,246.0413289070129L1103.5466666666666,261.5209472179412L1105.8666666666666,236.67612791061399L1108.1866666666667,278.18890213966364L1110.5066666666667,282.51274108886713L1112.8266666666666,201.29151463508603L1115.1466666666668,247.95875430107114L1117.4666666666667,287.74801611900324L1119.7866666666666,199.29485678672788L1122.1066666666666,351.1801671981811L1124.4266666666667,216.69422864913938L1126.7466666666667,270.3586328029632L1129.0666666666666,288.92643928527826L1131.3866666666668,289.76577758789057L1133.7066666666667,299.5275163650512L1136.0266666666666,206.01294279098508L1138.3466666666668,245.17743229866025L1140.6666666666667,219.7983384132385L1142.9866666666667,279.59105372428894L1145.3066666666668,307.08381414413446L1147.6266666666666,192.25766301155087L1149.9466666666667,220.62100410461423L1152.2666666666667,323.0557250976562L1154.5866666666666,286.93263530731195L1156.9066666666668,242.09209799766538L1159.2266666666667,329.4595098495483L1161.5466666666666,301.48865103721613L1163.8666666666668,279.5158767700195L1166.1866666666665,342.26790547370905L1168.5066666666667,228.24444293975827L1170.8266666666668,299.99742865562433L1173.1466666666665,207.92788982391355L1175.4666666666667,293.25425863265986L1177.7866666666666,161.39380574226377L1180.1066666666666,293.0439734458923L1182.4266666666667,271.6674327850341L1184.7466666666667,201.10728979110715L1187.0666666666666,263.68057608604425L1189.3866666666668,325.11516809463495L1191.7066666666667,297.3201978206634L1194.0266666666666,340.2858924865722L1196.3466666666666,215.894318819046L1198.6666666666667,243.275853395462L1200.9866666666667,273.2034158706665L1203.3066666666666,271.4776504039764L1205.6266666666668,162.4304366111755L1207.9466666666667,319.8614931106567L1210.2666666666667,330.9071731567382L1212.5866666666666,329.68571662902826L1214.9066666666668,325.8224773406982L1217.2266666666667,308.20328235626215L1219.5466666666666,244.37429308891294L1221.8666666666666,222.69051074981687L1224.1866666666667,212.57038593292233L1226.5066666666667,245.7761442661285L1228.8266666666666,251.36958003044123L1231.1466666666668,286.2005424499511L1233.4666666666667,265.79859852790827L1235.7866666666666,256.08762860298157L1238.1066666666668,271.08854770660395L1240.4266666666665,224.0187621116638L1242.7466666666667,302.4321556091308L1245.0666666666668,339.6658515930175L1247.3866666666665,107.48231649398804L1249.7066666666667,328.45164299011225L1252.0266666666666,212.54567742347714L1254.3466666666666,217.50915884971616L1256.6666666666667,246.17140531539914L1258.9866666666667,273.5969495773315L1261.3066666666666,233.44344377517697L1263.6266666666668,236.951150894165L1265.9466666666667,273.2143807411193L1268.2666666666667,272.96293973922724L1270.5866666666666,288.6291861534118L1272.9066666666665,252.3310339450836L1275.2266666666667,151.49725914001462L1277.5466666666666,275.5912792682647L1279.8666666666666,281.37787699699396L1282.1866666666667,244.50789928436276L1284.5066666666667,315.46765923500055L1286.8266666666666,281.08933568000793L1289.1466666666668,294.0350925922393L1291.4666666666667,285.74587583541864L1293.7866666666666,255.0772082805633L1296.1066666666666,215.36327362060544L1298.4266666666667,263.36567401885986L1300.7466666666667,260.73823571205133L1303.0666666666666,261.88496589660645L1305.3866666666668,127.75305747985837L1307.7066666666667,224.33464050292966L1310.0266666666666,253.88046026229856L1312.3466666666668,242.84259080886838" style="fill: none;" fill="none"></path></g></g></g></g></g></g><g transform="translate(46, 378)" clip-path="url(#clip_1)"><clipPath id="clip_1"><rect width="1392" height="22"></rect></clipPath><g><g><line x1="0" y1="0" x2="0" y2="5" style="visibility: inherit;" fill="rgb(0, 0, 0)" stroke="rgb(204, 204, 204)" stroke-width="1px"></line><line x1="154.66666666666666" y1="0" x2="154.66666666666666" y2="5" style="visibility: inherit;" fill="rgb(0, 0, 0)" stroke="rgb(204, 204, 204)" stroke-width="1px"></line><line x1="309.3333333333333" y1="0" x2="309.3333333333333" y2="5" style="visibility: inherit;" fill="rgb(0, 0, 0)" stroke="rgb(204, 204, 204)" stroke-width="1px"></line><line x1="464" y1="0" x2="464" y2="5" style="visibility: inherit;" fill="rgb(0, 0, 0)" stroke="rgb(204, 204, 204)" stroke-width="1px"></line><line x1="618.6666666666666" y1="0" x2="618.6666666666666" y2="5" style="visibility: inherit;" fill="rgb(0, 0, 0)" stroke="rgb(204, 204, 204)" stroke-width="1px"></line><line x1="773.3333333333334" y1="0" x2="773.3333333333334" y2="5" style="visibility: inherit;" fill="rgb(0, 0, 0)" stroke="rgb(204, 204, 204)" stroke-width="1px"></line><line x1="928" y1="0" x2="928" y2="5" style="visibility: inherit;" fill="rgb(0, 0, 0)" stroke="rgb(204, 204, 204)" stroke-width="1px"></line><line x1="1082.6666666666667" y1="0" x2="1082.6666666666667" y2="5" style="visibility: inherit;" fill="rgb(0, 0, 0)" stroke="rgb(204, 204, 204)" stroke-width="1px"></line><line x1="1237.3333333333333" y1="0" x2="1237.3333333333333" y2="5" style="visibility: inherit;" fill="rgb(0, 0, 0)" stroke="rgb(204, 204, 204)" stroke-width="1px"></line><line x1="1392" y1="0" x2="1392" y2="5" style="visibility: inherit;" fill="rgb(0, 0, 0)" stroke="rgb(204, 204, 204)" stroke-width="1px"></line></g><g transform="translate(0, 8)"><text x="0" y="0" dx="0em" dy="0.95em" style="text-anchor: middle; visibility: hidden; font-family: &quot;Helvetica Neue&quot;, sans-serif; font-size: 12px; font-weight: 200;" fill="rgb(50, 49, 63)" stroke="none" stroke-width="1px">-200k</text><text x="154.66666666666666" y="0" dx="0em" dy="0.95em" style="text-anchor: middle; visibility: inherit; font-family: &quot;Helvetica Neue&quot;, sans-serif; font-size: 12px; font-weight: 200;" fill="rgb(50, 49, 63)" stroke="none" stroke-width="1px">0</text><text x="309.3333333333333" y="0" dx="0em" dy="0.95em" style="text-anchor: middle; visibility: inherit; font-family: &quot;Helvetica Neue&quot;, sans-serif; font-size: 12px; font-weight: 200;" fill="rgb(50, 49, 63)" stroke="none" stroke-width="1px">200k</text><text x="464" y="0" dx="0em" dy="0.95em" style="text-anchor: middle; visibility: inherit; font-family: &quot;Helvetica Neue&quot;, sans-serif; font-size: 12px; font-weight: 200;" fill="rgb(50, 49, 63)" stroke="none" stroke-width="1px">400k</text><text x="618.6666666666666" y="0" dx="0em" dy="0.95em" style="text-anchor: middle; visibility: inherit; font-family: &quot;Helvetica Neue&quot;, sans-serif; font-size: 12px; font-weight: 200;" fill="rgb(50, 49, 63)" stroke="none" stroke-width="1px">600k</text><text x="773.3333333333334" y="0" dx="0em" dy="0.95em" style="text-anchor: middle; visibility: inherit; font-family: &quot;Helvetica Neue&quot;, sans-serif; font-size: 12px; font-weight: 200;" fill="rgb(50, 49, 63)" stroke="none" stroke-width="1px">800k</text><text x="928" y="0" dx="0em" dy="0.95em" style="text-anchor: middle; visibility: inherit; font-family: &quot;Helvetica Neue&quot;, sans-serif; font-size: 12px; font-weight: 200;" fill="rgb(50, 49, 63)" stroke="none" stroke-width="1px">1M</text><text x="1082.6666666666667" y="0" dx="0em" dy="0.95em" style="text-anchor: middle; visibility: inherit; font-family: &quot;Helvetica Neue&quot;, sans-serif; font-size: 12px; font-weight: 200;" fill="rgb(50, 49, 63)" stroke="none" stroke-width="1px">1.2M</text><text x="1237.3333333333333" y="0" dx="0em" dy="0.95em" style="text-anchor: middle; visibility: inherit; font-family: &quot;Helvetica Neue&quot;, sans-serif; font-size: 12px; font-weight: 200;" fill="rgb(50, 49, 63)" stroke="none" stroke-width="1px">1.4M</text><text x="1392" y="0" dx="0em" dy="0.95em" style="text-anchor: middle; visibility: hidden; font-family: &quot;Helvetica Neue&quot;, sans-serif; font-size: 12px; font-weight: 200;" fill="rgb(50, 49, 63)" stroke="none" stroke-width="1px">1.6M</text></g><line x1="0" y1="0" x2="1392" y2="0" fill="rgb(0, 0, 0)" stroke="rgb(204, 204, 204)" stroke-width="1px"></line></g></g></g></g></svg>