<svg viewBox="0 0 1438 400" xmlns="http://www.w3.org/2000/svg"><g><g><g><g><g><line x1="58" y1="378" x2="53" y2="378" style="visibility: inherit;" fill="rgb(0, 0, 0)" stroke="rgb(204, 204, 204)" stroke-width="1px"></line><line x1="58" y1="340.1999999999998" x2="53" y2="340.1999999999998" style="visibility: inherit;" fill="rgb(0, 0, 0)" stroke="rgb(204, 204, 204)" stroke-width="1px"></line><line x1="58" y1="302.4" x2="53" y2="302.4" style="visibility: inherit;" fill="rgb(0, 0, 0)" stroke="rgb(204, 204, 204)" stroke-width="1px"></line><line x1="58" y1="264.6000000000002" x2="53" y2="264.6000000000002" style="visibility: inherit;" fill="rgb(0, 0, 0)" stroke="rgb(204, 204, 204)" stroke-width="1px"></line><line x1="58" y1="226.79999999999998" x2="53" y2="226.79999999999998" style="visibility: inherit;" fill="rgb(0, 0, 0)" stroke="rgb(204, 204, 204)" stroke-width="1px"></line><line x1="58" y1="189.00000000000017" x2="53" y2="189.00000000000017" style="visibility: inherit;" fill="rgb(0, 0, 0)" stroke="rgb(204, 204, 204)" stroke-width="1px"></line><line x1="58" y1="151.20000000000002" x2="53" y2="151.20000000000002" style="visibility: inherit;" fill="rgb(0, 0, 0)" stroke="rgb(204, 204, 204)" stroke-width="1px"></line><line x1="58" y1="113.4000000000002" x2="53" y2="113.4000000000002" style="visibility: inherit;" fill="rgb(0, 0, 0)" stroke="rgb(204, 204, 204)" stroke-width="1px"></line><line x1="58" y1="75.6000000000003" x2="53" y2="75.6000000000003" style="visibility: inherit;" fill="rgb(0, 0, 0)" stroke="rgb(204, 204, 204)" stroke-width="1px"></line><line x1="58" y1="37.80000000000052" x2="53" y2="37.80000000000052" style="visibility: inherit;" fill="rgb(0, 0, 0)" stroke="rgb(204, 204, 204)" stroke-width="1px"></line><line x1="58" y1="0" x2="53" y2="0" style="visibility: inherit;" fill="rgb(0, 0, 0)" stroke="rgb(204, 204, 204)" stroke-width="1px"></line></g><g transform="translate(48, 0)"><text x="0" y="378" dx="0em" dy="0.3em" style="text-anchor: end; visibility: hidden; font-family: &quot;Helvetica Neue&quot;, sans-serif; font-size: 12px; font-weight: 200;" fill="rgb(50, 49, 63)" stroke="none" stroke-width="1px">3.65</text><text x="0" y="340.1999999999998" dx="0em" dy="0.3em" style="text-anchor: end; visibility: inherit; font-family: &quot;Helvetica Neue&quot;, sans-serif; font-size: 12px; font-weight: 200;" fill="rgb(50, 49, 63)" stroke="none" stroke-width="1px">3.7</text><text x="0" y="302.4" dx="0em" dy="0.3em" style="text-anchor: end; visibility: inherit; font-family: &quot;Helvetica Neue&quot;, sans-serif; font-size: 12px; font-weight: 200;" fill="rgb(50, 49, 63)" stroke="none" stroke-width="1px">3.75</text><text x="0" y="264.6000000000002" dx="0em" dy="0.3em" style="text-anchor: end; visibility: inherit; font-family: &quot;Helvetica Neue&quot;, sans-serif; font-size: 12px; font-weight: 200;" fill="rgb(50, 49, 63)" stroke="none" stroke-width="1px">3.8</text><text x="0" y="226.79999999999998" dx="0em" dy="0.3em" style="text-anchor: end; visibility: inherit; font-family: &quot;Helvetica Neue&quot;, sans-serif; font-size: 12px; font-weight: 200;" fill="rgb(50, 49, 63)" stroke="none" stroke-width="1px">3.85</text><text x="0" y="189.00000000000017" dx="0em" dy="0.3em" style="text-anchor: end; visibility: inherit; font-family: &quot;Helvetica Neue&quot;, sans-serif; font-size: 12px; font-weight: 200;" fill="rgb(50, 49, 63)" stroke="none" stroke-width="1px">3.9</text><text x="0" y="151.20000000000002" dx="0em" dy="0.3em" style="text-anchor: end; visibility: inherit; font-family: &quot;Helvetica Neue&quot;, sans-serif; font-size: 12px; font-weight: 200;" fill="rgb(50, 49, 63)" stroke="none" stroke-width="1px">3.95</text><text x="0" y="113.4000000000002" dx="0em" dy="0.3em" style="text-anchor: end; visibility: inherit; font-family: &quot;Helvetica Neue&quot;, sans-serif; font-size: 12px; font-weight: 200;" fill="rgb(50, 49, 63)" stroke="none" stroke-width="1px">4</text><text x="0" y="75.6000000000003" dx="0em" dy="0.3em" style="text-anchor: end; visibility: inherit; font-family: &quot;Helvetica Neue&quot;, sans-serif; font-size: 12px; font-weight: 200;" fill="rgb(50, 49, 63)" stroke="none" stroke-width="1px">4.05</text><text x="0" y="37.80000000000052" dx="0em" dy="0.3em" style="text-anchor: end; visibility: inherit; font-family: &quot;Helvetica Neue&quot;, sans-serif; font-size: 12px; font-weight: 200;" fill="rgb(50, 49, 63)" stroke="none" stroke-width="1px">4.1</text><text x="0" y="0" dx="0em" dy="0.3em" style="text-anchor: end; visibility: hidden; font-family: &quot;Helvetica Neue&quot;, sans-serif; font-size: 12px; font-weight: 200;" fill="rgb(50, 49, 63)" stroke="none" stroke-width="1px">4.15</text></g><line x1="58" y1="0" x2="58" y2="378" fill="rgb(0, 0, 0)" stroke="rgb(204, 204, 204)" stroke-width="1px"></line></g></g><g transform="translate(58, 0)" clip-path="url(#clip_0)"><clipPath id="clip_0"><rect width="1380" height="378"></rect></clipPath><g><g><g><line x1="0" y1="0" x2="0" y2="378" fill="rgb(0, 0, 0)" stroke="rgb(60, 60, 60)" stroke-width="1px" opacity="0.25"></line><line x1="138" y1="0" x2="138" y2="378" fill="rgb(0, 0, 0)" stroke="rgb(60, 60, 60)" stroke-width="1px" opacity="0.25"></line><line x1="276" y1="0" x2="276" y2="378" fill="rgb(0, 0, 0)" stroke="rgb(60, 60, 60)" stroke-width="1px" opacity="0.25"></line><line x1="414" y1="0" x2="414" y2="378" fill="rgb(0, 0, 0)" stroke="rgb(60, 60, 60)" stroke-width="1px" opacity="0.25"></line><line x1="552" y1="0" x2="552" y2="378" fill="rgb(0, 0, 0)" stroke="rgb(60, 60, 60)" stroke-width="1px" opacity="0.25"></line><line x1="690" y1="0" x2="690" y2="378" fill="rgb(0, 0, 0)" stroke="rgb(60, 60, 60)" stroke-width="1px" opacity="0.25"></line><line x1="828" y1="0" x2="828" y2="378" fill="rgb(0, 0, 0)" stroke="rgb(60, 60, 60)" stroke-width="1px" opacity="0.25"></line><line x1="965.9999999999999" y1="0" x2="965.9999999999999" y2="378" fill="rgb(0, 0, 0)" stroke="rgb(60, 60, 60)" stroke-width="1px" opacity="0.25"></line><line x1="1104" y1="0" x2="1104" y2="378" fill="rgb(0, 0, 0)" stroke="rgb(60, 60, 60)" stroke-width="1px" opacity="0.25"></line><line x1="1242" y1="0" x2="1242" y2="378" fill="rgb(0, 0, 0)" stroke="rgb(60, 60, 60)" stroke-width="1px" opacity="0.25"></line><line x1="1380" y1="0" x2="1380" y2="378" fill="rgb(0, 0, 0)" stroke="rgb(60, 60, 60)" stroke-width="1px" opacity="0.25"></line></g><g><line x1="0" y1="378" x2="1380" y2="378" fill="rgb(0, 0, 0)" stroke="rgb(60, 60, 60)" stroke-width="1px" opacity="0.25"></line><line x1="0" y1="340.1999999999998" x2="1380" y2="340.1999999999998" fill="rgb(0, 0, 0)" stroke="rgb(60, 60, 60)" stroke-width="1px" opacity="0.25"></line><line x1="0" y1="302.4" x2="1380" y2="302.4" fill="rgb(0, 0, 0)" stroke="rgb(60, 60, 60)" stroke-width="1px" opacity="0.25"></line><line x1="0" y1="264.6000000000002" x2="1380" y2="264.6000000000002" fill="rgb(0, 0, 0)" stroke="rgb(60, 60, 60)" stroke-width="1px" opacity="0.25"></line><line x1="0" y1="226.79999999999998" x2="1380" y2="226.79999999999998" fill="rgb(0, 0, 0)" stroke="rgb(60, 60, 60)" stroke-width="1px" opacity="0.25"></line><line x1="0" y1="189.00000000000017" x2="1380" y2="189.00000000000017" fill="rgb(0, 0, 0)" stroke="rgb(60, 60, 60)" stroke-width="1px" opacity="0.25"></line><line x1="0" y1="151.20000000000002" x2="1380" y2="151.20000000000002" fill="rgb(0, 0, 0)" stroke="rgb(60, 60, 60)" stroke-width="1px" opacity="0.25"></line><line x1="0" y1="113.4000000000002" x2="1380" y2="113.4000000000002" fill="rgb(0, 0, 0)" stroke="rgb(60, 60, 60)" stroke-width="1px" opacity="0.25"></line><line x1="0" y1="75.6000000000003" x2="1380" y2="75.6000000000003" fill="rgb(0, 0, 0)" stroke="rgb(60, 60, 60)" stroke-width="1px" opacity="0.25"></line><line x1="0" y1="37.80000000000052" x2="1380" y2="37.80000000000052" fill="rgb(0, 0, 0)" stroke="rgb(60, 60, 60)" stroke-width="1px" opacity="0.25"></line><line x1="0" y1="0" x2="1380" y2="0" fill="rgb(0, 0, 0)" stroke="rgb(60, 60, 60)" stroke-width="1px" opacity="0.25"></line></g></g></g><g><g><line x1="0" y1="3137.3999999999974" x2="1380" y2="3137.3999999999974" fill="rgb(0, 0, 0)" stroke="rgb(153, 153, 153)" stroke-width="1.5px"></line></g></g><g><g><line x1="138" y1="0" x2="138" y2="378" fill="rgb(0, 0, 0)" stroke="rgb(153, 153, 153)" stroke-width="1.5px"></line></g></g><g><g><g><g><g><path stroke="rgb(0, 119, 187)" stroke-width="2px" d="M690,116.30265655517599Z" style="fill: none;" fill="none"></path></g><g><path stroke="rgb(255, 112, 67)" stroke-width="2px" d="M148.074,-235.33947715759234L153.042,14.35243263244655L154.698,54.14319648742696L155.52599999999998,82.32549705505392L156.35399999999998,-15.069228744506574L156.768,43.22110404968282L157.596,13.114153289795183L160.08,50.92691459655782L160.494,45.7531780242922L160.908,51.35121002197286L161.322,-19.57606086730931L161.736,151.08262481689468L164.22,78.45420684814474L165.048,96.13258209228536L165.876,109.25870361328145L166.29,18.28825035095241L167.53199999999998,85.1351474761965L167.946,148.3670619964601L168.35999999999999,125.85615291595474L168.774,84.77321662902852L170.844,122.76460018157974L172.914,64.31366958618185L174.156,23.72550430297872L174.57,90.07636871337911L177.054,74.05732383728048L180.366,-1.6464248657223948L181.608,72.61320533752462L182.022,161.92288627624526L184.92000000000002,15.759060287475847L186.16199999999998,-17.94484863281224L186.99,15.380907440185808L189.888,250.77799072265628L190.302,1.0651725769045584L191.544,157.41605415344253L191.958,139.5767206192018L194.856,120.32715454101577L195.68400000000003,116.92341842651388L196.512,37.23374404907247L196.926,83.02881088256856L197.33999999999997,141.5595897674562L200.238,164.21163024902359L202.30800000000002,193.14951553344736L203.136,100.47431030273458L203.54999999999998,118.52182617187515L205.206,3.6210388183596365L207.276,134.6133293151857L207.69,137.1299022674562L208.93200000000002,11.069820785522722L211.416,98.94800033569356L211.82999999999998,65.90234413146993L212.658,130.16958274841323L213.9,180.9767068862916L214.72799999999998,155.7951158523561L215.14200000000002,181.08467330932626L215.97,137.0376171112062L216.79799999999997,165.78696670532236L217.21200000000002,97.58102645874044L220.11,128.67066993713394L223.422,188.15638389587411L223.836,91.75192108154317L224.25,101.03883590698263L225.906,139.33050670623794L230.046,177.26781692504892L230.46,147.2372898101808L231.288,93.28471984863302L232.94400000000002,29.614090347290244L234.18599999999998,246.28990402221686L234.60000000000002,134.64559307098403L235.014,110.22589530944845L236.256,141.10609474182144L241.22400000000002,167.86121978759775L243.708,212.41980972290048L244.95,170.17051162719736L245.77800000000002,114.91657676696798L246.192,160.202272796631L247.01999999999998,177.00411930084238L248.676,94.21369972229024L250.332,160.80464973449722L251.16,149.97466220855728L253.23,66.59268035888692L258.612,145.03614463806167L259.026,145.34886875152603L261.096,157.7296794891359L261.51,134.591339492798L263.166,181.9712957382203L263.58,39.09170379638692L265.236,45.13710250854513L265.65000000000003,169.72566833496103L266.478,178.0468334197999L267.72,48.67061462402364L269.79,151.3198265075685L270.204,250.86901416778568L270.618,209.68982734680185L272.688,121.8545459747316L273.102,164.5153421401979L273.51599999999996,148.5948909759523L274.758,135.38423480987564L278.48400000000004,134.62071933746353L279.312,240.20268859863288L280.968,244.09993400573737L281.796,224.43418350219736L284.28,99.96854438781759L284.694,178.36586608886728L287.178,223.99312534332284L288.42,80.50502815246602L290.076,172.96375980377206L291.732,189.86618270874033L292.56,122.93493118286148L294.216,141.26723327636734L294.63,268.8974241256714L295.044,161.50075378417984L295.872,231.35953559875495L297.942,182.56592216491708L300.012,137.914506340027L300.426,84.5817970275881L300.84,224.961038017273L307.05,137.7555307388307L309.948,188.11582889556894L312.43199999999996,247.4960998535157L312.846,169.00955715179452L313.674,176.99510707855234L314.502,96.65348854064962L316.158,236.55868663787848L319.884,280.60087623596195L320.712,199.42742958068857L321.126,120.75938072204605L322.368,180.61585750579843L324.852,135.94876041412368L328.164,200.29801025390634L328.57800000000003,210.11268081665048L329.82,208.39314880371103L330.23400000000004,99.5806583404543L331.89,109.05286445617696L333.96,193.05038108825693L334.37399999999997,229.43001880645758L338.928,262.9581893920899L340.17,167.90988578796396L340.584,210.63917484283456L341.41200000000003,79.98051681518575L342.24,221.10434761047372L343.482,203.00636329650888L348.03599999999994,246.0238632202149L350.106,155.7949356079103L350.934,128.131378555298L352.176,84.42750778198263L353.004,206.7035373687745L355.07399999999996,145.38041152954116L355.488,207.5546516418458L357.97200000000004,221.96591606140146L358.8,43.22002258300802L359.21399999999994,146.99107589721694L360.04200000000003,187.7811149597169L360.45599999999996,213.89727344512949L361.698,151.0433315277101L362.526,190.90493144989023L364.596,73.29777374267599L365.01,163.29706993103042L365.424,179.04682960510263L368.736,135.32475414276138L369.56399999999996,82.01727905273458L371.22,169.56615200042734L371.63399999999996,156.59576168060318L372.048,154.81512680053726L373.704,80.03026428222677L375.36,180.8157485961915L375.774,278.50138893127445L377.016,131.11334266662612L377.844,222.70563926696786L378.25800000000004,99.02730789184591L378.67199999999997,157.22841968536392L379.086,247.54116096496588L379.50000000000006,266.305689239502L379.914,233.1933425903321L380.74199999999996,229.33268680572516L381.156,181.4644483566285L383.226,175.8300069808961L383.64000000000004,259.5959095001221L385.296,178.58792724609384L386.538,160.5259918212892L387.366,134.56394233703628L389.84999999999997,145.83661022186294L390.678,232.67568054199225L392.74800000000005,182.72453727722177L394.404,183.96011295318613L394.81800000000004,147.789919281006L395.646,215.64113845825204L400.614,146.87283554077163L403.512,40.72904434204122L403.92600000000004,165.96342601776132L404.754,213.01137199401865L405.16800000000006,299.81349220275877L405.582,251.5876487731934L405.99600000000004,178.81773891448984L406.824,92.20361366271993L408.06600000000003,121.04542865753189L409.722,130.84549942016616L410.136,142.5067743301393L411.792,258.9675773620606L413.034,124.27685108184829L414.69,118.80282726287857L415.932,185.85087718963632L416.34600000000006,171.2207960128785L416.76,305.9553216934204L417.17400000000004,246.8542493820191L417.58799999999997,155.2408641815187L418.41600000000005,146.8400310516359L418.83,143.0831960678102L419.244,247.33081569671637L420.48600000000005,182.7742847442628L420.9,111.82682647705099L421.314,109.79330863952657L422.142,181.70525493621835L422.96999999999997,104.9313949584963L423.384,218.85597839355478L426.28200000000004,211.60690727233896L427.524,207.49877586364755L428.35200000000003,65.04618301391622L429.18,228.93146266937262L430.422,100.78649368286153L431.25,311.09282913208006L432.078,231.84096851348883L433.73400000000004,27.962690734863486L435.39,111.60116043090841L436.632,296.7057174682617L437.046,251.3560346603394L437.46,103.49700965881368L437.874,240.52172126770026L440.358,153.7634004592897L442.84200000000004,129.6324542999269L443.67,177.8608211517335L444.08399999999995,168.2673105239869L444.498,220.70258274078378L445.74,138.27535572052017L446.982,200.67436065673837L447.39599999999996,261.2966960906983L448.638,233.76039161682135L449.052,159.49463310241714L449.466,166.03119792938242L450.294,90.70650329589864L451.122,235.55742874145514L453.606,174.89507904052743L454.848,113.57663955688497L455.26200000000006,259.29381980896L456.50399999999996,116.45261993408224L456.918,146.1992620468141L457.33199999999994,152.5211557388307L458.16,192.49901332855234L458.57399999999996,213.19233741760263L461.058,273.1171268463135L462.714,202.69417991638193L463.128,283.04679336547855L463.956,267.72853889465335L464.784,207.44416179656992L465.61199999999997,108.17219009399435L466.026,383.59147109985344L466.44000000000005,183.62233486175546L466.854,162.67378463745132L467.26800000000003,243.0723604202271L468.51000000000005,246.90706100463873L469.338,227.89487686157233L470.166,203.04637756347665L471.408,130.88803710937515L472.236,109.14911499023458L472.65000000000003,162.9928173065187L473.06399999999996,205.79690780639658L475.548,211.985060119629L475.962,103.58172454834005L476.78999999999996,214.05138244628915L478.032,202.81530418396005L479.68800000000005,218.62310256958017L480.92999999999995,279.17261924743656L482.17199999999997,109.2453655242922L482.586,186.7027124404908L483.414,151.53630008697525L484.24199999999996,238.79552021026618L485.07,168.75667419433603L487.14,204.3491844177247L488.382,280.43775501251224L489.21,99.8780616760256L490.452,249.28845062255863L493.764,223.7045539855958L495.41999999999996,201.66624584198007L497.076,221.12940158844003L497.904,269.3512796401978L498.318,281.7387594223023L499.974,137.12143077850357L500.802,345.5476364135742L501.216,201.31242599487314L502.45799999999997,243.51756420135504L503.28600000000006,218.59336223602304L504.11400000000003,314.0304531097412L505.35600000000005,174.21051063537607L506.184,210.40197315216074L506.59799999999996,149.55865802764907L507.42600000000004,271.4792455673218L509.082,280.13854923248294L510.738,190.98081436157236L513.636,150.17960014343276L514.05,223.55278816223154L514.464,303.45731391906736L514.8779999999999,205.35981502532968L515.706,288.2533344268799L516.948,189.48532619476327L517.362,230.772299194336L517.776,344.9284967422485L519.018,206.06348934173593L519.432,180.0778278350831L519.846,209.45352687835702L520.26,167.6649335861207L523.572,154.0636877059938L523.986,188.66719665527353L525.228,254.94830646514896L528.126,185.1053861618043L529.368,189.47577323913583L532.266,172.9971050262452L532.6800000000001,228.7389616012574L533.0939999999999,285.53885307312015L533.922,258.7474988937378L534.336,247.13669242858893L534.75,271.4952873229981L535.9920000000001,208.9151367187501L536.406,203.36234607696542L537.2339999999999,126.05676498413101L538.062,201.47608795166025L538.476,200.1947301864625L540.1320000000001,215.0326332092286L540.5459999999999,271.4138168334961L542.202,248.6359657287598L542.616,164.95766201019302L543.03,143.25478878021255L543.444,295.84162559509275L544.686,118.6737722396852L545.1,233.02174987792975L545.514,180.6337017059327L546.756,209.49930896759042L547.1700000000001,104.79729309082052L550.482,293.5719875335693L552.138,223.6823839187623L552.966,196.8275836944581L553.794,293.1116432189941L554.208,107.29043426513692L555.45,163.89710369110122L555.864,231.77788295745856L556.692,143.3342765808107L557.106,255.68784942626957L557.52,217.4068130493165L557.934,180.57710494995126L559.176,205.9620117187501L562.488,195.63220252990732L563.316,245.96744670867926L564.144,219.14941635131845L564.972,258.0955547332764L565.386,203.0793622970582L566.628,275.38586368560794L567.456,195.61111392974863L567.87,240.78938426971442L568.284,171.39076652526865L570.354,258.68207015991214L573.252,203.63793983459482L573.666,221.52828254699716L574.908,221.21772136688242L575.736,179.134248161316L578.22,220.01945629119882L578.634,243.08804168701178L579.462,370.51563777923576L580.29,172.21538486480722L581.946,190.27984371185312L583.602,230.9539855957032L584.43,39.33106842041036L586.5,215.16078701019296L586.914,237.7647022247315L587.328,246.75547542572028L590.226,179.52916374206552L590.64,188.8474411010743L593.124,271.62272014617923L594.78,267.7811702728272L595.1940000000001,128.17049160003677L595.608,169.84156551361093L599.3340000000001,153.32108058929458L600.162,223.4087728500367L601.404,300.20137825012205L603.06,209.32501258850107L603.888,256.2689575195313L604.302,243.72142066955573L605.958,238.30886020660407L606.3720000000001,199.03179302215585L607.2,208.4342445373536L607.614,306.3916934967041L608.028,308.5209211349487L609.27,233.13584461212164L609.6840000000001,250.3863195419312L613.824,282.6235794067383L614.652,187.72307624816904L615.066,201.40417041778574L616.308,219.2269214630128L616.722,264.47080078125003L617.136,54.08696022033712L618.378,230.31952514648444L618.792,272.4504026412964L619.206,127.47943439483657L625.4159999999999,243.325784111023L626.658,234.52697124481207L627.486,198.70248641967783L627.9,239.55633201599127L628.728,94.05256118774435L629.142,196.14643993377695L630.384,133.05854072570816L631.626,253.7552684783936L632.0400000000001,215.1474489212037L632.454,187.11132659912118L632.868,299.81313171386716L633.696,226.38136425018317L634.524,133.1367668151857L635.352,237.5538162231446L636.5939999999999,235.6879257202149L637.422,186.2814811706544L638.25,217.52901878356943L639.078,234.61493053436286L639.906,274.9186700820923L640.32,259.5996946334839L640.734,279.4999431610108L644.874,231.15946426391608L646.5300000000001,241.36562576293952L648.186,270.7901710510254L648.5999999999999,313.46881141662595L649.014,241.9613336563111L649.842,334.02136459350584L651.084,251.8882965087891L652.326,237.7863315582276L653.154,250.25600280761722L654.396,237.17133750915534L655.224,262.92574539184574L656.88,284.7028793334961L657.7080000000001,178.1198324203492L658.5360000000001,292.05432929992674L658.9499999999999,234.6735099792481L660.192,276.9037021636963L660.606,221.50196685791025L661.02,314.9273494720459L662.262,286.6150926589966L664.332,289.1936697006226L665.574,245.9319385528565L667.644,237.22126522064215L668.472,233.73569812774664L670.956,232.54139842987067L672.612,249.82503833770755L673.0260000000001,327.72416439056394L673.4399999999999,218.52486934661874L673.854,272.0560277938843L674.682,397.1937984466552L675.924,201.76033344268808L676.338,173.16671504974374L677.166,329.5812229156494L677.58,214.00992622375497L680.478,83.73536911010763L681.306,316.97042026519773L682.548,231.70758762359625L682.962,310.8017343521118L684.2040000000001,266.62237873077396L684.6179999999999,262.67845001220707L686.688,335.66050758361814L687.102,297.8774866104126L687.516,243.84434738159186L688.758,197.02945747375497L689.586,218.30370941162118L690,173.24079551696786L690.138,271.99654712677005L690.5519999999999,174.73718490600595L690.966,238.42511787414557L691.38,150.48060836792007L693.864,152.3587554931642L695.934,184.04068222045908L696.3480000000001,243.26215782165534L696.7620000000001,276.19065513610843L698.832,253.44290485382083L700.488,182.44894351959238L701.316,288.1304077148438L703.3860000000001,192.25099697113046L705.042,197.92166748046884L707.94,142.14700641632095L708.7679999999999,96.13114013671895L710.01,151.32505359649673L710.838,146.48440876007095L711.252,134.67028656005874L712.494,124.5538867950441L712.9079999999999,174.26818885803232L713.736,178.9687837600709L714.15,129.39453163146987L715.3919999999999,245.2872041702271L722.43,265.7047542572022L722.844,188.41900005340585L723.258,221.38769187927255L723.672,188.00714149475107L725.328,236.64484348297125L726.5699999999999,264.5593008041382L728.2259999999999,207.04131546020517L728.64,133.84530773162857L729.054,67.02166213989278L730.7099999999999,197.6599525451661L731.124,237.7614578247071L731.538,225.4433721542359L732.366,196.5305408477784L733.194,213.71126117706308L734.022,205.92488136291513L734.8499999999999,181.24797477722177L738.162,183.09674205780038L740.232,183.7492269515992L740.646,153.72861328125015L744.372,126.84533443450943L744.786,221.29126110076913L749.34,167.67881240844736L750.996,286.13870658874515L751.41,247.42544403076178L752.652,252.27546157836917L753.0659999999999,72.55913200378438L754.308,114.05140342712423L755.1360000000001,197.25872840881357L755.55,200.87803688049326L755.9639999999999,190.10482635498056L758.8620000000001,292.08010425567625L759.2760000000001,187.2288459777833L759.6899999999999,215.0977014541627L760.1039999999999,211.5441822052003L761.346,242.6558155059815L762.174,104.86939086914083L762.588,179.92786445617685L763.002,143.16484680175796L766.3140000000001,293.7747625350952L768.3839999999999,189.9736083984376L768.798,189.43071212768564L770.0400000000001,152.07270755767837L772.9380000000001,243.07957019805914L773.766,176.64669456481943L777.906,218.77667083740243L779.976,138.86727848052993L780.39,145.8065093994142L781.2180000000001,138.68919696807876L781.6320000000001,138.45668163299575L784.1160000000001,225.10937919616705L784.53,206.89297428131113L787.014,203.34035625457773L787.428,250.37784805297855L791.154,77.77937164306661L792.8100000000001,210.45929088592538L793.6379999999999,158.7933019638063L795.2940000000001,122.60093822479263L799.848,129.979785346985L800.676,243.70862331390387L801.9179999999999,197.79081001281747L802.332,273.70760765075687L803.988,269.6310190200806L804.4019999999999,185.88404216766367L805.23,111.8985637664797L805.644,92.81644477844259L806.0579999999999,213.0470603942872L808.128,255.31726684570316L810.198,205.10603084564218L811.026,296.83765640258787L811.4399999999999,239.8649105072022L811.854,192.52388706207284L812.682,178.88334789276132L813.51,241.5264038085938L814.338,147.6709579467775L815.994,20.473894500732683L817.2359999999999,217.18835678100595L818.064,205.6404556274415L819.7199999999999,215.15952529907236L821.376,157.5014900207521L822.6179999999999,299.91731300354L824.2740000000001,94.46748390197774L825.102,172.82875671386728L825.516,192.62139930725107L826.7579999999999,139.38043441772476L829.242,198.18176021575937L829.656,136.30564441680923L830.07,221.69104328155527L831.312,182.78852405548105L831.726,217.797222518921L832.554,208.88449516296396L834.624,144.49739398956314L835.038,133.40695323944107L835.4520000000001,235.2234357833863L837.9359999999999,221.54107990264902L838.35,241.02928962707526L839.178,230.7256158828736L839.5920000000001,179.21355571746835L840.006,170.60814514160165L840.42,157.59882202148452L841.248,124.14455165863052L842.49,203.29439392089853L842.904,173.4558271408082L844.1460000000001,195.82884922027597L845.802,225.7175239562989L847.458,171.16870536804208L848.6999999999999,241.60733356475836L849.1139999999999,134.74508800506607L849.528,219.3247941970826L851.184,221.69446792602548L852.426,170.65158405303964L853.2539999999999,272.5208782196045L854.496,165.0256141662599L855.3240000000001,176.8031467437745L855.7379999999999,172.4206832885743L856.1519999999999,204.67957248687753L856.98,267.2108768463135L857.394,145.91411533355728L859.464,164.258313560486L860.2919999999999,123.98305263519302L860.706,139.6872104644777L861.12,111.40144958496114L862.362,154.33135070800796L863.1899999999999,148.90707435607925L863.604,164.62402954101577L864.018,342.93373146057127L864.4319999999999,184.8780979156495L868.9860000000001,255.1878513336182L870.78,83.47834053039571L873.264,185.25841369628915L875.334,202.1110891342164L876.162,236.721988105774L878.232,324.82150783538816L878.6460000000001,336.85787143707273L879.4739999999999,268.32767143249515L879.8879999999999,237.4400819778443L880.302,225.93381729125983L881.958,235.30310382843024L882.7860000000001,277.4274925231934L884.856,263.3981660842896L885.6840000000001,253.50040283203128L888.582,178.88947620391855L889.8240000000001,200.23204078674326L891.066,190.7385658264161L892.7220000000001,239.5631813049317L893.55,161.22948589324966L893.964,238.0613845825196L896.8620000000001,255.8596223831177L898.104,172.52017822265634L899.76,218.17735805511484L900.174,261.08364715576175L901.416,148.0168470382692L901.8299999999999,155.87081851959243L902.658,220.3357852935792L904.314,296.99843444824216L905.556,195.63148155212411L906.384,260.1065420150757L906.798,339.81622352600095L907.212,207.28770961761484L910.11,245.40562477111823L910.5240000000001,155.1916574478151L911.352,227.92623939514166L913.836,207.66207733154306L914.25,274.1131576538086L914.6639999999999,255.98543300628666L915.078,221.5630697250367L916.32,300.6301797866821L917.562,193.2974962234498L920.874,267.283695602417L921.7020000000001,237.9689191818238L926.256,161.2363351821901L927.912,272.0268281936646L929.154,231.2111944198609L929.568,187.56410064697275L931.638,274.0405191421509L932.052,356.97855892181394L933.708,188.69729747772226L934.122,254.31745090484623L934.5360000000001,239.8861793518067L936.606,220.0839838027955L937.0200000000001,233.451272392273L938.262,196.93068351745615L938.676,75.21269073486349L939.09,234.16900577545172L939.918,203.22986640930185L940.332,202.8472074508668L942.4019999999999,212.94774570465097L943.23,285.65583171844486L944.472,290.97250213623045L945.714,290.3093828201294L946.5419999999999,203.30232467651376L947.37,237.25028457641608L949.026,334.58246555328367L949.4399999999999,142.3411296844484L951.924,328.9352268218994L952.7520000000001,128.19248142242446L953.5799999999999,262.7355875015259L955.65,222.50088157653818L957.7199999999999,136.67388381958023L958.134,179.99419441223154L958.548,163.45983066558853L963.5160000000001,252.56709709167484L964.3439999999999,183.55402221679697L965.172,259.6409706115723L965.9999999999999,259.58581581115726L966.4140000000001,117.35023727417013L968.07,250.67525138854984L968.4839999999999,188.52912940979013L968.8979999999999,280.2645401000977L969.726,260.0068668365479L970.14,277.6392797470093L971.382,167.734327697754L972.624,191.7760528564454L973.452,314.9095052719116L975.936,290.7372831344604L976.35,290.00080432891843L977.1779999999999,207.51986446380624L978.006,234.69820346832282L979.248,108.40903129577657L980.076,268.88426628112796L981.318,248.85442199707035L982.146,195.0500129699708L982.974,287.33931484222416L984.2159999999999,228.2377017974854L984.63,214.41908111572275L985.458,291.25188102722166L986.2860000000001,272.1713842391968L986.6999999999999,267.12562122344974L990.0120000000001,184.0954765319825L990.426,279.268148803711L991.254,220.23196449279794L993.324,185.28130474090585L995.3940000000001,280.4916481018067L995.808,198.79891719818124L996.222,108.29151191711446L997.0500000000001,212.26750316619882L997.4639999999999,334.46458568572996L998.292,249.77547111511234L999.12,248.40020599365238L1000.362,289.2641452789307L1000.776,225.55043735504157L1002.432,225.8336013793946L1004.502,204.35747566223154L1005.33,243.7877506256104L1007.814,288.23837413787845L1008.2280000000001,245.22015323638922L1008.6419999999999,328.752819442749L1009.0559999999999,317.9298614501953L1009.47,245.01088943481452L1010.7120000000001,207.7145284652711L1011.54,239.45990123748786L1012.782,222.88480224609384L1013.1959999999999,268.4713262557984L1014.438,303.9075645446777L1015.2660000000001,194.72052612304697L1016.0939999999999,221.6501277923585L1016.508,255.9064859390259L1016.922,243.01576366424567L1018.578,244.0822700500489L1020.2339999999999,184.65856018066415L1020.648,253.2475198745728L1021.062,187.90800704956064L1022.718,216.46719875335702L1023.132,300.1921857833862L1023.96,216.50126495361337L1024.374,202.97211685180673L1025.202,314.2173666000366L1025.616,210.31906070709238L1026.03,266.22511997222904L1026.858,367.48951377868644L1027.272,242.98962821960455L1027.6860000000001,219.0025171279908L1028.1,225.01493110656745L1029.342,301.9839958190918L1030.17,220.83866729736337L1030.584,225.57675304412848L1033.068,241.23026218414313L1033.482,272.77934875488285L1033.896,296.76573886871336L1035.552,189.87159004211435L1036.38,289.36832656860355L1037.208,239.8139013290406L1038.864,230.28293552398688L1041.762,265.23143234252933L1043.0040000000001,203.02078285217294L1043.8319999999999,278.8069032669068L1044.66,246.33893051147467L1045.074,235.39610996246344L1046.73,355.62149848937986L1047.558,254.91874637603763L1047.972,212.7675012588502L1048.386,159.04276027679458L1049.6280000000002,192.3721212387086L1050.042,129.4212078094484L1051.284,248.4043516159058L1051.698,259.09555091857914L1052.94,260.43674983978275L1054.182,232.00481071472174L1055.838,257.96505775451664L1058.3220000000001,177.83666839599618L1058.736,174.99150981903085L1059.978,224.6560644149781L1060.392,200.65164985656747L1061.22,285.79696311950687L1062.048,209.23615207672128L1062.462,211.92071285247812L1063.29,249.61811771392826L1063.704,270.5825294494629L1064.532,237.44530906677252L1064.9460000000001,202.9668897628785L1065.3600000000001,187.41143360137949L1065.774,187.24434700012216L1066.602,183.20344676971445L1067.43,231.39017715454108L1067.844,262.09896411895755L1069.5,221.55369701385507L1069.914,263.71773948669437L1070.742,242.01486625671393L1071.9840000000002,210.79292335510263L1072.812,173.99277534484872L1074.054,325.340071105957L1076.538,244.07686271667487L1079.0220000000002,186.0740198135377L1080.678,352.3340200424194L1081.92,183.20056285858163L1083.99,244.35750331878668L1084.818,191.09581031799326L1086.06,280.80527343750003L1088.5439999999999,190.5264181137086L1088.958,216.00469150543222L1089.7859999999998,234.27174510955817L1091.028,293.0826238632202L1092.27,279.8925155639649L1092.684,203.88126983642587L1093.098,228.8119606018067L1096.8239999999998,134.39289035797134L1097.238,279.3607944488526L1097.652,104.8639835357668L1098.066,206.0092357635499L1098.894,356.42665042877195L1099.722,251.4535469055176L1100.964,184.14900913238534L1103.034,194.8223642349244L1103.862,194.57651081085214L1104.276,201.84649028778085L1104.69,194.57741203308115L1105.104,219.40049686431894L1108.416,201.62190570831308L1112.1419999999998,206.29203929901132L1114.212,211.8026527404786L1116.282,183.15405979156503L1117.524,209.17432823181161L1117.938,310.389875793457L1119.18,301.53969326019285L1120.836,235.8034624099732L1122.078,198.69185199737558L1122.906,287.40312137603763L1123.734,207.5085090637208L1124.976,307.1079849243164L1126.218,196.6913188934327L1126.632,231.14648666381842L1127.046,340.5846055984497L1127.874,195.7645019531251L1131.186,304.575009727478L1132.0140000000001,225.70328464508063L1132.8419999999999,232.9635309219361L1133.67,332.8182329177856L1135.74,214.14601078033456L1137.81,270.7088808059693L1139.466,239.1015752792359L1141.1219999999998,191.41826763153085L1141.536,314.6542791366577L1141.95,198.26413192749033L1143.606,311.4933322906494L1144.848,252.61486186981205L1146.09,197.7497142791749L1148.1599999999999,329.20036640167234L1149.402,348.20966663360593L1150.23,205.44362869262704L1151.886,209.82122554779062L1152.3,243.1172412872315L1152.7140000000002,316.32730808258054L1153.128,266.96538391113285L1153.9560000000001,244.30018558502204L1154.7839999999999,216.60382404327402L1156.026,239.14249076843268L1157.268,74.30858459472677L1157.682,206.957321548462L1158.51,161.4210857391359L1159.338,162.31329574584976L1162.2359999999999,249.92309131622318L1163.892,267.33146038055423L1164.72,201.01412143707284L1165.548,226.59026756286627L1166.376,245.08911552429205L1166.79,176.6658004760743L1167.618,228.04141559600836L1168.86,255.56167831420902L1169.688,204.01663341522226L1170.93,280.8707021713257L1171.758,245.50457897186286L1173,182.6594690322877L1173.414,288.78974189758304L1173.828,249.7439283370972L1177.968,263.11356010437015L1178.382,164.07212104797378L1179.21,379.570217514038L1179.624,150.63273468017593L1180.038,273.835941696167L1180.452,254.8208736419678L1181.694,259.1283554077149L1182.108,260.87294139862064L1182.936,231.36169853210455L1184.1779999999999,191.48820247650156L1185.006,245.37101783752448L1185.8339999999998,256.8214067459107L1186.662,348.90522994995115L1190.3880000000001,287.31011524200443L1190.802,190.9885648727418L1192.044,194.5209955215455L1192.8719999999998,233.45469703674323L1193.7,263.81020488739017L1194.528,142.2719158172609L1195.356,246.8284744262696L1195.77,300.4387601852417L1197.012,209.6526969909669L1199.4959999999999,160.46182479858413L1199.91,160.3616088867189L1201.566,279.8251041412354L1202.808,179.9595874786378L1204.0500000000002,220.50341262817392L1204.878,194.68988456726083L1205.292,134.9348854064943L1206.948,306.9059309005737L1208.604,209.04653491973886L1209.846,163.75020446777359L1210.26,191.21134700775156L1210.674,191.33211078643808L1211.088,297.8088134765625L1212.33,158.87765636444107L1213.986,316.1777051925659L1214.8139999999999,242.0514558792115L1216.47,229.65748729705817L1216.884,235.09996833801276L1217.712,327.235521697998L1218.126,254.11431541442875L1220.196,210.38809432983408L1221.438,124.77901210784927L1221.8519999999999,227.52880039215094L1222.68,228.89775695800788L1223.508,233.11024990081793L1224.336,284.7904781341553L1224.75,270.9471639633179L1225.992,236.62231292724616L1226.406,259.897278213501L1226.82,135.20867671966568L1227.234,226.7604183197022L1228.4759999999999,173.0875877380372L1228.8899999999999,158.13757266998306L1229.718,222.49078788757333L1232.202,210.15269508361826L1233.444,207.4656108856202L1234.6860000000001,184.44677295684824L1235.1000000000001,319.6407417297363L1236.756,269.0250371932984L1239.24,358.7721714019775L1240.068,142.6695350646974L1242.138,172.35381259918222L1244.622,254.01986732482914L1246.278,149.2852272033693L1247.106,292.86669101715086L1249.176,257.27958812713626L1250.0040000000001,301.9922870635986L1250.4180000000001,214.8952869415284L1251.2459999999999,242.85408439636237L1252.902,189.15854301452646L1254.558,226.85775032043463L1254.972,193.5487569808961L1256.628,319.04917945861814L1258.284,334.57615699768064L1259.5259999999998,303.7031673431396L1262.01,290.5276588439941L1262.424,147.98674621582046L1263.252,252.0052751541138L1265.736,237.3249057769776L1267.392,224.70815505981452L1269.048,223.73375358581552L1269.876,157.77401962280288L1270.29,368.7454570770263L1270.704,260.71558799743656L1271.946,230.10917987823493L1272.3600000000001,229.54357280731207L1274.43,319.74221935272215L1275.258,265.4098743438721L1276.914,321.33666172027586L1277.328,314.2418798446655L1277.742,237.56084575653082L1278.156,272.9318355560303L1278.57,291.87462558746336L1278.984,212.56706943511972L1279.3980000000001,238.32976856231696L1280.2259999999999,248.3798383712769L1282.71,268.0576652526856L1283.538,235.05256404876715" style="fill: none;" fill="none"></path></g></g></g></g></g></g><g transform="translate(58, 378)" clip-path="url(#clip_1)"><clipPath id="clip_1"><rect width="1380" height="22"></rect></clipPath><g><g><line x1="0" y1="0" x2="0" y2="5" style="visibility: inherit;" fill="rgb(0, 0, 0)" stroke="rgb(204, 204, 204)" stroke-width="1px"></line><line x1="138" y1="0" x2="138" y2="5" style="visibility: inherit;" fill="rgb(0, 0, 0)" stroke="rgb(204, 204, 204)" stroke-width="1px"></line><line x1="276" y1="0" x2="276" y2="5" style="visibility: inherit;" fill="rgb(0, 0, 0)" stroke="rgb(204, 204, 204)" stroke-width="1px"></line><line x1="414" y1="0" x2="414" y2="5" style="visibility: inherit;" fill="rgb(0, 0, 0)" stroke="rgb(204, 204, 204)" stroke-width="1px"></line><line x1="552" y1="0" x2="552" y2="5" style="visibility: inherit;" fill="rgb(0, 0, 0)" stroke="rgb(204, 204, 204)" stroke-width="1px"></line><line x1="690" y1="0" x2="690" y2="5" style="visibility: inherit;" fill="rgb(0, 0, 0)" stroke="rgb(204, 204, 204)" stroke-width="1px"></line><line x1="828" y1="0" x2="828" y2="5" style="visibility: inherit;" fill="rgb(0, 0, 0)" stroke="rgb(204, 204, 204)" stroke-width="1px"></line><line x1="965.9999999999999" y1="0" x2="965.9999999999999" y2="5" style="visibility: inherit;" fill="rgb(0, 0, 0)" stroke="rgb(204, 204, 204)" stroke-width="1px"></line><line x1="1104" y1="0" x2="1104" y2="5" style="visibility: inherit;" fill="rgb(0, 0, 0)" stroke="rgb(204, 204, 204)" stroke-width="1px"></line><line x1="1242" y1="0" x2="1242" y2="5" style="visibility: inherit;" fill="rgb(0, 0, 0)" stroke="rgb(204, 204, 204)" stroke-width="1px"></line><line x1="1380" y1="0" x2="1380" y2="5" style="visibility: inherit;" fill="rgb(0, 0, 0)" stroke="rgb(204, 204, 204)" stroke-width="1px"></line></g><g transform="translate(0, 8)"><text x="0" y="0" dx="0em" dy="0.95em" style="text-anchor: middle; visibility: hidden; font-family: &quot;Helvetica Neue&quot;, sans-serif; font-size: 12px; font-weight: 200;" fill="rgb(50, 49, 63)" stroke="none" stroke-width="1px">-1M</text><text x="138" y="0" dx="0em" dy="0.95em" style="text-anchor: middle; visibility: inherit; font-family: &quot;Helvetica Neue&quot;, sans-serif; font-size: 12px; font-weight: 200;" fill="rgb(50, 49, 63)" stroke="none" stroke-width="1px">0</text><text x="276" y="0" dx="0em" dy="0.95em" style="text-anchor: middle; visibility: inherit; font-family: &quot;Helvetica Neue&quot;, sans-serif; font-size: 12px; font-weight: 200;" fill="rgb(50, 49, 63)" stroke="none" stroke-width="1px">1M</text><text x="414" y="0" dx="0em" dy="0.95em" style="text-anchor: middle; visibility: inherit; font-family: &quot;Helvetica Neue&quot;, sans-serif; font-size: 12px; font-weight: 200;" fill="rgb(50, 49, 63)" stroke="none" stroke-width="1px">2M</text><text x="552" y="0" dx="0em" dy="0.95em" style="text-anchor: middle; visibility: inherit; font-family: &quot;Helvetica Neue&quot;, sans-serif; font-size: 12px; font-weight: 200;" fill="rgb(50, 49, 63)" stroke="none" stroke-width="1px">3M</text><text x="690" y="0" dx="0em" dy="0.95em" style="text-anchor: middle; visibility: inherit; font-family: &quot;Helvetica Neue&quot;, sans-serif; font-size: 12px; font-weight: 200;" fill="rgb(50, 49, 63)" stroke="none" stroke-width="1px">4M</text><text x="828" y="0" dx="0em" dy="0.95em" style="text-anchor: middle; visibility: inherit; font-family: &quot;Helvetica Neue&quot;, sans-serif; font-size: 12px; font-weight: 200;" fill="rgb(50, 49, 63)" stroke="none" stroke-width="1px">5M</text><text x="965.9999999999999" y="0" dx="0em" dy="0.95em" style="text-anchor: middle; visibility: inherit; font-family: &quot;Helvetica Neue&quot;, sans-serif; font-size: 12px; font-weight: 200;" fill="rgb(50, 49, 63)" stroke="none" stroke-width="1px">6M</text><text x="1104" y="0" dx="0em" dy="0.95em" style="text-anchor: middle; visibility: inherit; font-family: &quot;Helvetica Neue&quot;, sans-serif; font-size: 12px; font-weight: 200;" fill="rgb(50, 49, 63)" stroke="none" stroke-width="1px">7M</text><text x="1242" y="0" dx="0em" dy="0.95em" style="text-anchor: middle; visibility: inherit; font-family: &quot;Helvetica Neue&quot;, sans-serif; font-size: 12px; font-weight: 200;" fill="rgb(50, 49, 63)" stroke="none" stroke-width="1px">8M</text><text x="1380" y="0" dx="0em" dy="0.95em" style="text-anchor: middle; visibility: hidden; font-family: &quot;Helvetica Neue&quot;, sans-serif; font-size: 12px; font-weight: 200;" fill="rgb(50, 49, 63)" stroke="none" stroke-width="1px">9M</text></g><line x1="0" y1="0" x2="1380" y2="0" fill="rgb(0, 0, 0)" stroke="rgb(204, 204, 204)" stroke-width="1px"></line></g></g></g></g></svg>