<svg viewBox="0 0 1438 400" xmlns="http://www.w3.org/2000/svg"><g><g><g><g><g><line x1="46" y1="378" x2="41" y2="378" style="visibility: inherit;" fill="rgb(0, 0, 0)" stroke="rgb(204, 204, 204)" stroke-width="1px"></line><line x1="46" y1="324" x2="41" y2="324" style="visibility: inherit;" fill="rgb(0, 0, 0)" stroke="rgb(204, 204, 204)" stroke-width="1px"></line><line x1="46" y1="270" x2="41" y2="270" style="visibility: inherit;" fill="rgb(0, 0, 0)" stroke="rgb(204, 204, 204)" stroke-width="1px"></line><line x1="46" y1="216" x2="41" y2="216" style="visibility: inherit;" fill="rgb(0, 0, 0)" stroke="rgb(204, 204, 204)" stroke-width="1px"></line><line x1="46" y1="162" x2="41" y2="162" style="visibility: inherit;" fill="rgb(0, 0, 0)" stroke="rgb(204, 204, 204)" stroke-width="1px"></line><line x1="46" y1="108" x2="41" y2="108" style="visibility: inherit;" fill="rgb(0, 0, 0)" stroke="rgb(204, 204, 204)" stroke-width="1px"></line><line x1="46" y1="54" x2="41" y2="54" style="visibility: inherit;" fill="rgb(0, 0, 0)" stroke="rgb(204, 204, 204)" stroke-width="1px"></line><line x1="46" y1="0" x2="41" y2="0" style="visibility: inherit;" fill="rgb(0, 0, 0)" stroke="rgb(204, 204, 204)" stroke-width="1px"></line></g><g transform="translate(36, 0)"><text x="0" y="378" dx="0em" dy="0.3em" style="text-anchor: end; visibility: hidden; font-family: &quot;Helvetica Neue&quot;, sans-serif; font-size: 12px; font-weight: 200;" fill="rgb(50, 49, 63)" stroke="none" stroke-width="1px">1.5</text><text x="0" y="324" dx="0em" dy="0.3em" style="text-anchor: end; visibility: inherit; font-family: &quot;Helvetica Neue&quot;, sans-serif; font-size: 12px; font-weight: 200;" fill="rgb(50, 49, 63)" stroke="none" stroke-width="1px">2</text><text x="0" y="270" dx="0em" dy="0.3em" style="text-anchor: end; visibility: inherit; font-family: &quot;Helvetica Neue&quot;, sans-serif; font-size: 12px; font-weight: 200;" fill="rgb(50, 49, 63)" stroke="none" stroke-width="1px">2.5</text><text x="0" y="216" dx="0em" dy="0.3em" style="text-anchor: end; visibility: inherit; font-family: &quot;Helvetica Neue&quot;, sans-serif; font-size: 12px; font-weight: 200;" fill="rgb(50, 49, 63)" stroke="none" stroke-width="1px">3</text><text x="0" y="162" dx="0em" dy="0.3em" style="text-anchor: end; visibility: inherit; font-family: &quot;Helvetica Neue&quot;, sans-serif; font-size: 12px; font-weight: 200;" fill="rgb(50, 49, 63)" stroke="none" stroke-width="1px">3.5</text><text x="0" y="108" dx="0em" dy="0.3em" style="text-anchor: end; visibility: inherit; font-family: &quot;Helvetica Neue&quot;, sans-serif; font-size: 12px; font-weight: 200;" fill="rgb(50, 49, 63)" stroke="none" stroke-width="1px">4</text><text x="0" y="54" dx="0em" dy="0.3em" style="text-anchor: end; visibility: inherit; font-family: &quot;Helvetica Neue&quot;, sans-serif; font-size: 12px; font-weight: 200;" fill="rgb(50, 49, 63)" stroke="none" stroke-width="1px">4.5</text><text x="0" y="0" dx="0em" dy="0.3em" style="text-anchor: end; visibility: hidden; font-family: &quot;Helvetica Neue&quot;, sans-serif; font-size: 12px; font-weight: 200;" fill="rgb(50, 49, 63)" stroke="none" stroke-width="1px">5</text></g><line x1="46" y1="0" x2="46" y2="378" fill="rgb(0, 0, 0)" stroke="rgb(204, 204, 204)" stroke-width="1px"></line></g></g><g transform="translate(46, 0)" clip-path="url(#clip_0)"><clipPath id="clip_0"><rect width="1392" height="378"></rect></clipPath><g><g><g><line x1="0" y1="0" x2="0" y2="378" fill="rgb(0, 0, 0)" stroke="rgb(60, 60, 60)" stroke-width="1px" opacity="0.25"></line><line x1="139.20000000000002" y1="0" x2="139.20000000000002" y2="378" fill="rgb(0, 0, 0)" stroke="rgb(60, 60, 60)" stroke-width="1px" opacity="0.25"></line><line x1="278.40000000000003" y1="0" x2="278.40000000000003" y2="378" fill="rgb(0, 0, 0)" stroke="rgb(60, 60, 60)" stroke-width="1px" opacity="0.25"></line><line x1="417.59999999999997" y1="0" x2="417.59999999999997" y2="378" fill="rgb(0, 0, 0)" stroke="rgb(60, 60, 60)" stroke-width="1px" opacity="0.25"></line><line x1="556.8000000000001" y1="0" x2="556.8000000000001" y2="378" fill="rgb(0, 0, 0)" stroke="rgb(60, 60, 60)" stroke-width="1px" opacity="0.25"></line><line x1="696" y1="0" x2="696" y2="378" fill="rgb(0, 0, 0)" stroke="rgb(60, 60, 60)" stroke-width="1px" opacity="0.25"></line><line x1="835.1999999999999" y1="0" x2="835.1999999999999" y2="378" fill="rgb(0, 0, 0)" stroke="rgb(60, 60, 60)" stroke-width="1px" opacity="0.25"></line><line x1="974.4" y1="0" x2="974.4" y2="378" fill="rgb(0, 0, 0)" stroke="rgb(60, 60, 60)" stroke-width="1px" opacity="0.25"></line><line x1="1113.6000000000001" y1="0" x2="1113.6000000000001" y2="378" fill="rgb(0, 0, 0)" stroke="rgb(60, 60, 60)" stroke-width="1px" opacity="0.25"></line><line x1="1252.8" y1="0" x2="1252.8" y2="378" fill="rgb(0, 0, 0)" stroke="rgb(60, 60, 60)" stroke-width="1px" opacity="0.25"></line><line x1="1392" y1="0" x2="1392" y2="378" fill="rgb(0, 0, 0)" stroke="rgb(60, 60, 60)" stroke-width="1px" opacity="0.25"></line></g><g><line x1="0" y1="378" x2="1392" y2="378" fill="rgb(0, 0, 0)" stroke="rgb(60, 60, 60)" stroke-width="1px" opacity="0.25"></line><line x1="0" y1="324" x2="1392" y2="324" fill="rgb(0, 0, 0)" stroke="rgb(60, 60, 60)" stroke-width="1px" opacity="0.25"></line><line x1="0" y1="270" x2="1392" y2="270" fill="rgb(0, 0, 0)" stroke="rgb(60, 60, 60)" stroke-width="1px" opacity="0.25"></line><line x1="0" y1="216" x2="1392" y2="216" fill="rgb(0, 0, 0)" stroke="rgb(60, 60, 60)" stroke-width="1px" opacity="0.25"></line><line x1="0" y1="162" x2="1392" y2="162" fill="rgb(0, 0, 0)" stroke="rgb(60, 60, 60)" stroke-width="1px" opacity="0.25"></line><line x1="0" y1="108" x2="1392" y2="108" fill="rgb(0, 0, 0)" stroke="rgb(60, 60, 60)" stroke-width="1px" opacity="0.25"></line><line x1="0" y1="54" x2="1392" y2="54" fill="rgb(0, 0, 0)" stroke="rgb(60, 60, 60)" stroke-width="1px" opacity="0.25"></line><line x1="0" y1="0" x2="1392" y2="0" fill="rgb(0, 0, 0)" stroke="rgb(60, 60, 60)" stroke-width="1px" opacity="0.25"></line></g></g></g><g><g><line x1="0" y1="540" x2="1392" y2="540" fill="rgb(0, 0, 0)" stroke="rgb(153, 153, 153)" stroke-width="1.5px"></line></g></g><g><g><line x1="139.20000000000002" y1="0" x2="139.20000000000002" y2="378" fill="rgb(0, 0, 0)" stroke="rgb(153, 153, 153)" stroke-width="1.5px"></line></g></g><g><g><g><g><g><path stroke="rgb(255, 112, 67)" stroke-width="2px" d="M183.744,-18.536390304565487L185.83200000000002,9.184432983398438L187.92000000000002,-20.258651733398438L190.008,30.94163703918457L192.096,13.898649215698242L194.18400000000003,56.10710906982422L196.272,54.92372703552246L198.35999999999999,61.51614189147949L200.44799999999998,66.06123733520508L202.53599999999997,112.94467163085938L204.624,87.52206802368164L206.712,116.48660373687744L208.79999999999998,116.94408988952637L210.888,100.61924743652344L212.976,71.88658332824707L215.064,102.01387596130371L217.152,105.02586364746094L219.24,103.71291160583496L221.328,86.81793022155762L223.416,100.73022651672363L225.50400000000002,80.36517906188965L227.592,113.22677993774414L229.68,104.39196968078613L231.768,103.76162910461426L233.85600000000002,147.4777307510376L235.94400000000002,158.7341766357422L238.032,50.99187469482422L240.11999999999998,111.46978282928467L242.20799999999997,84.3497142791748L244.296,109.42012023925781L246.384,153.02344036102295L248.47199999999998,80.39180374145508L250.56,154.1952610015869L252.648,169.52443313598636L254.736,120.48790168762207L256.824,149.97522354125977L258.912,137.99702739715576L261,181.3595151901245L263.088,108.26902770996094L265.176,157.90968704223633L267.264,159.24099826812744L269.35200000000003,120.54568290710449L271.44,174.3328142166138L273.528,150.36766719818115L275.616,182.10637092590332L277.704,149.1992712020874L279.79200000000003,184.14140796661377L281.88,137.96254920959475L283.96799999999996,153.2298460006714L286.056,152.5217170715332L288.144,119.00119400024414L290.23199999999997,191.48242950439453L292.32,211.29000663757324L294.408,200.28966236114502L296.496,172.78587913513184L298.584,177.85921955108643L300.67199999999997,158.94915676116943L302.76,150.82453536987305L304.848,148.91561794281006L306.936,133.60223007202148L309.024,174.39517879486087L311.112,166.77230644226074L313.2,148.15516662597656L315.288,228.0335054397583L317.37600000000003,189.44844818115234L319.464,154.16626739501953L321.552,152.77647972106936L323.64000000000004,183.74695587158203L325.728,215.14242267608643L327.816,209.77497482299805L329.904,207.09368419647217L331.99199999999996,150.55087280273438L334.08,163.28411293029785L336.168,176.36337089538574L338.256,210.81799793243408L340.344,182.4430418014526L342.432,191.5759506225586L344.52,208.11456298828125L346.608,224.46121501922607L348.696,189.39306163787842L350.784,184.05069351196292L352.872,216.60227394104004L354.96,177.73431015014648L357.048,197.1717939376831L359.136,170.550461769104L361.224,179.22475147247314L363.312,234.53015899658203L365.40000000000003,189.7627944946289L367.488,170.45400524139404L369.576,173.64796257019043L371.66400000000004,238.25980281829834L373.752,181.1939477920532L375.84000000000003,224.25066375732422L377.92800000000005,174.14935111999512L380.016,101.55353164672852L382.10400000000004,216.2275972366333L384.192,215.37272357940674L386.28000000000003,208.6841869354248L388.36800000000005,194.9758243560791L390.456,192.0743007659912L392.544,210.26395225524902L394.63199999999995,182.21111869812015L396.71999999999997,241.84334564208984L398.808,226.640061378479L400.89599999999996,211.7651309967041L402.984,191.6252088546753L405.07199999999995,207.3679904937744L407.15999999999997,157.09598636627194L409.248,214.76197814941406L411.33599999999996,170.12263870239258L413.424,194.3367805480957L415.512,206.19969749450684L417.59999999999997,139.91392707824707L419.688,187.3161563873291L421.776,197.2034912109375L423.864,149.58007621765137L425.952,170.3512659072876L428.04,212.97699165344238L430.128,215.18179321289062L432.216,216.4640007019043L434.304,240.80166149139404L436.392,244.9998893737793L438.48,192.50565147399902L440.568,177.82293891906738L442.656,110.0749740600586L444.744,156.87395095825195L446.832,219.47204875946045L448.92,233.04000091552734L451.00800000000004,199.03760719299316L453.096,221.88781356811523L455.184,184.30772209167483L457.27200000000005,148.77034091949463L459.36,202.2427396774292L461.44800000000004,232.0746374130249L463.536,149.1789035797119L465.624,214.58201694488525L467.71200000000005,225.2049036026001L469.8,226.48860454559326L471.88800000000003,162.1032285690308L473.97600000000006,199.3824405670166L476.064,166.5234661102295L478.15200000000004,234.08044910430908L480.23999999999995,210.32665157318115L482.328,214.1035451889038L484.41599999999994,233.61709213256836L486.50399999999996,195.0536127090454L488.592,217.8685941696167L490.67999999999995,207.91477489471436L492.768,194.0603370666504L494.856,189.98490715026855L496.94399999999996,196.07472324371338L499.032,207.4626703262329L501.12,186.26010417938232L503.20799999999997,202.94175338745117L505.296,195.18907928466797L507.384,157.14037799835208L509.472,184.7828464508057L511.56,209.7744598388672L513.648,239.6347074508667L515.736,196.5752363204956L517.824,182.2250747680664L519.912,211.32680225372314L522,215.27938270568848L524.088,219.82841777801514L526.176,171.11689281463626L528.264,234.70048999786377L530.352,191.3615369796753L532.44,207.97876167297363L534.528,215.22224521636963L536.616,197.45022010803223L538.7040000000001,210.74721336364746L540.792,225.40767860412598L542.88,213.70574569702148L544.9680000000001,255.52598476409912L547.056,229.05142307281494L549.144,227.3216428756714L551.232,217.4919090270996L553.32,164.5072259902954L555.408,211.96133995056152L557.496,207.18009853363037L559.5840000000001,214.3257350921631L561.672,212.3212366104126L563.76,162.68825054168698L565.848,245.81531524658203L567.9359999999999,163.42740726470947L570.024,224.31380081176758L572.112,187.27338695526123L574.1999999999999,204.1148099899292L576.288,236.85211944580078L578.376,258.82190895080566L580.4639999999999,232.46329593658447L582.552,192.5828218460083L584.64,256.3806266784668L586.728,189.1975221633911L588.816,238.81964206695557L590.904,229.7823143005371L592.992,243.4028205871582L595.08,281.51684761047363L597.168,209.44832038879395L599.256,234.04470920562744L601.3439999999999,213.1763677597046L603.432,240.15973377227783L605.52,215.54256534576416L607.608,213.89616107940674L609.696,202.6197853088379L611.784,235.38289546966553L613.872,232.98373889923096L615.96,184.2919635772705L618.048,215.659029006958L620.136,234.4191026687622L622.224,173.5748863220215L624.312,244.7633056640625L626.4,219.4947338104248L628.488,259.87855339050293L630.576,200.0009365081787L632.664,251.25779628753662L634.7520000000001,219.83434009552002L636.84,234.24277210235596L638.928,239.46383571624756L641.0160000000001,177.21108627319333L643.104,239.62381553649902L645.192,225.62819480895996L647.2800000000001,251.32577419281006L649.368,248.17219161987305L651.456,242.60176277160645L653.544,219.31850624084473L655.632,223.38561916351318L657.7199999999999,225.92644786834717L659.808,174.45236778259277L661.896,276.02186393737793L663.9839999999999,268.79467964172363L666.072,233.62955474853516L668.16,192.6541986465454L670.2479999999999,261.76334381103516L672.336,281.2850532531738L674.424,200.8984251022339L676.512,250.39630508422852L678.6,221.560772895813L680.688,243.69749450683594L682.776,242.25401973724365L684.864,238.34562492370605L686.952,241.21648120880127L689.04,170.613676071167L691.128,159.25626754760745L693.216,211.60625839233398L695.304,243.50713062286377L697.392,211.19192790985107L699.4799999999999,245.60355377197266L701.568,276.4246072769165L703.656,208.0079870223999L705.744,228.16487789154053L707.8319999999999,210.18758010864258L709.92,221.5931911468506L712.0079999999999,218.4763011932373L714.096,259.79731464385986L716.184,196.49991989135742L718.272,241.84834098815918L720.3599999999999,206.98646450042725L722.448,261.1308403015137L724.536,258.8524217605591L726.624,280.92371463775635L728.712,229.45282745361328L730.8000000000001,228.20030879974365L732.8879999999999,154.9838047027588L734.976,253.6314353942871L737.064,210.41978645324707L739.152,261.8483934402466L741.24,258.05911445617676L743.3280000000001,241.17734241485596L745.4159999999999,223.1813507080078L747.504,196.5257978439331L749.592,225.5262794494629L751.6800000000001,237.66157150268555L753.768,217.52412128448486L755.8560000000001,247.26767349243164L757.944,231.8457269668579L760.032,266.2386074066162L762.12,239.8674545288086L764.2080000000001,260.1148796081543L766.2959999999999,208.45576572418213L768.384,254.98350048065186L770.472,236.7291669845581L772.5600000000001,228.86816596984863L774.648,226.07517528533936L776.7360000000001,251.7802734375L778.824,303.47054386138916L780.912,196.19831943511963L783,208.5900478363037L785.088,277.2625379562378L787.176,270.11329650878906L789.2639999999999,269.74994945526123L791.352,241.62779903411865L793.4399999999999,213.21782398223877L795.528,283.5173807144165L797.616,226.35231399536133L799.7040000000001,269.0488758087158L801.7919999999999,251.2917594909668L803.88,230.91960525512695L805.968,253.37790870666504L808.056,266.2789306640625L810.1439999999999,232.61119937896729L812.232,205.67791557312012L814.3199999999999,265.22205448150635L816.408,239.0192756652832L818.496,280.8379440307617L820.5840000000001,260.8585424423218L822.6719999999999,224.73176193237305L824.76,247.59878253936768L826.848,237.39686965942383L828.936,262.10508728027344L831.024,212.37082958221436L833.1120000000001,228.41024208068848L835.8960000000001,211.84286785125732L837.9839999999999,256.4803276062012L840.072,172.7033529281616L842.16,253.2385025024414L844.248,304.08597564697266L846.336,211.6779956817627L848.4240000000001,224.36501598358154L850.512,247.43414211273193L852.6,274.1316919326782L854.688,176.95416069030762L856.7760000000001,238.83794975280762L858.864,264.24556732177734L860.9520000000001,202.99392127990723L863.04,291.5091619491577L865.128,213.82519626617432L867.216,211.71888542175293L869.3040000000001,274.5892553329468L871.392,238.64730262756348L873.4799999999999,226.1220645904541L875.568,244.47257137298584L877.656,193.6530876159668L879.744,189.3709945678711L881.8319999999999,261.1218795776367L883.92,257.3408145904541L886.0079999999999,268.18465518951416L888.096,268.37880420684814L890.184,251.03972625732422L892.272,250.17877578735352L894.3599999999999,229.79480266571045L896.448,248.22904586791992L898.536,210.34444427490234L900.624,238.24139213562012L902.712,234.05117225646973L904.8000000000001,211.31699180603027L906.8879999999999,220.42090702056885L908.976,237.96324920654297L911.064,217.50813102722168L913.152,250.16577243804932L915.24,282.7709369659424L917.3280000000001,215.88621425628662L919.4159999999999,249.10390090942383L921.504,254.19168663024902L923.592,221.4097023010254L925.6800000000001,267.5372943878174L927.768,223.34413719177246L929.8560000000001,246.02990913391113L931.944,267.7790279388428L934.032,232.21788024902344L936.12,216.12385368347168L938.2080000000001,258.6919012069702L940.2959999999999,270.14978313446045L942.384,275.2156820297241L944.472,237.46309661865234L946.5600000000001,273.3047046661377L948.648,216.11484146118164L950.7360000000001,257.266450881958L952.824,240.71596813201904L954.912,237.4972915649414L957,230.89277458190918L959.088,248.93676280975342L961.176,256.7953176498413L963.2639999999999,262.9496612548828L965.352,273.27668952941895L967.4399999999999,232.49167156219482L969.528,234.90501594543457L971.616,270.44180488586426L973.7040000000001,238.9034299850464L975.096,267.27300453186035L977.184,228.61252784729004L979.272,256.75895977020264L981.3599999999999,240.95002841949463L983.448,253.58555030822754L985.536,288.48875427246094L987.624,246.2167453765869L989.712,203.11738872528076L991.8000000000001,243.7986888885498L993.8879999999999,249.02902221679688L995.976,286.89096450805664L998.064,211.1417942047119L1000.152,272.1737222671509L1002.24,281.13266944885254L1004.3280000000001,258.758282661438L1006.4159999999999,207.59260082244873L1008.504,218.32028675079346L1010.592,266.7243404388428L1012.6800000000001,246.6419162750244L1014.768,240.28139877319336L1016.8560000000001,254.74774074554443L1018.944,176.6746530532837L1021.032,226.98677444458008L1023.12,218.02890872955322L1025.208,245.88352489471436L1027.296,244.0881872177124L1009.8960000000001,240.94104194641113L1011.9839999999999,269.86213874816895L1014.072,243.59784507751465L1016.16,246.9098882675171L1018.248,225.90623474121094L1020.336,267.5378351211548L1022.4240000000001,190.89246368408203L1024.512,242.27624130249023L1026.6000000000001,264.37225341796875L1028.6879999999999,240.26270484924316L1030.776,229.9247589111328L1032.864,251.97859382629395L1034.952,250.21703910827637L1037.04,187.03157615661624L1039.1280000000002,265.2994565963745L1041.216,220.29411792755127L1043.304,225.55215740203857L1045.392,272.7750177383423L1047.48,242.42491722106934L1049.568,291.2119388580322L1051.656,198.10260200500488L1053.744,240.81268215179443L1055.8319999999999,245.4239273071289L1057.92,261.10882472991943L1060.008,294.9495906829834L1062.096,190.89012050628662L1064.184,256.74860858917236L1066.272,269.3933744430542L1068.36,277.3915672302246L1070.448,232.32267951965332L1072.536,185.560884475708L1074.624,235.9738655090332L1076.712,275.5646867752075L1078.8,272.4563970565796L1080.888,232.37644386291504L1082.976,260.85439682006836L1085.0639999999999,232.46823978424072L1087.152,207.91356468200684L1089.24,246.87038898468018L1091.328,237.20745849609375L1093.416,266.23340606689453L1095.5040000000001,258.892822265625L1097.5919999999999,233.7105360031128L1099.68,228.73107719421387L1101.768,199.2090711593628L1103.856,270.36126136779785L1105.944,273.28652572631836L1108.0320000000002,194.11940574645996L1110.12,274.57766819000244L1112.208,266.9284029006958L1114.296,260.1375904083252L1116.384,236.72726154327393L1118.472,259.8544521331787L1120.5600000000002,252.8206443786621L1122.648,264.8066682815552L1124.736,246.02045917510986L1126.824,294.68738651275635L1128.912,252.27347373962402L1131,223.44414710998535L1133.088,251.61099815368652L1135.176,287.17088413238525L1137.264,197.81681156158447L1139.352,279.60733795166016L1141.4399999999998,252.7930154800415L1143.528,249.80227088928223L1145.616,188.03952884674072L1147.704,251.15593242645264L1149.792,260.52060985565186L1151.88,271.12256240844727L1153.9679999999998,104.32636070251465L1156.056,192.2512493133545L1158.144,284.8743381500244L1160.232,265.72524547576904L1162.32,266.720890045166L1164.4080000000001,242.65787029266357L1166.4959999999999,295.7032699584961L1168.584,275.39721393585205L1170.672,259.3919448852539L1172.76,278.1272735595703L1174.848,253.82885456085205L1176.9360000000001,243.02363777160645L1179.024,287.79357719421387L1181.112,255.4155979156494L1183.2,265.5338258743286L1185.288,234.17113780975342L1187.376,271.5826234817505L1189.464,246.8750238418579L1191.552,159.80987548828125L1193.64,276.3670320510864L1195.728,234.54463005065918L1197.816,203.28331661224365L1199.904,271.29083347320557L1201.992,294.70512771606445L1204.08,286.5386896133423L1206.1680000000001,231.77061653137207L1208.256,259.03217697143555L1210.344,305.1939640045166L1212.432,224.55386066436768L1214.52,258.6010322570801L1216.608,242.87527084350586L1218.696,228.01795291900635L1220.784,242.6044921875L1222.8719999999998,290.87588596343994L1224.96,249.03242111206055L1227.048,247.95123767852783L1229.136,261.60730361938477L1231.224,242.6626853942871L1233.3120000000001,267.7994213104248L1235.3999999999999,244.56547451019287L1237.488,238.01121997833252L1239.576,248.15965175628662L1241.664,175.19237422943115L1243.752,197.05636024475098L1245.84,298.16479110717773L1247.9279999999999,297.09442234039307L1250.016,253.91627311706543L1252.104,265.8044242858887L1254.192,277.08010482788086L1256.28,314.16429233551025L1258.368,255.70226383209229L1260.456,253.42739868164062L1262.544,299.32250118255615L1264.632,239.63071632385254L1266.72,292.06941318511963L1268.808,260.06667709350586L1270.896,269.39448165893555L1272.984,262.10467529296875L1275.0720000000001,299.1419734954834L1277.16,273.87401962280273L1279.248,227.65612506866455L1281.336,248.03657054901123L1283.424,218.81629371643066L1285.512,259.4989070892334L1287.6000000000001,307.08367252349854L1289.6879999999999,268.95648765563965L1291.776,286.25408363342285L1293.864,259.0201005935669L1295.952,277.2781162261963" style="fill: none;" fill="none"></path></g></g></g></g></g></g><g transform="translate(46, 378)" clip-path="url(#clip_1)"><clipPath id="clip_1"><rect width="1392" height="22"></rect></clipPath><g><g><line x1="0" y1="0" x2="0" y2="5" style="visibility: inherit;" fill="rgb(0, 0, 0)" stroke="rgb(204, 204, 204)" stroke-width="1px"></line><line x1="139.20000000000002" y1="0" x2="139.20000000000002" y2="5" style="visibility: inherit;" fill="rgb(0, 0, 0)" stroke="rgb(204, 204, 204)" stroke-width="1px"></line><line x1="278.40000000000003" y1="0" x2="278.40000000000003" y2="5" style="visibility: inherit;" fill="rgb(0, 0, 0)" stroke="rgb(204, 204, 204)" stroke-width="1px"></line><line x1="417.59999999999997" y1="0" x2="417.59999999999997" y2="5" style="visibility: inherit;" fill="rgb(0, 0, 0)" stroke="rgb(204, 204, 204)" stroke-width="1px"></line><line x1="556.8000000000001" y1="0" x2="556.8000000000001" y2="5" style="visibility: inherit;" fill="rgb(0, 0, 0)" stroke="rgb(204, 204, 204)" stroke-width="1px"></line><line x1="696" y1="0" x2="696" y2="5" style="visibility: inherit;" fill="rgb(0, 0, 0)" stroke="rgb(204, 204, 204)" stroke-width="1px"></line><line x1="835.1999999999999" y1="0" x2="835.1999999999999" y2="5" style="visibility: inherit;" fill="rgb(0, 0, 0)" stroke="rgb(204, 204, 204)" stroke-width="1px"></line><line x1="974.4" y1="0" x2="974.4" y2="5" style="visibility: inherit;" fill="rgb(0, 0, 0)" stroke="rgb(204, 204, 204)" stroke-width="1px"></line><line x1="1113.6000000000001" y1="0" x2="1113.6000000000001" y2="5" style="visibility: inherit;" fill="rgb(0, 0, 0)" stroke="rgb(204, 204, 204)" stroke-width="1px"></line><line x1="1252.8" y1="0" x2="1252.8" y2="5" style="visibility: inherit;" fill="rgb(0, 0, 0)" stroke="rgb(204, 204, 204)" stroke-width="1px"></line><line x1="1392" y1="0" x2="1392" y2="5" style="visibility: inherit;" fill="rgb(0, 0, 0)" stroke="rgb(204, 204, 204)" stroke-width="1px"></line></g><g transform="translate(0, 8)"><text x="0" y="0" dx="0em" dy="0.95em" style="text-anchor: middle; visibility: hidden; font-family: &quot;Helvetica Neue&quot;, sans-serif; font-size: 12px; font-weight: 200;" fill="rgb(50, 49, 63)" stroke="none" stroke-width="1px">-200k</text><text x="139.20000000000002" y="0" dx="0em" dy="0.95em" style="text-anchor: middle; visibility: inherit; font-family: &quot;Helvetica Neue&quot;, sans-serif; font-size: 12px; font-weight: 200;" fill="rgb(50, 49, 63)" stroke="none" stroke-width="1px">0</text><text x="278.40000000000003" y="0" dx="0em" dy="0.95em" style="text-anchor: middle; visibility: inherit; font-family: &quot;Helvetica Neue&quot;, sans-serif; font-size: 12px; font-weight: 200;" fill="rgb(50, 49, 63)" stroke="none" stroke-width="1px">200k</text><text x="417.59999999999997" y="0" dx="0em" dy="0.95em" style="text-anchor: middle; visibility: inherit; font-family: &quot;Helvetica Neue&quot;, sans-serif; font-size: 12px; font-weight: 200;" fill="rgb(50, 49, 63)" stroke="none" stroke-width="1px">400k</text><text x="556.8000000000001" y="0" dx="0em" dy="0.95em" style="text-anchor: middle; visibility: inherit; font-family: &quot;Helvetica Neue&quot;, sans-serif; font-size: 12px; font-weight: 200;" fill="rgb(50, 49, 63)" stroke="none" stroke-width="1px">600k</text><text x="696" y="0" dx="0em" dy="0.95em" style="text-anchor: middle; visibility: inherit; font-family: &quot;Helvetica Neue&quot;, sans-serif; font-size: 12px; font-weight: 200;" fill="rgb(50, 49, 63)" stroke="none" stroke-width="1px">800k</text><text x="835.1999999999999" y="0" dx="0em" dy="0.95em" style="text-anchor: middle; visibility: inherit; font-family: &quot;Helvetica Neue&quot;, sans-serif; font-size: 12px; font-weight: 200;" fill="rgb(50, 49, 63)" stroke="none" stroke-width="1px">1M</text><text x="974.4" y="0" dx="0em" dy="0.95em" style="text-anchor: middle; visibility: inherit; font-family: &quot;Helvetica Neue&quot;, sans-serif; font-size: 12px; font-weight: 200;" fill="rgb(50, 49, 63)" stroke="none" stroke-width="1px">1.2M</text><text x="1113.6000000000001" y="0" dx="0em" dy="0.95em" style="text-anchor: middle; visibility: inherit; font-family: &quot;Helvetica Neue&quot;, sans-serif; font-size: 12px; font-weight: 200;" fill="rgb(50, 49, 63)" stroke="none" stroke-width="1px">1.4M</text><text x="1252.8" y="0" dx="0em" dy="0.95em" style="text-anchor: middle; visibility: inherit; font-family: &quot;Helvetica Neue&quot;, sans-serif; font-size: 12px; font-weight: 200;" fill="rgb(50, 49, 63)" stroke="none" stroke-width="1px">1.6M</text><text x="1392" y="0" dx="0em" dy="0.95em" style="text-anchor: middle; visibility: hidden; font-family: &quot;Helvetica Neue&quot;, sans-serif; font-size: 12px; font-weight: 200;" fill="rgb(50, 49, 63)" stroke="none" stroke-width="1px">1.8M</text></g><line x1="0" y1="0" x2="1392" y2="0" fill="rgb(0, 0, 0)" stroke="rgb(204, 204, 204)" stroke-width="1px"></line></g></g></g></g></svg>