<svg viewBox="0 0 1438 400" xmlns="http://www.w3.org/2000/svg"><g><g><g><g><g><line x1="46" y1="378" x2="41" y2="378" style="visibility: inherit;" fill="rgb(0, 0, 0)" stroke="rgb(204, 204, 204)" stroke-width="1px"></line><line x1="46" y1="335.99999999999994" x2="41" y2="335.99999999999994" style="visibility: inherit;" fill="rgb(0, 0, 0)" stroke="rgb(204, 204, 204)" stroke-width="1px"></line><line x1="46" y1="293.9999999999999" x2="41" y2="293.9999999999999" style="visibility: inherit;" fill="rgb(0, 0, 0)" stroke="rgb(204, 204, 204)" stroke-width="1px"></line><line x1="46" y1="251.9999999999999" x2="41" y2="251.9999999999999" style="visibility: inherit;" fill="rgb(0, 0, 0)" stroke="rgb(204, 204, 204)" stroke-width="1px"></line><line x1="46" y1="210.00000000000003" x2="41" y2="210.00000000000003" style="visibility: inherit;" fill="rgb(0, 0, 0)" stroke="rgb(204, 204, 204)" stroke-width="1px"></line><line x1="46" y1="168" x2="41" y2="168" style="visibility: inherit;" fill="rgb(0, 0, 0)" stroke="rgb(204, 204, 204)" stroke-width="1px"></line><line x1="46" y1="125.99999999999994" x2="41" y2="125.99999999999994" style="visibility: inherit;" fill="rgb(0, 0, 0)" stroke="rgb(204, 204, 204)" stroke-width="1px"></line><line x1="46" y1="83.99999999999989" x2="41" y2="83.99999999999989" style="visibility: inherit;" fill="rgb(0, 0, 0)" stroke="rgb(204, 204, 204)" stroke-width="1px"></line><line x1="46" y1="41.99999999999983" x2="41" y2="41.99999999999983" style="visibility: inherit;" fill="rgb(0, 0, 0)" stroke="rgb(204, 204, 204)" stroke-width="1px"></line><line x1="46" y1="0" x2="41" y2="0" style="visibility: inherit;" fill="rgb(0, 0, 0)" stroke="rgb(204, 204, 204)" stroke-width="1px"></line></g><g transform="translate(36, 0)"><text x="0" y="378" dx="0em" dy="0.3em" style="text-anchor: end; visibility: hidden; font-family: &quot;Helvetica Neue&quot;, sans-serif; font-size: 12px; font-weight: 200;" fill="rgb(50, 49, 63)" stroke="none" stroke-width="1px">2.9</text><text x="0" y="335.99999999999994" dx="0em" dy="0.3em" style="text-anchor: end; visibility: inherit; font-family: &quot;Helvetica Neue&quot;, sans-serif; font-size: 12px; font-weight: 200;" fill="rgb(50, 49, 63)" stroke="none" stroke-width="1px">3</text><text x="0" y="293.9999999999999" dx="0em" dy="0.3em" style="text-anchor: end; visibility: inherit; font-family: &quot;Helvetica Neue&quot;, sans-serif; font-size: 12px; font-weight: 200;" fill="rgb(50, 49, 63)" stroke="none" stroke-width="1px">3.1</text><text x="0" y="251.9999999999999" dx="0em" dy="0.3em" style="text-anchor: end; visibility: inherit; font-family: &quot;Helvetica Neue&quot;, sans-serif; font-size: 12px; font-weight: 200;" fill="rgb(50, 49, 63)" stroke="none" stroke-width="1px">3.2</text><text x="0" y="210.00000000000003" dx="0em" dy="0.3em" style="text-anchor: end; visibility: inherit; font-family: &quot;Helvetica Neue&quot;, sans-serif; font-size: 12px; font-weight: 200;" fill="rgb(50, 49, 63)" stroke="none" stroke-width="1px">3.3</text><text x="0" y="168" dx="0em" dy="0.3em" style="text-anchor: end; visibility: inherit; font-family: &quot;Helvetica Neue&quot;, sans-serif; font-size: 12px; font-weight: 200;" fill="rgb(50, 49, 63)" stroke="none" stroke-width="1px">3.4</text><text x="0" y="125.99999999999994" dx="0em" dy="0.3em" style="text-anchor: end; visibility: inherit; font-family: &quot;Helvetica Neue&quot;, sans-serif; font-size: 12px; font-weight: 200;" fill="rgb(50, 49, 63)" stroke="none" stroke-width="1px">3.5</text><text x="0" y="83.99999999999989" dx="0em" dy="0.3em" style="text-anchor: end; visibility: inherit; font-family: &quot;Helvetica Neue&quot;, sans-serif; font-size: 12px; font-weight: 200;" fill="rgb(50, 49, 63)" stroke="none" stroke-width="1px">3.6</text><text x="0" y="41.99999999999983" dx="0em" dy="0.3em" style="text-anchor: end; visibility: inherit; font-family: &quot;Helvetica Neue&quot;, sans-serif; font-size: 12px; font-weight: 200;" fill="rgb(50, 49, 63)" stroke="none" stroke-width="1px">3.7</text><text x="0" y="0" dx="0em" dy="0.3em" style="text-anchor: end; visibility: hidden; font-family: &quot;Helvetica Neue&quot;, sans-serif; font-size: 12px; font-weight: 200;" fill="rgb(50, 49, 63)" stroke="none" stroke-width="1px">3.8</text></g><line x1="46" y1="0" x2="46" y2="378" fill="rgb(0, 0, 0)" stroke="rgb(204, 204, 204)" stroke-width="1px"></line></g></g><g transform="translate(46, 0)" clip-path="url(#clip_0)"><clipPath id="clip_0"><rect width="1392" height="378"></rect></clipPath><g><g><g><line x1="0" y1="0" x2="0" y2="378" fill="rgb(0, 0, 0)" stroke="rgb(60, 60, 60)" stroke-width="1px" opacity="0.25"></line><line x1="154.66666666666666" y1="0" x2="154.66666666666666" y2="378" fill="rgb(0, 0, 0)" stroke="rgb(60, 60, 60)" stroke-width="1px" opacity="0.25"></line><line x1="309.3333333333333" y1="0" x2="309.3333333333333" y2="378" fill="rgb(0, 0, 0)" stroke="rgb(60, 60, 60)" stroke-width="1px" opacity="0.25"></line><line x1="464" y1="0" x2="464" y2="378" fill="rgb(0, 0, 0)" stroke="rgb(60, 60, 60)" stroke-width="1px" opacity="0.25"></line><line x1="618.6666666666666" y1="0" x2="618.6666666666666" y2="378" fill="rgb(0, 0, 0)" stroke="rgb(60, 60, 60)" stroke-width="1px" opacity="0.25"></line><line x1="773.3333333333334" y1="0" x2="773.3333333333334" y2="378" fill="rgb(0, 0, 0)" stroke="rgb(60, 60, 60)" stroke-width="1px" opacity="0.25"></line><line x1="928" y1="0" x2="928" y2="378" fill="rgb(0, 0, 0)" stroke="rgb(60, 60, 60)" stroke-width="1px" opacity="0.25"></line><line x1="1082.6666666666667" y1="0" x2="1082.6666666666667" y2="378" fill="rgb(0, 0, 0)" stroke="rgb(60, 60, 60)" stroke-width="1px" opacity="0.25"></line><line x1="1237.3333333333333" y1="0" x2="1237.3333333333333" y2="378" fill="rgb(0, 0, 0)" stroke="rgb(60, 60, 60)" stroke-width="1px" opacity="0.25"></line><line x1="1392" y1="0" x2="1392" y2="378" fill="rgb(0, 0, 0)" stroke="rgb(60, 60, 60)" stroke-width="1px" opacity="0.25"></line></g><g><line x1="0" y1="378" x2="1392" y2="378" fill="rgb(0, 0, 0)" stroke="rgb(60, 60, 60)" stroke-width="1px" opacity="0.25"></line><line x1="0" y1="335.99999999999994" x2="1392" y2="335.99999999999994" fill="rgb(0, 0, 0)" stroke="rgb(60, 60, 60)" stroke-width="1px" opacity="0.25"></line><line x1="0" y1="293.9999999999999" x2="1392" y2="293.9999999999999" fill="rgb(0, 0, 0)" stroke="rgb(60, 60, 60)" stroke-width="1px" opacity="0.25"></line><line x1="0" y1="251.9999999999999" x2="1392" y2="251.9999999999999" fill="rgb(0, 0, 0)" stroke="rgb(60, 60, 60)" stroke-width="1px" opacity="0.25"></line><line x1="0" y1="210.00000000000003" x2="1392" y2="210.00000000000003" fill="rgb(0, 0, 0)" stroke="rgb(60, 60, 60)" stroke-width="1px" opacity="0.25"></line><line x1="0" y1="168" x2="1392" y2="168" fill="rgb(0, 0, 0)" stroke="rgb(60, 60, 60)" stroke-width="1px" opacity="0.25"></line><line x1="0" y1="125.99999999999994" x2="1392" y2="125.99999999999994" fill="rgb(0, 0, 0)" stroke="rgb(60, 60, 60)" stroke-width="1px" opacity="0.25"></line><line x1="0" y1="83.99999999999989" x2="1392" y2="83.99999999999989" fill="rgb(0, 0, 0)" stroke="rgb(60, 60, 60)" stroke-width="1px" opacity="0.25"></line><line x1="0" y1="41.99999999999983" x2="1392" y2="41.99999999999983" fill="rgb(0, 0, 0)" stroke="rgb(60, 60, 60)" stroke-width="1px" opacity="0.25"></line><line x1="0" y1="0" x2="1392" y2="0" fill="rgb(0, 0, 0)" stroke="rgb(60, 60, 60)" stroke-width="1px" opacity="0.25"></line></g></g></g><g><g><line x1="0" y1="1596" x2="1392" y2="1596" fill="rgb(0, 0, 0)" stroke="rgb(153, 153, 153)" stroke-width="1.5px"></line></g></g><g><g><line x1="154.66666666666666" y1="0" x2="154.66666666666666" y2="378" fill="rgb(0, 0, 0)" stroke="rgb(153, 153, 153)" stroke-width="1.5px"></line></g></g><g><g><g><g><g><path stroke="rgb(255, 112, 67)" stroke-width="2px" d="M172.608,-23.666576385498104L173.536,50.08264160156244L174.464,23.441010475158635L175.392,-3.180793762207088L176.32000000000002,-12.011569976806754L177.248,67.26514434814447L178.17600000000002,77.29564762115473L180.03199999999998,61.6905841827392L182.816,60.07699584960932L183.744,49.181719779968205L184.672,89.47626686096186L185.6,114.17696571350092L186.52800000000002,102.5505981445312L188.384,86.67106246948237L189.312,37.00831031799311L190.23999999999998,100.62098121643061L191.168,113.23739147186274L192.096,91.84658145904535L193.952,119.8792991638183L194.88000000000002,148.74294376373288L195.808,14.418474197387638L196.73600000000002,73.050290107727L197.664,152.26602172851557L198.59199999999998,123.16355323791501L200.44799999999998,49.78313541412348L201.376,102.13463401794428L203.232,155.9448108673095L204.16,116.15895366668695L205.08800000000002,115.59899425506586L206.016,92.79576873779291L206.94400000000002,95.15046215057367L207.872,69.7487125396728L209.728,196.5864286422729L210.65599999999998,185.59111690521232L211.584,148.61747360229487L212.512,84.33379268646235L213.44,63.124028205871525L214.368,94.0045080184936L215.29600000000002,136.66766738891596L216.224,90.21496868133539L217.152,146.33658027648917L218.08,139.29943656921378L219.00799999999998,149.72267246246332L220.864,94.8478517532348L221.792,136.2861499786376L222.72,141.43363094329828L223.64800000000002,73.19698905944819L225.50400000000002,155.83636379241935L226.432,107.52133941650385L227.35999999999999,144.828535079956L228.288,127.063642501831L230.144,134.71852397918693L231.072,183.5170040130615L232.928,177.538496017456L233.85600000000002,62.899724006652775L234.784,135.04086112976069L235.712,136.72274208068842L236.64000000000001,74.43426704406733L237.56799999999998,141.7480573654174L239.42399999999998,183.26766586303705L240.352,58.29578018188471L241.28,145.08167839050284L242.20799999999997,198.0741462707519L244.06400000000002,99.7701272964477L244.992,104.06445121765131L246.848,57.26067638397211L247.77599999999998,153.07131385803217L248.704,123.05330371856684L249.632,214.37024688720697L250.56,172.49185180664054L251.488,115.61131095886225L252.41600000000003,128.78878211975092L253.344,160.3040227890014L255.2,116.61667442321772L256.128,127.25470161437983L257.056,181.38361072540278L257.984,227.77963256835932L259.84000000000003,134.1843996047973L260.768,162.98185443878168L261.696,85.60882186889643L262.624,230.74144935607904L263.55199999999996,55.95360374450672L264.48,188.3588705062866L265.408,133.38741874694816L266.336,213.26865291595453L267.264,152.84771060943598L268.192,170.19333457946775L269.12,141.4778909683227L270.048,64.05539131164545L270.976,156.16821384429926L271.904,232.8432998657226L272.832,142.52581214904777L274.688,197.0178136825561L275.616,170.11853313446042L278.40000000000003,50.938101768493596L279.328,209.39129447937006L281.184,164.72431755065915L282.11199999999997,140.71916198730463L283.96799999999996,182.2460803985595L285.824,85.4743394851684L286.752,158.73169040679926L287.68,159.79102706909177L288.608,149.47223281860346L289.536,143.14825630187983L290.464,222.46933078765863L292.32,204.19564819335932L293.248,161.81076622009272L294.17600000000004,181.788459777832L295.104,166.140037536621L296.96000000000004,205.30114746093744L297.888,149.30440521240232L298.81600000000003,172.69322490692133L300.67199999999997,94.72768878936762L301.6,176.1458072662353L302.52799999999996,120.53108310699457L304.384,216.658049583435L305.312,232.2333726882934L307.168,46.3716087341308L308.096,142.7286872863769L309.952,184.3718633651733L310.88,182.53316974639887L311.808,117.99013710021967L313.664,129.43816280364985L314.592,157.94342136383048L315.52,193.16879367828363L317.37600000000003,73.23744392395014L318.304,202.811671257019L319.232,204.69642734527582L320.16,123.43221759796137L322.016,183.86287307739252L322.944,170.86614704132077L323.872,82.27289772033686L324.8,112.89833164215082L325.728,262.9706583023071L326.656,199.08862209320063L327.584,116.6002521514892L328.512,196.10888099670404L329.44,203.34138965606684L331.296,153.73331165313715L332.224,194.148021697998L335.008,64.03145885467524L338.72,184.91900539398188L339.64799999999997,181.61212062835688L341.50399999999996,149.1688213348388L342.432,259.2347917556762L343.36,174.33915710449213L345.216,147.1290550231933L346.144,234.52427959442133L347.072,193.13404655456537L348,227.6903114318847L348.928,143.37706661224362L351.712,124.36648464202875L352.64000000000004,222.93576335906977L353.568,156.20165920257563L354.496,158.78506278991694L355.42400000000004,168.7933359146118L356.35200000000003,196.3857564926147L357.28,137.6167545318603L358.208,95.41281795501703L359.136,145.8874711990356L360.06399999999996,141.13472557067863L360.992,230.10979270935056L361.92,210.36882019042963L363.77599999999995,254.4794425964355L364.704,262.0699367523193L365.632,229.888292312622L367.488,162.69045925140375L368.416,214.50092411041254L369.344,205.355821609497L370.27200000000005,273.5575160980224L371.2,181.08790969848627L372.128,190.90141868591303L373.05600000000004,222.39022350311274L374.912,200.14855957031244L375.84000000000003,206.46702861785883L377.69599999999997,207.05182170867914L378.624,179.41444015502924L379.552,221.86020469665522L381.408,272.11425876617426L382.336,228.0990657806396L383.26399999999995,116.17627716064447L384.192,158.24262714385978L385.12,177.48121833801264L386.048,312.4860105514526L386.97600000000006,171.13501167297358L387.904,240.70716476440424L388.832,182.5059328079223L389.76000000000005,188.8902912139892L390.688,183.6943445205688L391.616,210.8671960830688L392.544,226.12538909912104L394.4,201.16293525695795L395.328,152.0941886901855L396.25600000000003,196.72111129760737L397.18399999999997,218.65555858612055L399.04,132.3649320602416L399.968,214.90637397766108L400.89599999999996,118.49602317810053L402.752,208.47104644775385L404.608,219.1548357009887L406.464,240.18705940246576L407.39200000000005,209.0842781066894L408.32,177.8818616867065L409.248,148.64441013336176L410.17600000000004,214.98037433624262L412.032,146.42700290679926L412.96000000000004,214.85660648345942L413.88800000000003,252.3204145431518L414.816,257.11391544342035L415.744,210.6417903900146L416.672,171.62447547912595L417.59999999999997,219.07182312011713L418.528,238.84894466400144L423.168,167.18465423583982L425.024,250.8725509643554L425.952,121.31054019927973L427.808,309.1809282302856L428.736,205.1068840026855L429.664,103.11997032165522L430.59200000000004,212.3616228103637L431.52,227.12965106964106L432.448,285.74614620208735L433.37600000000003,243.41123199462885L434.304,171.75745582580564L435.23199999999997,217.59451961517328L436.16,242.88842296600336L437.088,300.6975231170654L439.872,265.0541839599609L440.79999999999995,119.20999145507807L441.728,208.85256385803217L442.656,264.11430931091303L443.584,164.01565647125238L445.44,218.05434322357172L446.368,128.01373100280756L447.29600000000005,117.97571754455561L448.224,295.1477966308593L449.152,71.77335834503168L450.08,195.58306789398188L451.00800000000004,202.03551864624018L451.936,186.85342884063715L452.864,239.39859008789057L453.79200000000003,275.819483757019L454.71999999999997,248.40129947662348L455.64799999999997,240.46203231811518L456.576,137.5924215316772L457.504,223.95444488525385L458.43199999999996,200.47249889373774L459.36,125.22825336456296L461.21599999999995,210.87710952758783L462.144,230.44975376129145L463.6906666666667,167.90412998199457L465.5466666666666,183.26886749267572L467.4026666666667,240.65068817138666L468.3306666666667,194.4260988235473L469.2586666666666,176.5464506149291L470.18666666666667,202.90029144287104L471.11466666666666,178.5819110870361L472.0426666666666,218.98450469970697L472.97066666666666,367.3121652603149L473.89866666666666,245.7396898269653L474.82666666666665,203.42370128631586L475.7546666666667,293.36768245697016L476.68266666666665,171.81743717193598L477.61066666666665,200.0754604339599L478.5386666666667,232.35774135589594L479.46666666666664,239.38156700134275L480.39466666666664,190.3178272247314L481.3226666666667,159.2516956329345L482.2506666666667,187.24556064605707L483.17866666666663,306.44041156768793L484.1066666666667,247.74611091613764L485.0346666666667,93.25749492645258L485.9626666666666,178.31955528259272L486.8906666666667,226.78588485717768L487.8186666666667,237.02757453918454L488.74666666666667,216.07926464080805L489.6746666666667,313.8465557098388L490.60266666666666,239.99299621582026L491.53066666666666,201.01573562622065L492.4586666666667,218.94515132904047L493.38666666666666,255.8823451995849L494.31466666666665,194.19248199462885L495.2426666666667,164.52204322814936L496.1706666666667,210.9304819107055L498.02666666666664,288.90813446044916L498.9546666666667,224.90974044799802L500.81066666666663,238.16762065887448L501.7386666666667,222.2636518478393L502.6666666666667,286.31581878662104L503.5946666666666,269.0385875701904L504.5226666666667,212.83176040649408L505.4506666666667,263.69804477691645L506.3786666666666,214.46487522125238L508.23466666666667,236.22849082946772L509.1626666666666,63.1177196502685L511.01866666666666,249.3815288543701L511.94666666666666,240.69935417175287L512.8746666666667,218.86494255065912L513.8026666666667,176.51721096038816L514.7306666666666,274.0414724349975L516.5866666666667,296.2213525772094L517.5146666666667,151.697751045227L518.4426666666667,260.9404048919677L519.3706666666667,247.38472080230707L522.1546666666667,206.9875345230102L524.0106666666667,171.4652595520019L524.9386666666667,265.7264957427978L526.7946666666667,253.60715961456293L527.7226666666667,238.12025642395014L528.6506666666667,239.79883289337155L530.5066666666667,199.99084568023676L531.4346666666667,236.3902101516723L533.2906666666667,229.50997924804682L535.1466666666666,285.131212234497L536.0746666666666,289.4121179580688L537.0026666666666,311.5954027175903L538.8586666666666,138.2982788085937L539.7866666666666,271.83628177642817L540.7146666666666,268.59909152984613L543.4986666666666,180.84768390655512L544.4266666666667,216.8609247207641L545.3546666666666,251.59372901916498L546.2826666666666,212.82064533233637L547.2106666666667,220.7184562683105L548.1386666666667,251.44112205505365L549.9946666666667,260.0169525146484L551.8506666666666,165.20767307281488L553.7066666666667,208.50068664550776L555.5626666666667,300.20996189117426L558.3466666666666,242.86138629913324L559.2746666666667,237.0650253295898L561.1306666666667,250.5564222335815L562.0586666666667,249.78898143768305L562.9866666666667,233.08162307739252L563.9146666666667,295.85415458679194L564.8426666666667,209.12773704528803L566.6986666666667,112.1026525497436L567.6266666666667,227.1916351318359L568.5546666666667,243.66407489776606L569.4826666666667,277.41264438629145L570.4106666666667,212.8304586410522L571.3386666666667,226.29401779174802L572.2666666666667,211.5275917053222L573.1946666666666,274.07972431182856L574.1226666666666,240.24263477325434L575.0506666666666,263.8860998153686L575.9786666666666,287.6751623153686L576.9066666666666,241.7036161422729L578.7626666666667,230.30475711822504L579.6906666666666,246.9834766387939L580.6186666666666,361.5899047851562L581.5466666666667,290.4786643981933L582.4746666666666,220.08860206603998L583.4026666666666,235.86890316009516L584.3306666666667,262.92189216613764L585.2586666666667,209.04692745208735L586.1866666666666,269.71650695800776L587.1146666666666,241.11261463165278L588.0426666666667,231.88309764862055L588.9706666666666,215.59000110626215L589.8986666666666,317.92628860473627L590.8266666666667,295.4145584106445L591.7546666666667,261.0871038436889L592.6826666666666,228.54406929016108L593.6106666666667,267.1230897903442L594.5386666666667,285.7124004364013L595.4666666666666,323.3862934112548L597.3226666666667,247.43358707427973L598.2506666666667,295.2247009277343L601.9626666666667,263.1483993530273L602.8906666666667,271.42832851409906L603.8186666666667,290.3902444839477L604.7466666666667,238.9855298995971L605.6746666666667,270.7075510025024L606.6026666666667,174.52000236511225L607.5306666666667,308.72420883178705L608.4586666666667,269.0192613601684L610.3146666666667,209.143458366394L611.2426666666667,220.6393489837646L612.1706666666666,258.4833726882934L614.9546666666666,235.43922042846674L615.8826666666666,207.7888212203979L617.7386666666666,212.08524799346918L620.5226666666666,265.544448852539L621.4506666666666,282.34743690490717L622.3786666666667,306.1875686645507L623.3066666666666,242.6180562973022L624.2346666666666,266.78883647918695L625.1626666666667,248.77921199798578L626.0906666666667,308.28351116180414L627.0186666666666,248.91870117187494L627.9466666666667,255.66495037078852L628.8746666666667,287.7857122421264L629.8026666666666,250.4902324676513L631.6586666666667,252.98922157287592L632.5866666666666,245.40824031829828L633.5146666666667,294.5810279846191L634.4426666666667,273.50073909759516L635.3706666666667,252.48293495178217L636.2986666666667,264.50914478301996L637.2266666666667,278.5213479995727L639.0826666666667,197.54342651367182L640.0106666666667,229.7242698669433L640.9386666666667,264.76008510589594L641.8666666666667,241.011076927185L647.4346666666667,195.21466827392572L649.2906666666667,294.5876369476318L650.2186666666666,262.4250183105468L651.1466666666666,264.40660572051996L652.0746666666666,279.2107830047607L653.0026666666666,273.412519454956L653.9306666666666,282.6237115859985L654.8586666666666,285.1272068023681L655.7866666666666,314.4192323684692L656.7146666666667,267.8379592895507L657.6426666666666,194.44752788543695L658.5706666666666,250.37317371368403L659.4986666666667,292.40367507934565L660.4266666666666,206.0448560714721L661.3546666666666,323.00767993926996L662.2826666666667,342.9794654846191L663.2106666666667,257.0733604431152L664.1386666666666,194.40256690978998L665.9946666666667,228.86450386047358L666.9226666666666,276.9257841110229L667.8506666666667,349.03407669067377L669.7066666666667,271.07284641265863L670.6346666666667,293.6552724838256L671.5626666666667,308.80331611633295L672.4906666666667,303.18399524688715L673.4186666666666,267.51011466979975L674.3466666666667,250.5365953445434L675.2746666666667,331.0168418884277L677.1306666666667,241.9085941314697L678.0586666666667,276.55217742919916L678.9866666666667,310.71831321716303L679.9146666666667,238.10994243621823L680.8426666666667,304.90112400054926L681.7706666666667,256.99725723266596L682.6986666666667,245.9417638778686L683.6266666666667,141.89896202087394L684.5546666666667,172.54171943664545L685.4826666666667,301.1947975158691L686.4106666666667,207.57643318176264L687.3386666666667,209.85802745819086L689.1946666666666,278.01335906982416L690.1226666666666,256.71867942810053L691.0506666666666,337.7040109634399L691.9786666666666,323.37557888031L692.9066666666666,306.0678062438964L693.8346666666667,227.62642478942865L694.7626666666666,277.7864513397216L695.6906666666666,303.432632446289L696.6186666666667,267.87601089477533L697.5466666666666,243.51777648925776L698.4746666666666,282.59537315368647L699.4026666666667,298.72314548492426L700.3306666666666,317.37423992156977L701.2586666666666,213.9266452789306L703.1146666666666,263.9895401000976L704.0426666666666,325.0625667572021L704.9706666666667,257.16868972778315L706.8266666666667,282.1275386810302L707.7546666666667,225.3438291549682L708.6826666666666,281.10094642639154L709.6106666666667,297.25265121459955L711.4666666666666,246.2728128433227L712.3946666666667,294.334093093872L713.3226666666667,243.87305831909174L714.2506666666666,280.4188213348388L714.8693333333333,274.71478557586664L715.7973333333333,230.83647823333735L716.7253333333333,328.72463321685785L718.5813333333334,212.7995166778564L720.4373333333333,293.88568496704096L721.3653333333334,217.8288373947143L722.2933333333333,255.6428203582763L725.0773333333333,283.4608469009399L728.7893333333333,291.1460695266723L729.7173333333334,287.94582939147944L730.6453333333333,257.92491531372065L731.5733333333334,330.0976953506469L732.5013333333334,246.29914855957026L733.4293333333333,257.11351490020746L734.3573333333334,244.96313667297358L735.2853333333334,272.4587259292602L738.0693333333334,306.99686622619623L738.9973333333332,235.80341434478754L739.9253333333334,199.4708404541015L740.8533333333334,321.19722461700434L742.7093333333333,207.25820159912104L743.6373333333333,336.81600666046137L744.5653333333333,247.6402673721313L746.4213333333335,288.8552627563476L747.3493333333333,256.1334857940673L748.2773333333333,219.18107128143305L749.2053333333334,379.721694946289L750.1333333333333,279.9905405044555L751.0613333333333,244.3507061004638L751.9893333333334,364.5303926467895L752.9173333333333,276.62948226928705L753.8453333333333,234.40141296386716L754.7733333333334,250.007978439331L755.7013333333333,259.91831874847406L756.6293333333333,233.7400159835815L757.5573333333334,227.37668609619135L758.4853333333333,266.0722646713256L759.4133333333334,208.425684928894L760.3413333333334,274.62866878509516L763.1253333333334,279.5872936248779L764.0533333333333,333.8769207000732L765.9093333333333,343.80618667602533L766.8373333333333,330.6385288238525L767.7653333333334,249.029351234436L768.6933333333333,312.2457847595214L769.6213333333333,184.5703325271606L770.5493333333334,311.67801475524897L771.4773333333333,301.2272415161132L772.4053333333333,375.1701221466064L773.3333333333334,260.2053079605102L773.6426666666667,292.6629266738891L774.5706666666666,249.37522029876706L776.4266666666667,284.332028388977L777.3546666666666,243.52298355102533L778.2826666666667,241.6876945495605L779.2106666666667,258.4908828735351L780.1386666666666,211.53470134735102L781.0666666666667,260.8851299285888L781.9946666666667,236.6703901290893L782.9226666666666,232.4796066284179L783.8506666666667,250.4901323318481L784.7786666666667,190.0632820129394L785.7066666666666,206.35657882690424L786.6346666666667,228.3147583007812L787.5626666666667,313.9255628585815L788.4906666666666,192.03075027465815L789.4186666666667,228.216625213623L790.3466666666667,202.49984836578363L791.2746666666666,250.36796665191645L792.2026666666667,147.43246650695792L793.1306666666667,140.9679994583129L794.0586666666667,223.2789287567138L795.9146666666668,171.60564994812006L797.7706666666667,199.28679084777826L799.6266666666667,281.485668182373L802.4106666666667,236.2373027801513L803.3386666666667,226.83525180816645L804.2666666666665,185.03586387634272L805.1946666666666,298.0002651214599L806.1226666666666,102.24838829040522L807.0506666666666,265.70016002655024L807.9786666666666,135.76684570312494L808.9066666666668,316.6379413604736L809.8346666666666,222.95368766784662L810.7626666666666,303.8414869308471L811.6906666666667,227.0300159454345L812.6186666666666,195.87696647644037L813.5466666666666,291.2405977249145L816.3306666666666,210.9578189849853L817.2586666666667,233.3104333877563L818.1866666666666,179.00929069519037L820.0426666666667,201.61554908752436L820.9706666666666,226.55647373199457L821.8986666666667,219.50631237030024L822.8266666666667,139.4005737304687L823.7546666666666,212.20811462402338L824.6826666666667,210.1367053985595L825.6106666666667,181.21818637847895L826.5386666666666,71.32064437866205L827.4666666666667,143.85691738128654L829.3226666666666,189.30825805664057L830.2506666666667,190.16161537170404L831.1786666666667,124.20386409759516L832.1066666666666,252.6607761383056L833.0346666666667,144.30662727355949L834.8906666666667,220.18072700500483L835.8186666666667,207.6990995407104L836.7466666666667,235.05600070953363L837.6746666666667,255.8045396804809L838.6026666666667,117.81189537048334L839.5306666666668,186.63723564147944L840.4586666666667,254.00850391387934L841.3866666666667,186.20184516906733L842.3146666666668,296.2866411209106L843.2426666666667,220.43146705627436L844.1706666666666,180.054307937622L845.0986666666668,210.93408679962153L846.0266666666666,223.00405597686762L846.9546666666666,218.66567230224604L848.8106666666666,208.6644086837768L849.7386666666666,182.94873332977286L850.6666666666667,106.55873394012445L851.5946666666666,195.24270629882807L852.5226666666667,263.1936607360839L853.4506666666667,232.39389038085932L854.3786666666666,77.53206825256342L855.3066666666667,168.96306610107416L858.0906666666667,216.77220439910883L859.0186666666667,137.3409805297851L860.8746666666667,249.15702438354487L861.8026666666666,229.71946334838862L862.7306666666666,170.89748954772944L863.6586666666667,107.29373073577875L864.5866666666666,246.94382286071772L865.5146666666667,259.6927127838134L867.3706666666666,240.22991752624506L868.2986666666667,277.4081382751464L869.2266666666667,136.9816932678222L870.1546666666666,148.0065450668334L871.0826666666667,239.63140583038324L872.0106666666667,244.53435516357416L872.9386666666666,218.96047210693354L873.8666666666667,228.51302719116205L875.7226666666666,206.50768375396723L876.6506666666667,226.36491394042963L877.5786666666667,168.47890949249262L878.5066666666667,234.06285381317133L879.4346666666667,228.44633674621576L880.3626666666667,268.27174758911127L881.2906666666667,246.97326278686518L882.2186666666666,185.25325870513913L883.1466666666668,169.95941734313956L884.0746666666666,97.54230594635004L885.0026666666666,308.45464324951166L885.9306666666668,236.11583805084223L886.8586666666666,284.071174621582L887.7866666666666,210.96062278747553L888.7146666666667,233.8983306884765L889.6426666666666,305.5471000671386L890.5706666666666,177.6340255737304L891.4986666666667,221.2051162719726L892.4266666666666,241.054235458374L893.3546666666666,325.4029283523559L894.2826666666667,228.3183631896972L895.2106666666666,206.48515319824213L896.1386666666667,216.2960586547851L897.9946666666666,203.47807502746576L898.9226666666667,181.31952381134028L899.8506666666667,195.70212936401362L900.7786666666666,224.6276578903198L901.7066666666667,248.66756057739252L902.6346666666667,202.28015041351313L903.5626666666666,219.58071327209467L904.4906666666667,115.27235126495356L906.3466666666666,256.57778835296625L907.2746666666667,177.2331819534301L908.2026666666667,254.35106849670404L909.1306666666667,193.84250736236567L910.0586666666667,246.68487167358393L910.9866666666668,253.79281139373774L912.8426666666667,116.9317016601562L913.7706666666668,153.57639884948725L914.6986666666667,217.48977756500238L915.6266666666667,169.0759191513061L917.4826666666667,326.1874923706054L918.4106666666667,150.07505035400385L919.3386666666665,244.85519027709955L922.1226666666666,208.26727008819574L923.0506666666666,166.3728532791137L923.9786666666666,242.88341617584223L924.9066666666666,211.3582620620727L925.8346666666666,266.18641948699945L926.7626666666667,158.56256103515616L927.6906666666666,215.02773857116694L928.3093333333333,269.72672080993647L929.2373333333334,110.23992633819574L930.1653333333334,263.1400880813598L931.0933333333332,345.0501737594604L932.0213333333334,259.69151115417475L932.9493333333334,220.22628879547113L934.8053333333334,281.04807472229L935.7333333333335,264.0579328536987L937.5893333333333,134.89616489410395L938.5173333333332,255.50783729553217L939.4453333333333,281.3915405273437L940.3733333333333,261.8095836639404L942.2293333333333,206.3895235061645L943.1573333333333,273.2296714782714L944.0853333333332,154.46920967102042L945.0133333333333,283.1175813674926L946.8693333333333,277.2927818298339L948.7253333333334,239.2095336914062L950.5813333333333,265.5708847045898L951.5093333333334,286.2073717117309L952.4373333333333,262.3819599151611L953.3653333333333,214.21283340454096L954.2933333333334,219.3974647521972L958.0053333333333,262.7750930786132L958.9333333333333,231.07249832153315L959.8613333333334,226.51892280578608L960.7893333333333,190.41746234893793L961.7173333333333,239.56171131134028L963.5733333333333,222.98332786560053L964.5013333333334,245.7159576416015L965.4293333333334,273.2666215896606L966.3573333333333,280.9035787582397L967.2853333333334,275.3193054199218L968.2133333333334,241.28444766998285L969.1413333333333,251.85538387298578L970.0693333333334,217.6039323806762L970.9973333333334,288.5742816925048L971.9253333333332,242.5606784820556L973.7813333333334,330.2564105987548L974.7093333333332,290.3410778045654L975.6373333333333,222.72317504882807L976.5653333333333,270.35787677764887L977.4933333333333,315.74633216857904L978.4213333333333,149.25243473052973L979.3493333333334,208.36069679260248L980.2773333333333,254.54372978210444L981.2053333333333,248.32739925384516L982.1333333333334,237.66183471679682L983.0613333333333,183.4676370620727L983.9893333333333,228.19199180603025L984.9173333333334,241.89066982269281L985.8453333333333,271.4838037490844L986.7733333333333,236.09591102600092L987.7013333333334,206.4841518402099L988.6293333333333,271.2229499816894L990.4853333333334,281.2550554275512L991.4133333333333,257.4054107666015L992.3413333333334,181.0021934509277L993.2693333333334,286.8628606796264L994.1973333333333,265.7574377059936L995.1253333333334,236.94516277313227L996.0533333333333,360.0778541564941L996.9813333333333,175.6654558181762L997.9093333333334,318.96800136566156L998.8373333333333,188.9121208190917L999.7653333333333,363.89913654327387L1000.6933333333334,270.9528837203979L1002.5493333333333,189.39046955108637L1003.4773333333334,284.13646316528315L1004.4053333333333,180.04329299926755L1005.3333333333334,327.2637519836425L1007.1893333333333,247.94447994232172L1008.1173333333334,307.30278110504145L1009.0453333333334,269.70669364929194L1009.9733333333332,205.65382575988764L1010.9013333333334,288.895917892456L1011.8293333333334,262.12851619720453L1013.6853333333333,272.31362915039057L1014.6133333333333,244.87942314147944L1016.4693333333333,265.40505981445307L1017.3973333333333,258.2846031188964L1018.3253333333332,276.3034400939941L1019.2533333333333,234.53449344635004L1020.1813333333333,259.12093734741205L1021.1093333333333,173.5868368148803L1022.9653333333334,283.5290393829345L1024.8213333333333,245.56485271453855L1027.6053333333334,233.8659868240356L1028.5333333333333,193.8859663009643L1029.4613333333332,280.0678453445434L1030.3893333333333,220.91572380065912L1032.2453333333333,274.96722793579096L1033.1733333333334,212.0650205612182L1034.1013333333333,321.82757949829096L1035.9573333333333,295.4093513488769L1036.8853333333334,218.1307468414306L1037.8133333333333,299.44442367553705L1038.7413333333334,279.1383848190307L1040.5973333333334,221.26019096374506L1041.5253333333333,223.47499465942377L1042.4533333333334,223.84099102020258L1043.3813333333333,267.63258075714106L1044.3093333333334,265.8875141143798L1045.2373333333335,263.0003986358642L1046.1653333333334,244.77127647399897L1047.0933333333332,286.876178741455L1048.0213333333334,248.3607444763183L1048.9493333333332,245.19495105743403L1049.8773333333334,318.91883468627924L1050.8053333333335,329.84905815124506L1052.6613333333335,293.3183155059814L1054.5173333333332,248.9485416412353L1055.4453333333333,188.20376014709464L1057.3013333333333,273.96116352081293L1058.2293333333334,303.63680934906L1059.1573333333333,267.9886636734008L1060.0853333333332,291.7178449630737L1061.0133333333333,302.2599420547485L1061.9413333333332,221.2003097534179L1062.8693333333333,315.7910928726196L1063.7973333333334,256.19847393035883L1064.7253333333333,198.47689247131342L1065.6533333333334,329.3104276657104L1066.5813333333333,269.69487762451166L1067.5093333333332,323.3269128799438L1069.3653333333334,290.3704175949096L1070.2933333333333,159.0562305450439L1071.2213333333334,276.67284107208246L1072.1493333333333,254.97521495819086L1073.0773333333332,362.16468429565424L1074.0053333333333,252.8605470657348L1075.8613333333333,260.7555541992187L1077.7173333333333,276.35801410675043L1078.6453333333334,271.9783744812011L1080.5013333333334,346.97488403320307L1081.4293333333333,310.1612577438354L1083.2853333333335,308.428708076477L1084.2133333333334,223.2143411636352L1085.1413333333333,248.98669338226313L1086.0693333333334,210.17145252227778L1087.9253333333334,285.8751211166381L1088.8533333333335,255.46718215942377L1089.7813333333334,282.01899147033686L1091.6373333333333,236.66898822784418L1092.5653333333332,296.0768566131591L1093.4933333333333,265.6938514709472L1094.4213333333335,239.16637516021723L1096.2773333333334,263.68252372741694L1097.2053333333333,185.1973829269409L1098.1333333333332,264.73885631561274L1099.0613333333333,294.3743476867675L1100.9173333333333,252.60740375518793L1101.8453333333334,261.4101419448852L1102.7733333333333,213.57326602935785L1103.7013333333332,301.96724510192865L1104.6293333333333,226.42058944702143L1105.5573333333334,233.26507186889643L1106.4853333333333,314.1276369094848L1108.3413333333333,301.2338504791259L1110.1973333333333,269.8664102554321L1111.1253333333334,301.78069210052485L1112.0533333333333,185.94579792022702L1112.9813333333334,249.4076642990112L1113.9093333333333,241.12042522430414L1114.8373333333334,370.081220626831L1115.7653333333333,261.66238403320307L1116.6933333333332,368.77094364166254L1117.6213333333333,195.65616703033442L1118.5493333333334,119.09693813323969L1120.4053333333334,257.5848541259765L1121.3333333333333,192.92165851593012L1122.2613333333334,245.81919765472406L1123.1893333333333,198.12801933288569L1125.0453333333332,229.60080242156977L1125.9733333333334,329.56046676635737L1126.9013333333335,214.4176111221313L1127.8293333333334,127.16297721862787L1128.7573333333332,263.5913000106811L1129.6853333333333,259.2170677185058L1131.5413333333333,353.33010292053217L1132.4693333333335,249.21079730987543L1133.3973333333333,186.24660587310785L1134.3253333333332,259.4906387329101L1135.2533333333333,293.0068931579589L1138.9653333333333,268.1423721313476L1139.8933333333334,258.8621864318847L1140.8213333333333,337.53157711029047L1141.7493333333332,308.8750133514404L1142.6773333333333,307.2982749938964L1143.6053333333334,274.8928270339965L1144.5333333333333,303.1718788146972L1145.4613333333334,241.97097873687738L1146.3893333333333,310.4387340545654L1147.3173333333332,287.07695102691645L1148.2453333333333,303.86411762237543L1149.1733333333334,232.57253265380854L1150.1013333333333,285.8631048202514L1151.0293333333334,258.16273784637445L1151.9573333333333,160.32465076446528L1152.8853333333334,261.80718040466303L1153.8133333333333,240.0845203399658L1154.7413333333334,284.5619401931762L1155.6693333333333,220.5602416992187L1156.5973333333334,258.64399051666254L1157.5253333333335,296.5956602096557L1158.4533333333334,273.45998382568354L1159.3813333333333,222.74830913543695L1160.3093333333334,237.90866947174067L1161.2373333333333,199.17343711853022L1163.0933333333335,280.6750688552856L1164.9493333333332,226.6781387329101L1165.8773333333334,292.5763092041015L1166.8053333333332,246.00605106353754L1167.7333333333333,215.14579868316645L1168.6613333333335,261.62293052673334L1170.5173333333335,289.277735710144L1172.3733333333332,320.6541881561279L1173.3013333333333,270.95268344879145L1174.2293333333332,312.45016193389887L1175.1573333333333,300.90119934082026L1177.0133333333333,223.30526447296137L1177.9413333333332,263.8689765930175L1178.8693333333333,275.877061843872L1179.7973333333332,233.93447971343988L1180.7253333333333,237.91557884216303L1183.5093333333334,260.8072242736816L1184.4373333333333,272.50498867034906L1187.2213333333334,249.57779502868647L1188.1493333333333,325.3815994262695L1189.0773333333334,233.96492099761957L1191.8613333333333,248.32659816741938L1192.7893333333334,200.35043334960932L1194.6453333333334,199.8637733459472L1195.5733333333335,322.85196876525873L1196.5013333333334,219.53034496307367L1197.4293333333333,246.88484287261957L1198.3573333333334,301.17477035522455L1199.2853333333333,347.3373756408691L1200.2133333333334,282.5655326843261L1201.1413333333335,293.77333259582514L1202.0693333333334,354.3070278167724L1202.9973333333332,286.4008340835571L1204.8533333333332,345.1187667846679L1205.7813333333334,291.7320642471313L1206.7093333333335,261.88278293609613L1208.5653333333335,250.61580276489252L1209.4933333333333,289.85872364044184L1210.4213333333332,252.24991893768305L1211.3493333333333,316.3723812103271L1212.2773333333334,208.0315504074096L1213.2053333333333,387.0898876190185L1214.1333333333334,265.2536544799804L1215.0613333333333,312.95003986358637L1215.9893333333332,274.5949230194091L1216.9173333333333,181.8381271362304L1217.8453333333334,345.8607730865478L1219.7013333333334,259.89178276062006L1220.6293333333333,289.3750677108764L1221.5573333333332,204.71525287628168L1222.4853333333333,260.47297096252436L1223.4133333333334,288.454719543457L1224.3413333333333,195.00408267974848L1225.2693333333334,263.3275423049926L1226.1973333333335,271.65143108367914L1227.1253333333334,223.01647281646723L1228.0533333333333,233.53403663635248L1228.9813333333332,364.2788515090942L1229.9093333333333,248.726240158081L1230.8373333333334,216.43544769287104L1231.7653333333333,261.08600234985346L1233.6213333333333,274.04477691650385L1234.5493333333332,275.9830055236816L1235.4773333333333,195.89769458770746L1236.4053333333334,253.19179630279535L1237.3333333333333,263.4304819107055L1238.2613333333334,317.5647983551025L1239.1893333333335,257.14395618438715L1242.9013333333332,252.55393123626703L1243.8293333333334,312.8263721466064L1244.7573333333335,274.74843120574945L1245.6853333333333,289.66165637969965L1247.5413333333333,296.36745071411127L1248.4693333333332,277.51788711547846L1249.3973333333333,219.07773113250727L1250.3253333333334,254.16221237182612L1251.2533333333333,280.93972778320307L1253.1093333333333,294.8383769989013L1254.0373333333332,322.00221633911127L1254.9653333333333,256.773754119873L1255.8933333333334,288.736701965332L1256.8213333333333,204.99413108825678L1257.7493333333334,204.17552089691156L1258.6773333333333,316.07077217102045L1259.6053333333332,325.7714281082153L1260.5333333333333,309.2566308975219L1261.4613333333334,241.22516727447504L1262.3893333333333,261.8091831207275L1263.3173333333334,245.62283134460444L1264.2453333333333,243.04864025115964L1265.1733333333332,273.35524177551264L1266.1013333333333,246.82365989685053L1267.0293333333334,224.32604885101313L1267.9573333333333,240.32845115661615L1268.8853333333334,297.0155296325683L1269.8133333333335,281.0623941421508L1270.7413333333334,272.0261392593383L1272.5973333333334,233.79258728027338L1273.5253333333333,193.5532150268554L1274.4533333333334,344.3192825317382L1276.3093333333334,252.17421627044672L1277.2373333333333,260.84948158264154L1278.1653333333334,262.14664077758783L1279.0933333333332,260.75495338439936L1280.0213333333334,199.1932640075683L1280.9493333333335,267.28691196441645L1282.8053333333335,293.9511737823486L1284.6613333333332,241.2262687683105L1286.5173333333332,299.8791131973266L1287.4453333333333,248.62740612030026L1288.3733333333334,280.28804397583" style="fill: none;" fill="none"></path></g></g></g></g></g></g><g transform="translate(46, 378)" clip-path="url(#clip_1)"><clipPath id="clip_1"><rect width="1392" height="22"></rect></clipPath><g><g><line x1="0" y1="0" x2="0" y2="5" style="visibility: inherit;" fill="rgb(0, 0, 0)" stroke="rgb(204, 204, 204)" stroke-width="1px"></line><line x1="154.66666666666666" y1="0" x2="154.66666666666666" y2="5" style="visibility: inherit;" fill="rgb(0, 0, 0)" stroke="rgb(204, 204, 204)" stroke-width="1px"></line><line x1="309.3333333333333" y1="0" x2="309.3333333333333" y2="5" style="visibility: inherit;" fill="rgb(0, 0, 0)" stroke="rgb(204, 204, 204)" stroke-width="1px"></line><line x1="464" y1="0" x2="464" y2="5" style="visibility: inherit;" fill="rgb(0, 0, 0)" stroke="rgb(204, 204, 204)" stroke-width="1px"></line><line x1="618.6666666666666" y1="0" x2="618.6666666666666" y2="5" style="visibility: inherit;" fill="rgb(0, 0, 0)" stroke="rgb(204, 204, 204)" stroke-width="1px"></line><line x1="773.3333333333334" y1="0" x2="773.3333333333334" y2="5" style="visibility: inherit;" fill="rgb(0, 0, 0)" stroke="rgb(204, 204, 204)" stroke-width="1px"></line><line x1="928" y1="0" x2="928" y2="5" style="visibility: inherit;" fill="rgb(0, 0, 0)" stroke="rgb(204, 204, 204)" stroke-width="1px"></line><line x1="1082.6666666666667" y1="0" x2="1082.6666666666667" y2="5" style="visibility: inherit;" fill="rgb(0, 0, 0)" stroke="rgb(204, 204, 204)" stroke-width="1px"></line><line x1="1237.3333333333333" y1="0" x2="1237.3333333333333" y2="5" style="visibility: inherit;" fill="rgb(0, 0, 0)" stroke="rgb(204, 204, 204)" stroke-width="1px"></line><line x1="1392" y1="0" x2="1392" y2="5" style="visibility: inherit;" fill="rgb(0, 0, 0)" stroke="rgb(204, 204, 204)" stroke-width="1px"></line></g><g transform="translate(0, 8)"><text x="0" y="0" dx="0em" dy="0.95em" style="text-anchor: middle; visibility: hidden; font-family: &quot;Helvetica Neue&quot;, sans-serif; font-size: 12px; font-weight: 200;" fill="rgb(50, 49, 63)" stroke="none" stroke-width="1px">-500k</text><text x="154.66666666666666" y="0" dx="0em" dy="0.95em" style="text-anchor: middle; visibility: inherit; font-family: &quot;Helvetica Neue&quot;, sans-serif; font-size: 12px; font-weight: 200;" fill="rgb(50, 49, 63)" stroke="none" stroke-width="1px">0</text><text x="309.3333333333333" y="0" dx="0em" dy="0.95em" style="text-anchor: middle; visibility: inherit; font-family: &quot;Helvetica Neue&quot;, sans-serif; font-size: 12px; font-weight: 200;" fill="rgb(50, 49, 63)" stroke="none" stroke-width="1px">500k</text><text x="464" y="0" dx="0em" dy="0.95em" style="text-anchor: middle; visibility: inherit; font-family: &quot;Helvetica Neue&quot;, sans-serif; font-size: 12px; font-weight: 200;" fill="rgb(50, 49, 63)" stroke="none" stroke-width="1px">1M</text><text x="618.6666666666666" y="0" dx="0em" dy="0.95em" style="text-anchor: middle; visibility: inherit; font-family: &quot;Helvetica Neue&quot;, sans-serif; font-size: 12px; font-weight: 200;" fill="rgb(50, 49, 63)" stroke="none" stroke-width="1px">1.5M</text><text x="773.3333333333334" y="0" dx="0em" dy="0.95em" style="text-anchor: middle; visibility: inherit; font-family: &quot;Helvetica Neue&quot;, sans-serif; font-size: 12px; font-weight: 200;" fill="rgb(50, 49, 63)" stroke="none" stroke-width="1px">2M</text><text x="928" y="0" dx="0em" dy="0.95em" style="text-anchor: middle; visibility: inherit; font-family: &quot;Helvetica Neue&quot;, sans-serif; font-size: 12px; font-weight: 200;" fill="rgb(50, 49, 63)" stroke="none" stroke-width="1px">2.5M</text><text x="1082.6666666666667" y="0" dx="0em" dy="0.95em" style="text-anchor: middle; visibility: inherit; font-family: &quot;Helvetica Neue&quot;, sans-serif; font-size: 12px; font-weight: 200;" fill="rgb(50, 49, 63)" stroke="none" stroke-width="1px">3M</text><text x="1237.3333333333333" y="0" dx="0em" dy="0.95em" style="text-anchor: middle; visibility: inherit; font-family: &quot;Helvetica Neue&quot;, sans-serif; font-size: 12px; font-weight: 200;" fill="rgb(50, 49, 63)" stroke="none" stroke-width="1px">3.5M</text><text x="1392" y="0" dx="0em" dy="0.95em" style="text-anchor: middle; visibility: hidden; font-family: &quot;Helvetica Neue&quot;, sans-serif; font-size: 12px; font-weight: 200;" fill="rgb(50, 49, 63)" stroke="none" stroke-width="1px">4M</text></g><line x1="0" y1="0" x2="1392" y2="0" fill="rgb(0, 0, 0)" stroke="rgb(204, 204, 204)" stroke-width="1px"></line></g></g></g></g></svg>